<?xml version="1.0" encoding="UTF-8" standalone="no"?>
<!DOCTYPE svg PUBLIC "-//W3C//DTD SVG 1.1//EN" "http://www.w3.org/Graphics/SVG/1.1/DTD/svg11.dtd">
<svg width="100%" height="100%" viewBox="0 0 817 293" version="1.1" xmlns="http://www.w3.org/2000/svg" xmlns:xlink="http://www.w3.org/1999/xlink" xml:space="preserve" xmlns:serif="http://www.serif.com/" style="fill-rule:evenodd;clip-rule:evenodd;stroke-linejoin:round;stroke-miterlimit:2;">
    <g transform="matrix(1,0,0,1,-131.82,-77.8745)">
        <g id="Capa_1">
            <g>
                <path d="M484.36,248.18L461.01,248.18L456.67,258.91L440.73,258.91L465.11,203.68L480.49,203.68L504.95,258.91L488.7,258.91L484.36,248.18ZM479.78,236.66L472.68,218.99L465.58,236.66L479.78,236.66Z" style="fill:url(#_Linear1);fill-rule:nonzero;"/>
                <path d="M515.76,258.36C511.55,257.26 508.13,255.78 505.5,253.94L510.63,242.42C513.1,244.05 515.97,245.37 519.23,246.36C522.49,247.36 525.7,247.86 528.85,247.86C534.85,247.86 537.84,246.36 537.84,243.36C537.84,241.78 536.98,240.61 535.28,239.85C533.57,239.09 530.82,238.29 527.04,237.44C522.88,236.55 519.41,235.59 516.63,234.56C513.84,233.53 511.45,231.89 509.45,229.63C507.45,227.37 506.45,224.32 506.45,220.48C506.45,217.12 507.37,214.08 509.21,211.37C511.05,208.66 513.8,206.52 517.45,204.94C521.1,203.36 525.59,202.57 530.9,202.57C534.53,202.57 538.11,202.98 541.63,203.79C545.15,204.61 548.26,205.8 550.94,207.38L546.13,218.98C540.87,216.14 535.77,214.72 530.82,214.72C527.72,214.72 525.46,215.18 524.04,216.1C522.62,217.02 521.91,218.22 521.91,219.69C521.91,221.16 522.75,222.27 524.43,223C526.11,223.74 528.82,224.5 532.56,225.29C536.77,226.19 540.25,227.14 543.01,228.17C545.77,229.2 548.16,230.83 550.19,233.06C552.21,235.3 553.23,238.33 553.23,242.17C553.23,245.48 552.31,248.48 550.47,251.16C548.63,253.84 545.87,255.99 542.19,257.59C538.51,259.19 534.04,260 528.78,260C524.31,260 519.97,259.45 515.76,258.34L515.76,258.36Z" style="fill:url(#_Linear2);fill-rule:nonzero;"/>
                <path d="M604.75,246.84L604.75,258.91L560.41,258.91L560.41,203.68L603.72,203.68L603.72,215.75L575.87,215.75L575.87,225.06L600.41,225.06L600.41,236.74L575.87,236.74L575.87,246.84L604.75,246.84Z" style="fill:url(#_Linear3);fill-rule:nonzero;"/>
                <path d="M650.35,230.11L664.16,230.11L664.16,252.99C661,255.25 657.38,256.99 653.27,258.2C649.17,259.41 645.07,260.02 640.96,260.02C635.17,260.02 629.97,258.8 625.34,256.35C620.71,253.9 617.08,250.5 614.45,246.13C611.82,241.77 610.5,236.82 610.5,231.3C610.5,225.78 611.81,220.83 614.45,216.47C617.08,212.11 620.73,208.7 625.42,206.25C630.1,203.8 635.39,202.58 641.28,202.58C646.43,202.58 651.06,203.45 655.16,205.18C659.26,206.92 662.68,209.41 665.42,212.67L655.48,221.66C651.74,217.56 647.27,215.51 642.07,215.51C637.34,215.51 633.52,216.94 630.63,219.81C627.74,222.68 626.29,226.5 626.29,231.29C626.29,234.34 626.95,237.06 628.26,239.46C629.57,241.85 631.42,243.72 633.78,245.06C636.15,246.4 638.86,247.07 641.91,247.07C644.96,247.07 647.72,246.47 650.35,245.26L650.35,230.11Z" style="fill:url(#_Linear4);fill-rule:nonzero;"/>
                <path d="M680.45,253.31C675.9,248.84 673.63,242.5 673.63,234.3L673.63,203.69L689.25,203.69L689.25,233.83C689.25,242.67 692.75,247.08 699.74,247.08C706.73,247.08 710.15,242.66 710.15,233.83L710.15,203.69L725.54,203.69L725.54,234.3C725.54,242.51 723.26,248.84 718.72,253.31C714.17,257.78 707.79,260.02 699.59,260.02C691.39,260.02 685.01,257.79 680.46,253.31L680.45,253.31Z" style="fill:url(#_Linear5);fill-rule:nonzero;"/>
                <path d="M760.25,244.24L751.73,244.24L751.73,258.91L736.11,258.91L736.11,203.68L761.36,203.68C766.36,203.68 770.7,204.51 774.38,206.16C778.06,207.82 780.9,210.18 782.9,213.26C784.9,216.34 785.9,219.95 785.9,224.11C785.9,228.27 784.97,231.59 783.1,234.56C781.23,237.53 778.56,239.86 775.09,241.54L787,258.9L770.27,258.9L760.25,244.23L760.25,244.24ZM767.67,218.12C766.04,216.7 763.62,215.99 760.41,215.99L751.73,215.99L751.73,232.16L760.41,232.16C763.62,232.16 766.04,231.46 767.67,230.07C769.3,228.68 770.12,226.69 770.12,224.11C770.12,221.53 769.3,219.53 767.67,218.11L767.67,218.12Z" style="fill:url(#_Linear6);fill-rule:nonzero;"/>
                <path d="M831.49,248.18L808.14,248.18L803.8,258.91L787.86,258.91L812.24,203.68L827.62,203.68L852.08,258.91L835.83,258.91L831.49,248.18ZM826.92,236.66L819.82,218.99L812.72,236.66L826.92,236.66Z" style="fill:url(#_Linear7);fill-rule:nonzero;"/>
                <path d="M865.51,216.07L848.54,216.07L848.54,203.68L898.01,203.68L898.01,216.07L881.13,216.07L881.13,258.91L865.51,258.91L865.51,216.07Z" style="fill:url(#_Linear8);fill-rule:nonzero;"/>
                <path d="M948.18,246.84L948.18,258.91L903.84,258.91L903.84,203.68L947.15,203.68L947.15,215.75L919.3,215.75L919.3,225.06L943.84,225.06L943.84,236.74L919.3,236.74L919.3,246.84L948.18,246.84Z" style="fill:url(#_Linear9);fill-rule:nonzero;"/>
            </g>
            <g>
                <g>
                    <g>
                        <path d="M383.5,176.83L354.82,176.83L354.82,167.22C354.82,121.4 317.54,84.12 271.72,84.12C225.9,84.12 188.62,121.4 188.62,167.22L188.62,176.83L159.94,176.83C144.41,176.83 131.82,189.42 131.82,204.95L131.82,330.43C131.82,345.96 144.41,358.55 159.94,358.55L383.49,358.55C399.02,358.55 411.61,345.96 411.61,330.43L411.61,204.95C411.61,189.42 399.02,176.83 383.49,176.83L383.5,176.83ZM218.28,167.22C218.28,137.75 242.25,113.78 271.72,113.78C301.19,113.78 325.16,137.75 325.16,167.22L325.16,176.83L218.28,176.83L218.28,167.22Z" style="fill:url(#_Linear10);fill-rule:nonzero;"/>
                        <g>
                            <path d="M381.26,177.72L353.15,177.72L353.15,168.3C353.15,123.4 316.62,86.87 271.72,86.87C226.82,86.87 190.29,123.4 190.29,168.3L190.29,177.72L162.18,177.72C146.96,177.72 134.62,190.06 134.62,205.28L134.62,328.25C134.62,343.47 146.96,355.81 162.18,355.81L381.26,355.81C396.48,355.81 408.82,343.47 408.82,328.25L408.82,205.28C408.82,190.06 396.48,177.72 381.26,177.72ZM219.35,168.3C219.35,139.42 242.84,115.93 271.72,115.93C300.6,115.93 324.09,139.42 324.09,168.3L324.09,177.72L219.35,177.72L219.35,168.3Z" style="fill:url(#_Linear11);fill-rule:nonzero;"/>
                        </g>
                        <g>
                            <path d="M380.15,178.17L352.33,178.17L352.33,168.84C352.33,124.4 316.17,88.24 271.73,88.24C227.29,88.24 191.13,124.4 191.13,168.84L191.13,178.17L163.31,178.17C148.24,178.17 136.03,190.38 136.03,205.45L136.03,327.16C136.03,342.23 148.24,354.44 163.31,354.44L380.15,354.44C395.22,354.44 407.43,342.23 407.43,327.16L407.43,205.45C407.43,190.38 395.22,178.17 380.15,178.17ZM219.89,168.84C219.89,140.26 243.14,117 271.73,117C300.32,117 323.57,140.25 323.57,168.84L323.57,178.17L219.9,178.17L219.9,168.84L219.89,168.84Z" style="fill:url(#_Linear12);fill-rule:nonzero;"/>
                        </g>
                    </g>
                    <path d="M271.72,84.83C317.15,84.83 354.11,121.79 354.11,167.22L354.11,177.54L383.5,177.54C398.62,177.54 410.92,189.84 410.92,204.96L410.92,330.44C410.92,345.56 398.62,357.86 383.5,357.86L159.95,357.86C144.83,357.86 132.53,345.56 132.53,330.44L132.53,204.96C132.53,189.84 144.83,177.54 159.95,177.54L189.34,177.54L189.34,167.22C189.34,121.79 226.3,84.83 271.73,84.83M217.58,177.54L325.87,177.54L325.87,167.22C325.87,137.36 301.58,113.08 271.72,113.08C241.86,113.08 217.58,137.37 217.58,167.22L217.58,177.54M271.72,84.12C225.9,84.12 188.62,121.4 188.62,167.22L188.62,176.83L159.94,176.83C144.41,176.83 131.82,189.42 131.82,204.95L131.82,330.43C131.82,345.96 144.41,358.55 159.94,358.55L383.49,358.55C399.02,358.55 411.61,345.96 411.61,330.43L411.61,204.95C411.61,189.42 399.02,176.83 383.49,176.83L354.81,176.83L354.81,167.22C354.81,121.4 317.53,84.12 271.71,84.12L271.72,84.12ZM218.28,176.83L218.28,167.22C218.28,137.75 242.25,113.78 271.72,113.78C301.19,113.78 325.16,137.75 325.16,167.22L325.16,176.83L218.28,176.83Z" style="fill:rgb(255,246,199);fill-rule:nonzero;"/>
                    <g>
                        <path d="M240.29,90.33C241.14,91.5 232.68,99.06 221.4,107.21C210.12,115.36 200.3,121.02 199.45,119.85C198.6,118.68 207.06,111.12 218.34,102.97C229.62,94.82 239.44,89.16 240.29,90.33Z" style="fill:url(#_Radial13);fill-rule:nonzero;"/>
                        <g>
                            <path d="M231.67,121.41C230.95,121.93 225.08,115.04 218.56,106.02C212.04,97 207.34,89.27 208.06,88.75C208.78,88.23 214.65,95.12 221.17,104.14C227.69,113.16 232.39,120.89 231.67,121.41Z" style="fill:url(#_Radial14);fill-rule:nonzero;"/>
                            <path d="M233.78,107.32C233.68,107.93 227.37,107.43 219.69,106.19C212.01,104.95 205.86,103.46 205.96,102.85C206.06,102.24 212.37,102.74 220.05,103.98C227.73,105.22 233.88,106.71 233.78,107.32Z" style="fill:url(#_Radial15);fill-rule:nonzero;"/>
                            <path d="M217.32,120.91C216.62,120.8 217.2,113.62 218.61,104.88C220.02,96.14 221.72,89.14 222.42,89.25C223.12,89.36 222.54,96.54 221.13,105.28C219.73,114.02 218.02,121.02 217.32,120.91Z" style="fill:url(#_Radial16);fill-rule:nonzero;"/>
                            <path d="M194.11,93.54C194.62,92.41 206.56,96.66 220.79,103.03C235.02,109.4 246.14,115.49 245.63,116.62C245.12,117.75 233.18,113.5 218.95,107.13C204.72,100.76 193.6,94.67 194.11,93.54Z" style="fill:url(#_Radial17);fill-rule:nonzero;"/>
                            <path d="M229.38,83.87C230.31,84.29 226.81,94.13 221.56,105.85C216.31,117.57 211.3,126.73 210.36,126.31C209.43,125.89 212.93,116.05 218.18,104.33C223.43,92.61 228.44,83.45 229.38,83.87Z" style="fill:url(#_Radial18);fill-rule:nonzero;"/>
                            <path d="M209.5,77.88C210.3,77.58 215.59,89.51 221.32,104.53C227.05,119.56 231.04,131.98 230.24,132.29C229.44,132.59 224.15,120.66 218.42,105.64C212.69,90.61 208.7,78.19 209.5,77.88Z" style="fill:url(#_Radial19);fill-rule:nonzero;"/>
                            <path d="M243.89,95.93C244.29,96.99 233.86,101.94 220.59,107C207.32,112.06 196.24,115.3 195.83,114.24C195.43,113.18 205.86,108.23 219.13,103.17C232.4,98.11 243.48,94.87 243.88,95.93L243.89,95.93Z" style="fill:url(#_Radial20);fill-rule:nonzero;"/>
                        </g>
                        <path d="M239.63,90.8C247.52,101.71 245.07,116.96 234.15,124.85C223.24,132.74 207.99,130.29 200.1,119.37C192.21,108.45 194.66,93.21 205.58,85.32C216.5,77.43 231.74,79.88 239.63,90.8Z" style="fill:url(#_Radial21);fill-rule:nonzero;"/>
                        <path d="M252.42,81.55C255.25,85.46 242.96,99.17 224.98,112.16C207,125.16 190.13,132.52 187.31,128.61C184.48,124.7 196.77,110.99 214.75,98C232.73,85 249.6,77.64 252.42,81.55Z" style="fill:url(#_Radial22);fill-rule:nonzero;"/>
                    </g>
                    <path d="M408,356.43C408.01,364.19 347.01,370.59 271.75,370.72C196.49,370.85 135.46,364.67 135.45,356.91C135.44,349.15 196.44,342.75 271.7,342.61C346.96,342.48 407.99,348.66 408,356.42L408,356.43Z" style="fill:url(#_Radial23);fill-rule:nonzero;"/>
                    <path d="M305.45,305.94L237.08,305.94L224.38,333.62L177.72,333.62L249.09,191.16L294.13,191.16L365.73,333.62L318.15,333.62L305.45,305.94ZM292.05,276.23L271.26,230.64L250.47,276.23L292.05,276.23Z" style="fill:rgb(4,12,31);fill-rule:nonzero;"/>
                    <path d="M330.31,176.81L329.6,176.81L329.6,168.93C329.6,136.23 303.63,109.62 271.72,109.62C239.81,109.62 213.84,136.23 213.84,168.93L213.84,176.45L213.13,176.45L213.13,168.93C213.13,135.84 239.41,108.92 271.72,108.92C304.03,108.92 330.31,135.84 330.31,168.93L330.31,176.81Z" style="fill:rgb(63,31,9);fill-rule:nonzero;"/>
                    <path d="M330.94,176.87L330.23,176.87L330.23,168.89C330.23,135.81 303.98,108.89 271.72,108.89C239.46,108.89 213.21,135.81 213.21,168.89L213.21,176.5L212.5,176.5L212.5,168.89C212.5,135.42 239.06,108.19 271.72,108.19C304.38,108.19 330.94,135.42 330.94,168.89L330.94,176.87Z" style="fill:rgb(150,91,50);fill-rule:nonzero;"/>
                </g>
                <path d="M409.34,299.87C406.16,299.87 403.54,274.88 403.48,244.04C403.42,213.2 405.96,188.2 409.14,188.19C412.32,188.19 414.94,213.18 415,244.02C415.06,274.86 412.52,299.86 409.34,299.87Z" style="fill:url(#_Radial24);fill-rule:nonzero;"/>
            </g>
            <g>
                <path d="M445.84,301L445.84,288.34L440.73,288.34L440.73,286.11L453.41,286.11L453.41,288.34L448.15,288.34L448.15,301L445.83,301L445.84,301Z" style="fill:white;fill-rule:nonzero;"/>
                <path d="M464.99,301.13C463.61,301.13 462.4,300.84 461.36,300.25C460.32,299.66 459.5,298.86 458.91,297.85C458.32,296.84 458.03,295.68 458.03,294.39L458.03,286.09L460.35,286.09L460.35,294.26C460.35,295.14 460.56,295.93 460.98,296.63C461.4,297.33 461.96,297.88 462.66,298.28C463.36,298.68 464.14,298.88 464.99,298.88C465.9,298.88 466.71,298.68 467.43,298.28C468.15,297.88 468.71,297.33 469.13,296.63C469.55,295.93 469.76,295.14 469.76,294.26L469.76,286.09L471.95,286.09L471.95,294.39C471.95,295.68 471.66,296.83 471.07,297.85C470.48,298.86 469.67,299.67 468.62,300.25C467.58,300.84 466.37,301.13 464.99,301.13Z" style="fill:white;fill-rule:nonzero;"/>
                <path d="M486.95,301L486.95,286.1L494.7,286.1C495.55,286.1 496.33,286.3 497.04,286.71C497.75,287.11 498.32,287.66 498.74,288.36C499.16,289.06 499.38,289.83 499.38,290.68C499.38,291.53 499.15,292.36 498.7,293.07C498.25,293.79 497.65,294.36 496.9,294.78C496.15,295.21 495.33,295.42 494.42,295.42L489.27,295.42L489.27,301L486.95,301ZM489.27,293.21L494.27,293.21C494.75,293.21 495.2,293.09 495.61,292.86C496.02,292.63 496.35,292.32 496.59,291.93C496.83,291.55 496.95,291.13 496.95,290.67C496.95,290.21 496.83,289.84 496.59,289.49C496.35,289.14 496.02,288.86 495.61,288.65C495.2,288.44 494.75,288.33 494.27,288.33L489.27,288.33L489.27,293.21Z" style="fill:white;fill-rule:nonzero;"/>
                <path d="M501.62,301L508.35,286.1L510.92,286.1L517.6,301L515.07,301L510.66,291.23C510.57,291.02 510.47,290.76 510.34,290.45C510.21,290.14 510.08,289.83 509.95,289.5C509.82,289.17 509.69,288.85 509.57,288.52C509.45,288.19 509.35,287.9 509.26,287.65L509.88,287.63C509.77,287.93 509.65,288.24 509.53,288.57C509.41,288.9 509.28,289.22 509.16,289.54C509.03,289.86 508.9,290.17 508.78,290.47C508.66,290.77 508.53,291.05 508.42,291.32L504.01,301L501.62,301ZM504.55,297.44L505.44,295.21L513.53,295.21L514.13,297.44L504.55,297.44Z" style="fill:white;fill-rule:nonzero;"/>
                <path d="M524.73,301L524.73,288.34L519.62,288.34L519.62,286.11L532.3,286.11L532.3,288.34L527.04,288.34L527.04,301L524.72,301L524.73,301Z" style="fill:white;fill-rule:nonzero;"/>
                <path d="M537.18,301L537.18,286.1L545.03,286.1C545.89,286.1 546.69,286.31 547.41,286.72C548.13,287.13 548.72,287.69 549.16,288.39C549.6,289.09 549.82,289.88 549.82,290.74C549.82,291.6 549.59,292.4 549.13,293.11C548.67,293.83 548.05,294.4 547.29,294.82C546.52,295.25 545.68,295.46 544.76,295.46L539.5,295.46L539.5,300.99L537.18,300.99L537.18,301ZM539.5,293.25L544.69,293.25C545.19,293.25 545.64,293.14 546.05,292.91C546.46,292.68 546.79,292.38 547.03,291.99C547.27,291.61 547.39,291.19 547.39,290.73C547.39,290.27 547.26,289.85 547.01,289.48C546.75,289.12 546.4,288.83 545.96,288.63C545.51,288.42 545.02,288.32 544.48,288.32L539.5,288.32L539.5,293.25ZM547.71,301L543.11,294.27L545.56,293.74L550.58,301.02L547.71,301Z" style="fill:white;fill-rule:nonzero;"/>
                <rect x="556.42" y="286.1" width="2.32" height="14.9" style="fill:white;fill-rule:nonzero;"/>
                <path d="M565.36,301.01L565.36,286.1L567.64,286.1L573.94,294.66L573,294.66L579.32,286.1L581.53,286.1L581.53,301L579.23,301L579.23,294.79C579.23,293.57 579.26,292.45 579.31,291.42C579.36,290.39 579.48,289.35 579.65,288.3L579.91,289.13L574.12,296.73L572.72,296.73L567.02,289.17L567.25,288.3C567.41,289.32 567.52,290.35 567.58,291.38C567.64,292.41 567.68,293.55 567.68,294.8L567.68,301.01L565.36,301.01Z" style="fill:white;fill-rule:nonzero;"/>
                <path d="M595.26,301.21C594.04,301.21 592.92,301.02 591.91,300.63C590.9,300.24 590.01,299.7 589.25,299C588.49,298.3 587.91,297.49 587.49,296.56C587.08,295.63 586.87,294.63 586.87,293.55C586.87,292.47 587.08,291.47 587.49,290.54C587.9,289.61 588.49,288.8 589.25,288.1C590.01,287.41 590.9,286.86 591.91,286.47C592.92,286.08 594.04,285.89 595.26,285.89C596.48,285.89 597.6,286.08 598.61,286.46C599.62,286.84 600.51,287.39 601.27,288.09C602.03,288.79 602.62,289.61 603.04,290.54C603.46,291.47 603.67,292.47 603.67,293.55C603.67,294.63 603.46,295.63 603.04,296.56C602.62,297.49 602.03,298.3 601.27,299.01C600.51,299.71 599.62,300.25 598.61,300.64C597.6,301.02 596.48,301.21 595.26,301.21ZM595.26,298.95C596.15,298.95 596.97,298.81 597.7,298.54C598.43,298.26 599.07,297.88 599.62,297.4C600.17,296.92 600.59,296.35 600.89,295.69C601.19,295.03 601.34,294.32 601.34,293.55C601.34,292.78 601.19,292.07 600.89,291.41C600.59,290.75 600.17,290.18 599.62,289.7C599.07,289.22 598.44,288.84 597.7,288.56C596.97,288.28 596.16,288.15 595.26,288.15C594.36,288.15 593.57,288.29 592.84,288.56C592.11,288.84 591.47,289.21 590.92,289.69C590.37,290.17 589.95,290.73 589.66,291.39C589.37,292.05 589.22,292.77 589.22,293.55C589.22,294.33 589.36,295.03 589.66,295.7C589.95,296.37 590.37,296.94 590.92,297.41C591.47,297.88 592.1,298.26 592.84,298.54C593.57,298.82 594.38,298.95 595.26,298.95Z" style="fill:white;fill-rule:nonzero;"/>
                <path d="M609.01,301L609.01,286.1L611.22,286.1L622.22,298.27L622.01,298.46C621.95,298.06 621.9,297.63 621.85,297.16C621.8,296.69 621.76,296.21 621.73,295.71C621.7,295.21 621.68,294.7 621.66,294.17C621.64,293.64 621.62,293.1 621.61,292.56C621.6,292.02 621.59,291.49 621.59,290.96L621.59,286.09L623.89,286.09L623.89,300.99L621.66,300.99L610.79,289.26L610.92,288.96C610.96,289.43 611,289.89 611.04,290.33C611.08,290.78 611.11,291.2 611.16,291.61C611.2,292.01 611.23,292.4 611.26,292.78C611.28,293.16 611.3,293.51 611.32,293.86C611.34,294.21 611.35,294.52 611.35,294.82L611.35,300.99L609.03,300.99L609.01,301Z" style="fill:white;fill-rule:nonzero;"/>
                <rect x="630.5" y="286.1" width="2.32" height="14.9" style="fill:white;fill-rule:nonzero;"/>
                <path d="M646.7,301.21C645.48,301.21 644.36,301.02 643.35,300.63C642.34,300.24 641.45,299.7 640.69,299C639.93,298.3 639.35,297.49 638.93,296.56C638.52,295.63 638.31,294.63 638.31,293.55C638.31,292.47 638.52,291.47 638.93,290.54C639.34,289.61 639.93,288.8 640.69,288.1C641.45,287.41 642.34,286.86 643.35,286.47C644.36,286.08 645.48,285.89 646.7,285.89C647.92,285.89 649.04,286.08 650.05,286.46C651.06,286.84 651.95,287.39 652.71,288.09C653.47,288.79 654.06,289.61 654.48,290.54C654.9,291.47 655.11,292.47 655.11,293.55C655.11,294.63 654.9,295.63 654.48,296.56C654.06,297.49 653.47,298.3 652.71,299.01C651.95,299.71 651.06,300.25 650.05,300.64C649.04,301.02 647.92,301.21 646.7,301.21ZM646.7,298.95C647.59,298.95 648.41,298.81 649.14,298.54C649.87,298.26 650.51,297.88 651.06,297.4C651.61,296.92 652.03,296.35 652.33,295.69C652.63,295.03 652.78,294.32 652.78,293.55C652.78,292.78 652.63,292.07 652.33,291.41C652.03,290.75 651.61,290.18 651.06,289.7C650.51,289.22 649.88,288.84 649.14,288.56C648.41,288.28 647.6,288.15 646.7,288.15C645.8,288.15 645.01,288.29 644.28,288.56C643.55,288.84 642.91,289.21 642.36,289.69C641.81,290.17 641.39,290.73 641.1,291.39C640.81,292.05 640.66,292.77 640.66,293.55C640.66,294.33 640.8,295.03 641.1,295.7C641.39,296.37 641.81,296.94 642.36,297.41C642.91,297.88 643.54,298.26 644.28,298.54C645.01,298.82 645.82,298.95 646.7,298.95Z" style="fill:white;fill-rule:nonzero;"/>
                <path d="M676.53,301.21C675.39,301.21 674.32,301.04 673.3,300.69C672.28,300.34 671.38,299.84 670.6,299.18C669.82,298.52 669.21,297.71 668.76,296.76C668.31,295.81 668.09,294.74 668.09,293.55C668.09,292.49 668.31,291.49 668.75,290.57C669.19,289.65 669.81,288.84 670.6,288.15C671.39,287.46 672.32,286.93 673.37,286.54C674.42,286.16 675.55,285.97 676.75,285.97C677.71,285.97 678.62,286.09 679.46,286.32C680.3,286.55 681.06,286.86 681.72,287.25C682.38,287.64 682.9,288.05 683.28,288.51L681.79,290.15C681.31,289.74 680.8,289.4 680.26,289.13C679.72,288.86 679.16,288.64 678.57,288.48C677.98,288.32 677.37,288.23 676.75,288.23C675.87,288.23 675.05,288.36 674.3,288.62C673.55,288.88 672.89,289.26 672.32,289.74C671.75,290.22 671.31,290.79 670.99,291.43C670.67,292.07 670.51,292.78 670.51,293.55C670.51,294.42 670.68,295.19 671.01,295.87C671.34,296.55 671.8,297.12 672.38,297.56C672.96,298.01 673.62,298.35 674.36,298.59C675.1,298.83 675.87,298.95 676.68,298.95C677.43,298.95 678.14,298.87 678.81,298.71C679.48,298.55 680.06,298.32 680.56,298.02C681.06,297.72 681.44,297.37 681.72,296.97C682,296.57 682.12,296.14 682.09,295.68L682.09,295.34L682.41,295.74L676.71,295.74L676.71,293.48L684.54,293.48C684.57,293.68 684.59,293.84 684.6,293.98C684.61,294.11 684.62,294.23 684.62,294.32L684.62,294.56C684.62,295.64 684.42,296.59 684.02,297.41C683.62,298.23 683.06,298.92 682.34,299.49C681.62,300.05 680.76,300.48 679.78,300.77C678.79,301.06 677.71,301.21 676.53,301.21Z" style="fill:white;fill-rule:nonzero;"/>
                <path d="M687.81,301L694.54,286.1L697.11,286.1L703.79,301L701.26,301L696.85,291.23C696.76,291.02 696.66,290.76 696.53,290.45C696.4,290.14 696.27,289.83 696.14,289.5C696.01,289.17 695.88,288.85 695.76,288.52C695.64,288.19 695.54,287.9 695.45,287.65L696.07,287.63C695.96,287.93 695.84,288.24 695.72,288.57C695.6,288.9 695.47,289.22 695.35,289.54C695.22,289.86 695.09,290.17 694.97,290.47C694.85,290.77 694.72,291.05 694.61,291.32L690.2,301L687.81,301ZM690.75,297.44L691.64,295.21L699.73,295.21L700.33,297.44L690.75,297.44Z" style="fill:white;fill-rule:nonzero;"/>
                <path d="M708.48,301L708.48,286.1L716.33,286.1C717.19,286.1 717.99,286.31 718.71,286.72C719.43,287.13 720.02,287.69 720.46,288.39C720.9,289.09 721.12,289.88 721.12,290.74C721.12,291.6 720.89,292.4 720.43,293.11C719.97,293.83 719.35,294.4 718.59,294.82C717.82,295.25 716.98,295.46 716.06,295.46L710.8,295.46L710.8,300.99L708.48,300.99L708.48,301ZM710.8,293.25L715.99,293.25C716.49,293.25 716.94,293.14 717.35,292.91C717.76,292.68 718.09,292.38 718.33,291.99C718.57,291.61 718.69,291.19 718.69,290.73C718.69,290.27 718.56,289.85 718.31,289.48C718.05,289.12 717.7,288.83 717.26,288.63C716.81,288.42 716.32,288.32 715.78,288.32L710.8,288.32L710.8,293.25ZM719.01,301L714.41,294.27L716.86,293.74L721.88,301.02L719.01,301Z" style="fill:white;fill-rule:nonzero;"/>
                <path d="M725.78,301L732.51,286.1L735.08,286.1L741.76,301L739.23,301L734.82,291.23C734.73,291.02 734.63,290.76 734.5,290.45C734.37,290.14 734.24,289.83 734.11,289.5C733.98,289.17 733.85,288.85 733.73,288.52C733.61,288.19 733.51,287.9 733.42,287.65L734.04,287.63C733.93,287.93 733.81,288.24 733.69,288.57C733.57,288.9 733.44,289.22 733.32,289.54C733.19,289.86 733.06,290.17 732.94,290.47C732.82,290.77 732.69,291.05 732.58,291.32L728.17,301L725.78,301ZM728.72,297.44L729.61,295.21L737.7,295.21L738.3,297.44L728.72,297.44Z" style="fill:white;fill-rule:nonzero;"/>
                <path d="M746.44,301L746.44,286.1L748.65,286.1L759.65,298.27L759.44,298.46C759.38,298.06 759.33,297.63 759.28,297.16C759.23,296.69 759.19,296.21 759.16,295.71C759.13,295.21 759.11,294.7 759.09,294.17C759.07,293.64 759.05,293.1 759.04,292.56C759.03,292.02 759.02,291.49 759.02,290.96L759.02,286.09L761.32,286.09L761.32,300.99L759.09,300.99L748.22,289.26L748.35,288.96C748.39,289.43 748.43,289.89 748.47,290.33C748.51,290.78 748.54,291.2 748.59,291.61C748.63,292.01 748.66,292.4 748.69,292.78C748.71,293.16 748.73,293.51 748.75,293.86C748.77,294.21 748.78,294.52 748.78,294.82L748.78,300.99L746.46,300.99L746.44,301Z" style="fill:white;fill-rule:nonzero;"/>
                <path d="M771.3,301L771.3,288.34L766.19,288.34L766.19,286.11L778.87,286.11L778.87,288.34L773.61,288.34L773.61,301L771.29,301L771.3,301Z" style="fill:white;fill-rule:nonzero;"/>
                <rect x="783.9" y="286.1" width="2.32" height="14.9" style="fill:white;fill-rule:nonzero;"/>
                <path d="M791.43,301L791.43,299.32L801.5,287.95L802.14,288.35L791.99,288.35L791.99,286.09L804.67,286.09L804.67,287.75L794.65,299.14L793.99,298.74L804.91,298.74L804.91,301L791.43,301Z" style="fill:white;fill-rule:nonzero;"/>
                <path d="M808.14,301L814.87,286.1L817.44,286.1L824.12,301L821.59,301L817.18,291.23C817.09,291.02 816.99,290.76 816.86,290.45C816.73,290.14 816.6,289.83 816.47,289.5C816.34,289.17 816.21,288.85 816.09,288.52C815.97,288.19 815.87,287.9 815.78,287.65L816.4,287.63C816.29,287.93 816.17,288.24 816.05,288.57C815.93,288.9 815.8,289.22 815.68,289.54C815.55,289.86 815.42,290.17 815.3,290.47C815.18,290.77 815.05,291.05 814.94,291.32L810.53,301L808.14,301ZM811.08,297.44L811.97,295.21L820.06,295.21L820.66,297.44L811.08,297.44Z" style="fill:white;fill-rule:nonzero;"/>
                <path d="M828.81,301L828.81,286.1L835.73,286.1C836.98,286.1 838.09,286.29 839.07,286.67C840.05,287.05 840.88,287.59 841.55,288.27C842.22,288.95 842.73,289.74 843.08,290.63C843.43,291.52 843.6,292.5 843.6,293.55C843.6,294.6 843.43,295.58 843.08,296.49C842.73,297.4 842.22,298.19 841.55,298.86C840.88,299.53 840.05,300.06 839.07,300.44C838.09,300.82 836.98,301 835.73,301L828.81,301ZM831.13,299.02L831.05,298.76L835.63,298.76C836.58,298.76 837.4,298.63 838.1,298.37C838.8,298.11 839.37,297.75 839.82,297.28C840.27,296.82 840.61,296.27 840.84,295.63C841.07,294.99 841.18,294.3 841.18,293.54C841.18,292.78 841.07,292.1 840.84,291.46C840.61,290.82 840.27,290.28 839.82,289.81C839.37,289.34 838.79,288.98 838.1,288.71C837.41,288.45 836.58,288.32 835.63,288.32L830.99,288.32L831.14,288.11L831.14,299.01L831.13,299.02Z" style="fill:white;fill-rule:nonzero;"/>
                <path d="M856.2,301.21C854.98,301.21 853.86,301.02 852.85,300.63C851.84,300.24 850.95,299.7 850.19,299C849.43,298.3 848.85,297.49 848.43,296.56C848.02,295.63 847.81,294.63 847.81,293.55C847.81,292.47 848.02,291.47 848.43,290.54C848.84,289.61 849.43,288.8 850.19,288.1C850.95,287.41 851.84,286.86 852.85,286.47C853.86,286.08 854.98,285.89 856.2,285.89C857.42,285.89 858.54,286.08 859.55,286.46C860.56,286.84 861.45,287.39 862.21,288.09C862.97,288.79 863.56,289.61 863.98,290.54C864.4,291.47 864.61,292.47 864.61,293.55C864.61,294.63 864.4,295.63 863.98,296.56C863.56,297.49 862.97,298.3 862.21,299.01C861.45,299.71 860.56,300.25 859.55,300.64C858.54,301.02 857.42,301.21 856.2,301.21ZM856.2,298.95C857.09,298.95 857.91,298.81 858.64,298.54C859.37,298.26 860.01,297.88 860.56,297.4C861.11,296.92 861.53,296.35 861.83,295.69C862.13,295.03 862.28,294.32 862.28,293.55C862.28,292.78 862.13,292.07 861.83,291.41C861.53,290.75 861.11,290.18 860.56,289.7C860.01,289.22 859.38,288.84 858.64,288.56C857.91,288.28 857.1,288.15 856.2,288.15C855.3,288.15 854.51,288.29 853.78,288.56C853.05,288.84 852.41,289.21 851.86,289.69C851.31,290.17 850.89,290.73 850.6,291.39C850.31,292.05 850.16,292.77 850.16,293.55C850.16,294.33 850.3,295.03 850.6,295.7C850.89,296.37 851.31,296.94 851.86,297.41C852.41,297.89 853.04,298.26 853.78,298.54C854.51,298.82 855.32,298.95 856.2,298.95Z" style="fill:white;fill-rule:nonzero;"/>
            </g>
            <g>
                <g>
                    <path d="M444.47,343.65C453,341.28 461.64,339.22 470.34,337.48C474.68,336.56 479.06,335.82 483.43,335.03C487.81,334.33 492.2,333.61 496.61,333.03C505.42,331.79 514.28,330.9 523.16,330.19C527.6,329.88 532.05,329.54 536.5,329.39L543.18,329.1L549.87,328.96C554.33,328.84 558.79,328.9 563.26,328.91C565.49,328.89 567.72,328.98 569.96,329.05L576.66,329.26C581.12,329.46 585.58,329.71 590.04,329.99C594.49,330.37 598.95,330.71 603.4,331.12C612.3,331.97 621.2,333.19 630.04,334.58C638.87,336.02 647.57,337.75 656.11,339.18C690.07,345.1 724.83,345.18 759.2,340.23C776.39,337.82 793.47,334.21 810.4,329.72L816.76,328.06L823.07,326.2L829.4,324.37C830.46,324.08 831.5,323.73 832.55,323.4L835.69,322.4L841.99,320.4L845.15,319.41C846.2,319.07 847.23,318.69 848.28,318.33C852.46,316.92 856.63,315.45 860.85,314.09C856.98,316.24 853.06,318.29 849.15,320.4C848.17,320.92 847.19,321.44 846.2,321.94L843.21,323.39L837.2,326.26C835.19,327.2 833.2,328.22 831.15,329.07L825.02,331.7L818.87,334.3L812.63,336.69C795.98,343.04 778.77,348.13 761.19,351.75C758.99,352.19 756.79,352.66 754.59,353.08L747.94,354.2C743.51,355 739.04,355.47 734.57,356.05C732.34,356.36 730.09,356.53 727.85,356.74C725.61,356.95 723.36,357.15 721.11,357.31L714.35,357.66C713.22,357.71 712.1,357.79 710.97,357.82L707.58,357.89C705.32,357.93 703.06,358 700.81,357.98L694.03,357.85C691.77,357.84 689.51,357.67 687.26,357.58C685,357.47 682.74,357.37 680.49,357.17C671.48,356.51 662.45,355.33 653.6,353.83C644.75,352.28 636.14,350.54 627.58,349.04C619.02,347.49 610.44,346.23 601.81,345.1C597.49,344.56 593.16,344.08 588.84,343.57L575.83,342.31C567.14,341.62 558.44,340.97 549.72,340.61C514.81,338.92 479.73,340.4 444.47,343.67L444.47,343.65Z" style="fill:url(#_Radial25);fill-rule:nonzero;"/>
                    <path d="M448.64,343.5C457,341.17 465.46,339.16 473.99,337.45C478.25,336.55 482.54,335.82 486.82,335.05C491.12,334.36 495.42,333.66 499.74,333.09C508.37,331.88 517.06,331 525.76,330.31C530.11,330.01 534.47,329.67 538.84,329.52L545.39,329.23L551.95,329.1C556.32,328.99 560.69,329.04 565.07,329.05C567.26,329.03 569.44,329.12 571.63,329.19L578.19,329.4C582.56,329.59 586.93,329.84 591.31,330.11C595.67,330.48 600.04,330.82 604.4,331.22C613.12,332.06 621.84,333.25 630.5,334.61C639.16,336.02 647.68,337.72 656.05,339.12C689.33,344.92 723.39,345 757.08,340.14C773.93,337.77 790.67,334.24 807.26,329.84L813.5,328.21L819.68,326.39L825.88,324.59C826.92,324.31 827.94,323.96 828.97,323.64L832.05,322.66L838.22,320.7L841.32,319.73C842.35,319.4 843.36,319.02 844.38,318.67C848.48,317.29 852.56,315.85 856.7,314.51C852.91,316.62 849.06,318.63 845.23,320.69C844.27,321.2 843.31,321.71 842.34,322.2L839.41,323.62L833.52,326.43C831.55,327.35 829.6,328.35 827.6,329.18L821.59,331.75L815.56,334.3L809.45,336.64C793.13,342.86 776.27,347.85 759.04,351.4C756.88,351.83 754.73,352.29 752.57,352.7L746.06,353.79C741.72,354.57 737.33,355.03 732.96,355.6C730.77,355.91 728.57,356.07 726.37,356.28C724.17,356.48 721.97,356.68 719.77,356.84L713.15,357.19C712.05,357.24 710.94,357.32 709.84,357.35L706.52,357.42C704.31,357.46 702.09,357.53 699.88,357.51L693.24,357.39C691.02,357.38 688.81,357.22 686.6,357.12C684.39,357.01 682.17,356.92 679.97,356.72C671.14,356.07 662.29,354.92 653.62,353.45C644.94,351.93 636.51,350.23 628.12,348.75C619.73,347.23 611.32,346 602.86,344.89C598.63,344.36 594.39,343.89 590.15,343.39L577.4,342.16C568.89,341.48 560.36,340.84 551.81,340.49C517.6,338.84 483.22,340.29 448.66,343.49L448.64,343.5Z" style="fill:url(#_Linear26);fill-rule:nonzero;"/>
                    <path d="M450.72,343.42C459,341.12 467.37,339.13 475.81,337.43C480.02,336.54 484.27,335.82 488.51,335.05C492.76,334.37 497.02,333.67 501.3,333.11C509.85,331.91 518.44,331.04 527.05,330.36C531.36,330.06 535.67,329.73 539.99,329.58L546.47,329.3L552.96,329.17C557.29,329.06 561.62,329.11 565.95,329.12C568.12,329.1 570.28,329.19 572.44,329.26L578.94,329.47C583.27,329.66 587.6,329.9 591.92,330.17C596.24,330.54 600.56,330.87 604.88,331.27C613.51,332.1 622.14,333.28 630.72,334.63C639.29,336.02 647.73,337.71 656.01,339.09C688.95,344.83 722.67,344.91 756,340.1C772.67,337.76 789.24,334.26 805.67,329.91L811.84,328.3L817.96,326.5L824.1,324.72C825.13,324.44 826.14,324.1 827.16,323.78L830.21,322.81L836.32,320.87L839.38,319.91C840.4,319.58 841.4,319.21 842.41,318.87C846.47,317.5 850.51,316.08 854.61,314.76C850.86,316.85 847.05,318.84 843.26,320.88C842.31,321.38 841.36,321.89 840.4,322.37L837.5,323.77L831.67,326.55C829.72,327.46 827.79,328.45 825.81,329.27L819.86,331.82L813.89,334.34L807.84,336.66C791.69,342.82 775,347.75 757.94,351.27C755.81,351.7 753.68,352.15 751.54,352.56L745.09,353.64C740.8,354.41 736.45,354.87 732.12,355.43C729.96,355.74 727.78,355.9 725.6,356.1C723.42,356.3 721.25,356.49 719.06,356.65L712.51,356.99C711.42,357.04 710.32,357.11 709.23,357.15L705.95,357.21C703.76,357.25 701.57,357.32 699.38,357.3L692.81,357.18C690.62,357.17 688.43,357.01 686.24,356.92C684.05,356.82 681.86,356.72 679.67,356.52C670.93,355.88 662.17,354.73 653.59,353.28C645,351.77 636.66,350.09 628.35,348.63C620.05,347.13 611.73,345.91 603.35,344.81C599.16,344.28 594.96,343.82 590.77,343.32L578.15,342.1C569.72,341.43 561.28,340.8 552.82,340.45C518.96,338.81 484.93,340.25 450.73,343.42L450.72,343.42Z" style="fill:url(#_Linear27);fill-rule:nonzero;"/>
                </g>
                <path d="M683.68,348.1C681.98,362.52 644.92,369.99 600.91,364.8C556.9,359.61 522.6,343.71 524.3,329.29C526,314.87 563.06,307.4 607.07,312.59C651.08,317.78 685.38,333.68 683.68,348.1Z" style="fill:url(#_Radial28);fill-rule:nonzero;"/>
            </g>
        </g>
    </g>
    <defs>
        <linearGradient id="_Linear1" x1="0" y1="0" x2="1" y2="0" gradientUnits="userSpaceOnUse" gradientTransform="matrix(3.38186e-15,-55.23,55.23,3.38186e-15,472.84,258.91)"><stop offset="0" style="stop-color:rgb(196,164,40);stop-opacity:1"/><stop offset="0.62" style="stop-color:rgb(129,104,40);stop-opacity:1"/><stop offset="1" style="stop-color:rgb(204,171,40);stop-opacity:1"/></linearGradient>
        <linearGradient id="_Linear2" x1="0" y1="0" x2="1" y2="0" gradientUnits="userSpaceOnUse" gradientTransform="matrix(2.01992e-13,-3298.78,3298.78,2.01992e-13,25772.3,15135.5)"><stop offset="0" style="stop-color:rgb(196,164,40);stop-opacity:1"/><stop offset="0.62" style="stop-color:rgb(129,104,40);stop-opacity:1"/><stop offset="1" style="stop-color:rgb(204,171,40);stop-opacity:1"/></linearGradient>
        <linearGradient id="_Linear3" x1="0" y1="0" x2="1" y2="0" gradientUnits="userSpaceOnUse" gradientTransform="matrix(2e-06,0,0,2e-06,26392,203.68)"><stop offset="0" style="stop-color:rgb(196,164,40);stop-opacity:1"/><stop offset="0.62" style="stop-color:rgb(129,104,40);stop-opacity:1"/><stop offset="1" style="stop-color:rgb(204,171,40);stop-opacity:1"/></linearGradient>
        <linearGradient id="_Linear4" x1="0" y1="0" x2="1" y2="0" gradientUnits="userSpaceOnUse" gradientTransform="matrix(2.02027e-13,-3299.35,3299.35,2.02027e-13,35647.8,15138.1)"><stop offset="0" style="stop-color:rgb(196,164,40);stop-opacity:1"/><stop offset="0.62" style="stop-color:rgb(129,104,40);stop-opacity:1"/><stop offset="1" style="stop-color:rgb(204,171,40);stop-opacity:1"/></linearGradient>
        <linearGradient id="_Linear5" x1="0" y1="0" x2="1" y2="0" gradientUnits="userSpaceOnUse" gradientTransform="matrix(8.96866e-13,-14646.9,14646.9,8.96866e-13,36988.8,14850.6)"><stop offset="0" style="stop-color:rgb(196,164,40);stop-opacity:1"/><stop offset="0.62" style="stop-color:rgb(129,104,40);stop-opacity:1"/><stop offset="1" style="stop-color:rgb(204,171,40);stop-opacity:1"/></linearGradient>
        <linearGradient id="_Linear6" x1="0" y1="0" x2="1" y2="0" gradientUnits="userSpaceOnUse" gradientTransform="matrix(2e-06,0,0,2e-06,39491.4,203.68)"><stop offset="0" style="stop-color:rgb(196,164,40);stop-opacity:1"/><stop offset="0.62" style="stop-color:rgb(129,104,40);stop-opacity:1"/><stop offset="1" style="stop-color:rgb(204,171,40);stop-opacity:1"/></linearGradient>
        <linearGradient id="_Linear7" x1="0" y1="0" x2="1" y2="0" gradientUnits="userSpaceOnUse" gradientTransform="matrix(2e-06,0,0,2e-06,53446.3,203.68)"><stop offset="0" style="stop-color:rgb(196,164,40);stop-opacity:1"/><stop offset="0.62" style="stop-color:rgb(129,104,40);stop-opacity:1"/><stop offset="1" style="stop-color:rgb(204,171,40);stop-opacity:1"/></linearGradient>
        <linearGradient id="_Linear8" x1="0" y1="0" x2="1" y2="0" gradientUnits="userSpaceOnUse" gradientTransform="matrix(2e-06,0,0,2e-06,44049.2,203.68)"><stop offset="0" style="stop-color:rgb(196,164,40);stop-opacity:1"/><stop offset="0.62" style="stop-color:rgb(129,104,40);stop-opacity:1"/><stop offset="1" style="stop-color:rgb(204,171,40);stop-opacity:1"/></linearGradient>
        <linearGradient id="_Linear9" x1="0" y1="0" x2="1" y2="0" gradientUnits="userSpaceOnUse" gradientTransform="matrix(2e-06,0,0,2e-06,41963.1,203.68)"><stop offset="0" style="stop-color:rgb(196,164,40);stop-opacity:1"/><stop offset="0.62" style="stop-color:rgb(129,104,40);stop-opacity:1"/><stop offset="1" style="stop-color:rgb(204,171,40);stop-opacity:1"/></linearGradient>
        <linearGradient id="_Linear10" x1="0" y1="0" x2="1" y2="0" gradientUnits="userSpaceOnUse" gradientTransform="matrix(279.8,0,0,279.8,131.82,221.34)"><stop offset="0" style="stop-color:rgb(110,83,20);stop-opacity:1"/><stop offset="0.18" style="stop-color:rgb(198,162,24);stop-opacity:1"/><stop offset="0.35" style="stop-color:rgb(255,242,176);stop-opacity:1"/><stop offset="0.55" style="stop-color:rgb(198,162,58);stop-opacity:1"/><stop offset="0.79" style="stop-color:rgb(221,194,85);stop-opacity:1"/><stop offset="1" style="stop-color:rgb(61,44,8);stop-opacity:1"/></linearGradient>
        <linearGradient id="_Linear11" x1="0" y1="0" x2="1" y2="0" gradientUnits="userSpaceOnUse" gradientTransform="matrix(1.64678e-14,-268.94,268.94,1.64678e-14,271.72,355.81)"><stop offset="0" style="stop-color:white;stop-opacity:0"/><stop offset="0.5" style="stop-color:white;stop-opacity:0.9"/><stop offset="1" style="stop-color:white;stop-opacity:0"/></linearGradient>
        <linearGradient id="_Linear12" x1="0" y1="0" x2="1" y2="0" gradientUnits="userSpaceOnUse" gradientTransform="matrix(1.63e-14,-266.2,266.2,1.63e-14,271.72,354.44)"><stop offset="0" style="stop-color:rgb(63,21,0);stop-opacity:0.9"/><stop offset="1" style="stop-color:rgb(63,21,0);stop-opacity:0"/></linearGradient>
        <radialGradient id="_Radial13" cx="0" cy="0" r="1" gradientUnits="userSpaceOnUse" gradientTransform="matrix(20.4234,-14.7623,2.08641,2.8865,217.313,101.471)"><stop offset="0" style="stop-color:white;stop-opacity:1"/><stop offset="0.21" style="stop-color:rgb(173,173,173);stop-opacity:1"/><stop offset="0.21" style="stop-color:rgb(174,174,174);stop-opacity:0.98"/><stop offset="0.27" style="stop-color:rgb(193,193,193);stop-opacity:0.75"/><stop offset="0.33" style="stop-color:rgb(209,209,209);stop-opacity:0.55"/><stop offset="0.39" style="stop-color:rgb(223,223,223);stop-opacity:0.38"/><stop offset="0.46" style="stop-color:rgb(235,235,235);stop-opacity:0.24"/><stop offset="0.54" style="stop-color:rgb(244,244,244);stop-opacity:0.13"/><stop offset="0.63" style="stop-color:rgb(250,250,250);stop-opacity:0.06"/><stop offset="0.75" style="stop-color:rgb(253,253,253);stop-opacity:0.01"/><stop offset="1" style="stop-color:white;stop-opacity:0"/></radialGradient>
        <radialGradient id="_Radial14" cx="0" cy="0" r="1" gradientUnits="userSpaceOnUse" gradientTransform="matrix(42.7619,-42.5664,204.802,390.202,5664.93,3961.32)"><stop offset="0" style="stop-color:white;stop-opacity:1"/><stop offset="0.21" style="stop-color:rgb(173,173,173);stop-opacity:1"/><stop offset="0.21" style="stop-color:rgb(174,174,174);stop-opacity:0.98"/><stop offset="0.27" style="stop-color:rgb(193,193,193);stop-opacity:0.75"/><stop offset="0.33" style="stop-color:rgb(209,209,209);stop-opacity:0.55"/><stop offset="0.39" style="stop-color:rgb(223,223,223);stop-opacity:0.38"/><stop offset="0.46" style="stop-color:rgb(235,235,235);stop-opacity:0.24"/><stop offset="0.54" style="stop-color:rgb(244,244,244);stop-opacity:0.13"/><stop offset="0.63" style="stop-color:rgb(250,250,250);stop-opacity:0.06"/><stop offset="0.75" style="stop-color:rgb(253,253,253);stop-opacity:0.01"/><stop offset="1" style="stop-color:white;stop-opacity:0"/></radialGradient>
        <radialGradient id="_Radial15" cx="0" cy="0" r="1" gradientUnits="userSpaceOnUse" gradientTransform="matrix(34.9482,-4.53004,11823.7,378.016,-11564.4,2808.87)"><stop offset="0" style="stop-color:white;stop-opacity:1"/><stop offset="0.21" style="stop-color:rgb(173,173,173);stop-opacity:1"/><stop offset="0.21" style="stop-color:rgb(174,174,174);stop-opacity:0.98"/><stop offset="0.27" style="stop-color:rgb(193,193,193);stop-opacity:0.75"/><stop offset="0.33" style="stop-color:rgb(209,209,209);stop-opacity:0.55"/><stop offset="0.39" style="stop-color:rgb(223,223,223);stop-opacity:0.38"/><stop offset="0.46" style="stop-color:rgb(235,235,235);stop-opacity:0.24"/><stop offset="0.54" style="stop-color:rgb(244,244,244);stop-opacity:0.13"/><stop offset="0.63" style="stop-color:rgb(250,250,250);stop-opacity:0.06"/><stop offset="0.75" style="stop-color:rgb(253,253,253);stop-opacity:0.01"/><stop offset="1" style="stop-color:white;stop-opacity:0"/></radialGradient>
        <radialGradient id="_Radial16" cx="0" cy="0" r="1" gradientUnits="userSpaceOnUse" gradientTransform="matrix(45.2479,-181.865,-2.16267,90.1059,1381.43,3364)"><stop offset="0" style="stop-color:white;stop-opacity:1"/><stop offset="0.21" style="stop-color:rgb(173,173,173);stop-opacity:1"/><stop offset="0.21" style="stop-color:rgb(174,174,174);stop-opacity:0.98"/><stop offset="0.27" style="stop-color:rgb(193,193,193);stop-opacity:0.75"/><stop offset="0.33" style="stop-color:rgb(209,209,209);stop-opacity:0.55"/><stop offset="0.39" style="stop-color:rgb(223,223,223);stop-opacity:0.38"/><stop offset="0.46" style="stop-color:rgb(235,235,235);stop-opacity:0.24"/><stop offset="0.54" style="stop-color:rgb(244,244,244);stop-opacity:0.13"/><stop offset="0.63" style="stop-color:rgb(250,250,250);stop-opacity:0.06"/><stop offset="0.75" style="stop-color:rgb(253,253,253);stop-opacity:0.01"/><stop offset="1" style="stop-color:white;stop-opacity:0"/></radialGradient>
        <radialGradient id="_Radial17" cx="0" cy="0" r="1" gradientUnits="userSpaceOnUse" gradientTransform="matrix(106.193,-34.9054,6357.23,1341.47,19015.7,-991.607)"><stop offset="0" style="stop-color:white;stop-opacity:1"/><stop offset="0.21" style="stop-color:rgb(173,173,173);stop-opacity:1"/><stop offset="0.21" style="stop-color:rgb(174,174,174);stop-opacity:0.98"/><stop offset="0.27" style="stop-color:rgb(193,193,193);stop-opacity:0.75"/><stop offset="0.33" style="stop-color:rgb(209,209,209);stop-opacity:0.55"/><stop offset="0.39" style="stop-color:rgb(223,223,223);stop-opacity:0.38"/><stop offset="0.46" style="stop-color:rgb(235,235,235);stop-opacity:0.24"/><stop offset="0.54" style="stop-color:rgb(244,244,244);stop-opacity:0.13"/><stop offset="0.63" style="stop-color:rgb(250,250,250);stop-opacity:0.06"/><stop offset="0.75" style="stop-color:rgb(253,253,253);stop-opacity:0.01"/><stop offset="1" style="stop-color:white;stop-opacity:0"/></radialGradient>
        <radialGradient id="_Radial18" cx="0" cy="0" r="1" gradientUnits="userSpaceOnUse" gradientTransform="matrix(128.09,-203.521,-82.7419,411.798,3853.08,5660.13)"><stop offset="0" style="stop-color:white;stop-opacity:1"/><stop offset="0.21" style="stop-color:rgb(173,173,173);stop-opacity:1"/><stop offset="0.21" style="stop-color:rgb(174,174,174);stop-opacity:0.98"/><stop offset="0.27" style="stop-color:rgb(193,193,193);stop-opacity:0.75"/><stop offset="0.33" style="stop-color:rgb(209,209,209);stop-opacity:0.55"/><stop offset="0.39" style="stop-color:rgb(223,223,223);stop-opacity:0.38"/><stop offset="0.46" style="stop-color:rgb(235,235,235);stop-opacity:0.24"/><stop offset="0.54" style="stop-color:rgb(244,244,244);stop-opacity:0.13"/><stop offset="0.63" style="stop-color:rgb(250,250,250);stop-opacity:0.06"/><stop offset="0.75" style="stop-color:rgb(253,253,253);stop-opacity:0.01"/><stop offset="1" style="stop-color:white;stop-opacity:0"/></radialGradient>
        <radialGradient id="_Radial19" cx="0" cy="0" r="1" gradientUnits="userSpaceOnUse" gradientTransform="matrix(77.0613,-144.733,78.7562,575.575,5091.81,5504.21)"><stop offset="0" style="stop-color:white;stop-opacity:1"/><stop offset="0.21" style="stop-color:rgb(173,173,173);stop-opacity:1"/><stop offset="0.21" style="stop-color:rgb(174,174,174);stop-opacity:0.98"/><stop offset="0.27" style="stop-color:rgb(193,193,193);stop-opacity:0.75"/><stop offset="0.33" style="stop-color:rgb(209,209,209);stop-opacity:0.55"/><stop offset="0.39" style="stop-color:rgb(223,223,223);stop-opacity:0.38"/><stop offset="0.46" style="stop-color:rgb(235,235,235);stop-opacity:0.24"/><stop offset="0.54" style="stop-color:rgb(244,244,244);stop-opacity:0.13"/><stop offset="0.63" style="stop-color:rgb(250,250,250);stop-opacity:0.06"/><stop offset="0.75" style="stop-color:rgb(253,253,253);stop-opacity:0.01"/><stop offset="1" style="stop-color:white;stop-opacity:0"/></radialGradient>
        <radialGradient id="_Radial20" cx="0" cy="0" r="1" gradientUnits="userSpaceOnUse" gradientTransform="matrix(290.544,-81.7277,7269.44,-992.369,-6510.11,6027.93)"><stop offset="0" style="stop-color:white;stop-opacity:1"/><stop offset="0.21" style="stop-color:rgb(173,173,173);stop-opacity:1"/><stop offset="0.21" style="stop-color:rgb(174,174,174);stop-opacity:0.98"/><stop offset="0.27" style="stop-color:rgb(193,193,193);stop-opacity:0.75"/><stop offset="0.33" style="stop-color:rgb(209,209,209);stop-opacity:0.55"/><stop offset="0.39" style="stop-color:rgb(223,223,223);stop-opacity:0.38"/><stop offset="0.46" style="stop-color:rgb(235,235,235);stop-opacity:0.24"/><stop offset="0.54" style="stop-color:rgb(244,244,244);stop-opacity:0.13"/><stop offset="0.63" style="stop-color:rgb(250,250,250);stop-opacity:0.06"/><stop offset="0.75" style="stop-color:rgb(253,253,253);stop-opacity:0.01"/><stop offset="1" style="stop-color:white;stop-opacity:0"/></radialGradient>
        <radialGradient id="_Radial21" cx="0" cy="0" r="1" gradientUnits="userSpaceOnUse" gradientTransform="matrix(964.23,-696.961,696.961,964.23,10920.8,5206.13)"><stop offset="0" style="stop-color:white;stop-opacity:1"/><stop offset="0.21" style="stop-color:rgb(173,173,173);stop-opacity:1"/><stop offset="0.21" style="stop-color:rgb(174,174,174);stop-opacity:0.98"/><stop offset="0.27" style="stop-color:rgb(193,193,193);stop-opacity:0.75"/><stop offset="0.33" style="stop-color:rgb(209,209,209);stop-opacity:0.55"/><stop offset="0.39" style="stop-color:rgb(223,223,223);stop-opacity:0.38"/><stop offset="0.46" style="stop-color:rgb(235,235,235);stop-opacity:0.24"/><stop offset="0.54" style="stop-color:rgb(244,244,244);stop-opacity:0.13"/><stop offset="0.63" style="stop-color:rgb(250,250,250);stop-opacity:0.06"/><stop offset="0.75" style="stop-color:rgb(253,253,253);stop-opacity:0.01"/><stop offset="1" style="stop-color:white;stop-opacity:0"/></radialGradient>
        <radialGradient id="_Radial22" cx="0" cy="0" r="1" gradientUnits="userSpaceOnUse" gradientTransform="matrix(2145.81,-1156.62,607.834,627.087,14710.3,5264.18)"><stop offset="0" style="stop-color:white;stop-opacity:1"/><stop offset="0.21" style="stop-color:rgb(173,173,173);stop-opacity:1"/><stop offset="0.21" style="stop-color:rgb(174,174,174);stop-opacity:0.98"/><stop offset="0.27" style="stop-color:rgb(193,193,193);stop-opacity:0.75"/><stop offset="0.33" style="stop-color:rgb(209,209,209);stop-opacity:0.55"/><stop offset="0.39" style="stop-color:rgb(223,223,223);stop-opacity:0.38"/><stop offset="0.46" style="stop-color:rgb(235,235,235);stop-opacity:0.24"/><stop offset="0.54" style="stop-color:rgb(244,244,244);stop-opacity:0.13"/><stop offset="0.63" style="stop-color:rgb(250,250,250);stop-opacity:0.06"/><stop offset="0.75" style="stop-color:rgb(253,253,253);stop-opacity:0.01"/><stop offset="1" style="stop-color:white;stop-opacity:0"/></radialGradient>
        <radialGradient id="_Radial23" cx="0" cy="0" r="1" gradientUnits="userSpaceOnUse" gradientTransform="matrix(37180.1,-6.69369,65.5301,3872.93,74334.1,10636.1)"><stop offset="0" style="stop-color:white;stop-opacity:1"/><stop offset="0.21" style="stop-color:rgb(173,173,173);stop-opacity:1"/><stop offset="0.21" style="stop-color:rgb(174,174,174);stop-opacity:0.98"/><stop offset="0.27" style="stop-color:rgb(193,193,193);stop-opacity:0.75"/><stop offset="0.33" style="stop-color:rgb(209,209,209);stop-opacity:0.55"/><stop offset="0.39" style="stop-color:rgb(223,223,223);stop-opacity:0.38"/><stop offset="0.46" style="stop-color:rgb(235,235,235);stop-opacity:0.24"/><stop offset="0.54" style="stop-color:rgb(244,244,244);stop-opacity:0.13"/><stop offset="0.63" style="stop-color:rgb(250,250,250);stop-opacity:0.06"/><stop offset="0.75" style="stop-color:rgb(253,253,253);stop-opacity:0.01"/><stop offset="1" style="stop-color:white;stop-opacity:0"/></radialGradient>
        <radialGradient id="_Radial24" cx="0" cy="0" r="1" gradientUnits="userSpaceOnUse" gradientTransform="matrix(10.898,60521.8,-67.1045,1.1352,5139.49,27658.2)"><stop offset="0" style="stop-color:white;stop-opacity:1"/><stop offset="0.21" style="stop-color:rgb(173,173,173);stop-opacity:1"/><stop offset="0.21" style="stop-color:rgb(174,174,174);stop-opacity:0.98"/><stop offset="0.27" style="stop-color:rgb(193,193,193);stop-opacity:0.75"/><stop offset="0.33" style="stop-color:rgb(209,209,209);stop-opacity:0.55"/><stop offset="0.39" style="stop-color:rgb(223,223,223);stop-opacity:0.38"/><stop offset="0.46" style="stop-color:rgb(235,235,235);stop-opacity:0.24"/><stop offset="0.54" style="stop-color:rgb(244,244,244);stop-opacity:0.13"/><stop offset="0.63" style="stop-color:rgb(250,250,250);stop-opacity:0.06"/><stop offset="0.75" style="stop-color:rgb(253,253,253);stop-opacity:0.01"/><stop offset="1" style="stop-color:white;stop-opacity:0"/></radialGradient>
        <radialGradient id="_Radial25" cx="0" cy="0" r="1" gradientUnits="userSpaceOnUse" gradientTransform="matrix(148.03,0,0,148.03,652.67,336.01)"><stop offset="0" style="stop-color:rgb(110,83,20);stop-opacity:1"/><stop offset="0.18" style="stop-color:rgb(198,162,58);stop-opacity:1"/><stop offset="0.35" style="stop-color:rgb(255,242,176);stop-opacity:1"/><stop offset="0.55" style="stop-color:rgb(198,162,58);stop-opacity:1"/><stop offset="0.75" style="stop-color:rgb(138,106,31);stop-opacity:1"/><stop offset="1" style="stop-color:rgb(61,44,8);stop-opacity:1"/></radialGradient>
        <linearGradient id="_Linear26" x1="0" y1="0" x2="1" y2="0" gradientUnits="userSpaceOnUse" gradientTransform="matrix(166509,0,0,166509,183521,14764.1)"><stop offset="0" style="stop-color:white;stop-opacity:0"/><stop offset="0.5" style="stop-color:white;stop-opacity:0.9"/><stop offset="1" style="stop-color:white;stop-opacity:0"/></linearGradient>
        <linearGradient id="_Linear27" x1="0" y1="0" x2="1" y2="0" gradientUnits="userSpaceOnUse" gradientTransform="matrix(163127,0,0,163127,182492,14609.8)"><stop offset="0" style="stop-color:rgb(63,21,0);stop-opacity:0.9"/><stop offset="1" style="stop-color:rgb(63,21,0);stop-opacity:0"/></linearGradient>
        <radialGradient id="_Radial28" cx="0" cy="0" r="1" gradientUnits="userSpaceOnUse" gradientTransform="matrix(79.7626,9.41229,-3.06923,26.0095,605.088,335.811)"><stop offset="0" style="stop-color:white;stop-opacity:1"/><stop offset="0.21" style="stop-color:rgb(173,173,173);stop-opacity:1"/><stop offset="0.21" style="stop-color:rgb(174,174,174);stop-opacity:0.98"/><stop offset="0.27" style="stop-color:rgb(193,193,193);stop-opacity:0.75"/><stop offset="0.33" style="stop-color:rgb(209,209,209);stop-opacity:0.55"/><stop offset="0.39" style="stop-color:rgb(223,223,223);stop-opacity:0.38"/><stop offset="0.46" style="stop-color:rgb(235,235,235);stop-opacity:0.24"/><stop offset="0.54" style="stop-color:rgb(244,244,244);stop-opacity:0.13"/><stop offset="0.63" style="stop-color:rgb(250,250,250);stop-opacity:0.06"/><stop offset="0.75" style="stop-color:rgb(253,253,253);stop-opacity:0.01"/><stop offset="1" style="stop-color:white;stop-opacity:0"/></radialGradient>
    </defs>
</svg>
