<?xml version="1.0" encoding="UTF-8"?>
<svg id="Capa_1" xmlns="http://www.w3.org/2000/svg" version="1.1" viewBox="0 0 1080 1080">
  <!-- Generator: Adobe Illustrator 29.8.4, SVG Export Plug-In . SVG Version: 2.1.1 Build 6)  -->
  <g>
    <path d="M698.3,352.75h-40.62v-13.62c0-64.89-52.79-117.68-117.68-117.68s-117.68,52.79-117.68,117.68v13.62h-40.62c-22,0-39.83,17.83-39.83,39.83v177.7c0,22,17.83,39.83,39.83,39.83h316.6c22,0,39.83-17.83,39.83-39.83v-177.7c0-22-17.83-39.83-39.83-39.83ZM615.68,339.14v13.62h-151.36v-13.62c0-41.73,33.95-75.68,75.68-75.68s75.68,33.95,75.68,75.68ZM605.75,574.79l-17.99-39.2h-96.83l-17.99,39.2h-66.08l101.08-201.76h63.79l101.41,201.76h-67.39Z"/>
    <polygon points="509.91 493.51 568.79 493.51 539.35 428.95 509.91 493.51"/>
  </g>
  <g>
    <path d="M264.58,729.23h-30.61l-5.69,14.07h-20.89l31.96-72.4h20.17l32.06,72.4h-21.31l-5.69-14.07ZM258.58,714.13l-9.31-23.17-9.31,23.17h18.62Z"/>
    <path d="M305.74,742.57c-5.52-1.45-10-3.38-13.45-5.79l6.72-15.1c3.24,2.14,7,3.86,11.27,5.17,4.27,1.31,8.48,1.97,12.62,1.97,7.86,0,11.79-1.97,11.79-5.9,0-2.07-1.12-3.6-3.36-4.6-2.24-1-5.84-2.05-10.81-3.15-5.45-1.17-10-2.43-13.65-3.77-3.66-1.35-6.79-3.5-9.41-6.46-2.62-2.96-3.93-6.96-3.93-12,0-4.41,1.21-8.39,3.62-11.95,2.41-3.55,6.01-6.36,10.81-8.43,4.79-2.07,10.67-3.1,17.63-3.1,4.76,0,9.45.54,14.07,1.6,4.62,1.07,8.69,2.64,12.2,4.71l-6.31,15.2c-6.9-3.72-13.58-5.58-20.06-5.58-4.07,0-7.03.6-8.89,1.81-1.86,1.21-2.79,2.78-2.79,4.71s1.1,3.38,3.31,4.34c2.21.97,5.76,1.97,10.65,3,5.52,1.17,10.08,2.43,13.7,3.77,3.62,1.34,6.76,3.48,9.41,6.41,2.65,2.93,3.98,6.91,3.98,11.94,0,4.34-1.21,8.27-3.62,11.79-2.41,3.52-6.03,6.33-10.86,8.43-4.83,2.1-10.69,3.15-17.58,3.15-5.86,0-11.55-.72-17.06-2.17Z"/>
    <path d="M422.41,727.47v15.82h-58.13v-72.4h56.78v15.82h-36.51v12.2h32.16v15.31h-32.16v13.24h37.85Z"/>
    <path d="M482.19,705.55h18.1v29.99c-4.14,2.97-8.9,5.24-14.27,6.83-5.38,1.59-10.76,2.38-16.13,2.38-7.58,0-14.41-1.6-20.48-4.81-6.07-3.21-10.83-7.67-14.27-13.39-3.45-5.72-5.17-12.2-5.17-19.44s1.72-13.72,5.17-19.44c3.45-5.72,8.24-10.19,14.38-13.39,6.14-3.21,13.06-4.81,20.79-4.81,6.76,0,12.83,1.14,18.2,3.41,5.38,2.27,9.86,5.55,13.45,9.82l-13.03,11.79c-4.9-5.38-10.76-8.07-17.58-8.07-6.21,0-11.21,1.88-15,5.64s-5.69,8.78-5.69,15.05c0,4,.86,7.57,2.59,10.7,1.72,3.14,4.14,5.58,7.24,7.34,3.1,1.76,6.65,2.64,10.65,2.64s7.62-.79,11.07-2.38v-19.86Z"/>
    <path d="M521.64,735.95c-5.97-5.86-8.95-14.17-8.95-24.93v-40.13h20.48v39.51c0,11.58,4.58,17.38,13.76,17.38s13.65-5.79,13.65-17.38v-39.51h20.17v40.13c0,10.76-2.98,19.06-8.95,24.93-5.97,5.86-14.32,8.79-25.08,8.79s-19.12-2.93-25.08-8.79Z"/>
    <path d="M626.26,724.06h-11.17v19.24h-20.48v-72.4h33.1c6.55,0,12.24,1.09,17.06,3.26,4.83,2.17,8.55,5.27,11.17,9.31,2.62,4.03,3.93,8.78,3.93,14.22s-1.23,9.81-3.67,13.7c-2.45,3.9-5.95,6.95-10.5,9.15l15.62,22.75h-21.93l-13.13-19.24ZM635.98,689.83c-2.14-1.86-5.31-2.79-9.51-2.79h-11.38v21.2h11.38c4.2,0,7.38-.91,9.51-2.74,2.14-1.83,3.21-4.43,3.21-7.81s-1.07-6-3.21-7.86Z"/>
    <path d="M719.65,729.23h-30.61l-5.69,14.07h-20.89l31.96-72.4h20.17l32.06,72.4h-21.31l-5.69-14.07ZM713.65,714.13l-9.31-23.17-9.31,23.17h18.62Z"/>
    <path d="M764.22,687.14h-22.24v-16.24h64.85v16.24h-22.13v56.16h-20.48v-56.16Z"/>
    <path d="M872.61,727.47v15.82h-58.12v-72.4h56.78v15.82h-36.51v12.2h32.16v15.31h-32.16v13.24h37.85Z"/>
  </g>
</svg>