<?xml version="1.0" encoding="UTF-8"?>
<svg id="Capa_1" xmlns="http://www.w3.org/2000/svg" version="1.1" viewBox="0 0 1080 1080">
  <!-- Generator: Adobe Illustrator 29.8.4, SVG Export Plug-In . SVG Version: 2.1.1 Build 6)  -->
  <defs>
    <style>
      .st0 {
        fill: #fff;
      }
    </style>
  </defs>
  <path class="st0" d="M772.94,447.24h-59.77v-20.04c0-95.49-77.69-173.17-173.18-173.17s-173.17,77.69-173.17,173.17v20.04h-59.77c-32.37,0-58.61,26.24-58.61,58.61v261.5c0,32.37,26.24,58.61,58.61,58.61h465.89c32.37,0,58.61-26.24,58.61-58.61v-261.5c0-32.37-26.24-58.61-58.61-58.61ZM651.37,427.21v20.04h-222.74v-20.04c0-61.41,49.96-111.37,111.37-111.37s111.37,49.96,111.37,111.37ZM636.76,773.99l-26.48-57.68h-142.49l-26.47,57.68h-97.24l148.75-296.9h93.87l149.23,296.9h-99.16Z"/>
  <polygon class="st0" points="495.71 654.38 582.36 654.38 539.04 559.37 495.71 654.38"/>
</svg>