<?xml version="1.0" encoding="UTF-8"?>
<svg id="Capa_1" xmlns="http://www.w3.org/2000/svg" version="1.1" viewBox="0 0 1080 442.72">
  <!-- Generator: Adobe Illustrator 29.8.4, SVG Export Plug-In . SVG Version: 2.1.1 Build 6)  -->
  <defs>
    <style>
      .st0 {
        fill: #fff;
      }
    </style>
  </defs>
  <g>
    <path class="st0" d="M305.48,186.74h-20.6v-6.91c0-32.91-26.77-59.68-59.68-59.68s-59.68,26.77-59.68,59.68v6.91h-20.6c-11.16,0-20.2,9.04-20.2,20.2v90.12c0,11.16,9.04,20.2,20.2,20.2h160.56c11.16,0,20.2-9.04,20.2-20.2v-90.12c0-11.16-9.04-20.2-20.2-20.2ZM263.59,179.83v6.91h-76.76v-6.91c0-21.16,17.22-38.38,38.38-38.38s38.38,17.22,38.38,38.38ZM258.55,299.34l-9.12-19.88h-49.11l-9.12,19.88h-33.51l51.26-102.32h32.35l51.43,102.32h-34.17Z"/>
    <polygon class="st0" points="209.94 258.12 239.8 258.12 224.87 225.38 209.94 258.12"/>
  </g>
  <g>
    <path class="st0" d="M414.59,272.61h-27.3l-5.07,12.54h-18.63l28.5-64.56h17.99l28.59,64.56h-19l-5.07-12.54ZM409.24,259.15l-8.3-20.66-8.3,20.66h16.6Z"/>
    <path class="st0" d="M451.3,284.51c-4.92-1.29-8.92-3.01-11.99-5.17l6-13.47c2.89,1.91,6.24,3.44,10.05,4.61,3.81,1.17,7.56,1.75,11.25,1.75,7.01,0,10.51-1.75,10.51-5.26,0-1.84-1-3.21-3-4.1-2-.89-5.21-1.83-9.64-2.81-4.86-1.05-8.92-2.17-12.17-3.37-3.26-1.2-6.06-3.12-8.39-5.76-2.34-2.64-3.5-6.21-3.5-10.7,0-3.93,1.08-7.49,3.23-10.65,2.15-3.17,5.36-5.67,9.64-7.52,4.27-1.84,9.51-2.77,15.73-2.77,4.24,0,8.42.48,12.54,1.43,4.12.95,7.75,2.35,10.88,4.2l-5.63,13.56c-6.15-3.32-12.11-4.98-17.89-4.98-3.63,0-6.27.54-7.93,1.61-1.66,1.08-2.49,2.48-2.49,4.2s.98,3.01,2.95,3.87c1.97.86,5.13,1.75,9.5,2.68,4.92,1.05,8.99,2.17,12.22,3.37,3.23,1.2,6.03,3.11,8.39,5.72,2.37,2.61,3.55,6.17,3.55,10.65,0,3.87-1.08,7.38-3.23,10.51-2.15,3.14-5.38,5.64-9.68,7.52-4.3,1.87-9.53,2.81-15.68,2.81-5.23,0-10.3-.64-15.22-1.94Z"/>
    <path class="st0" d="M555.33,271.05v14.11h-51.84v-64.56h50.64v14.11h-32.56v10.88h28.68v13.65h-28.68v11.81h33.76Z"/>
    <path class="st0" d="M608.64,251.49h16.14v26.75c-3.69,2.64-7.93,4.67-12.73,6.09-4.8,1.41-9.59,2.12-14.39,2.12-6.76,0-12.85-1.43-18.26-4.29-5.41-2.86-9.65-6.84-12.73-11.94s-4.61-10.88-4.61-17.34,1.54-12.24,4.61-17.34c3.07-5.1,7.35-9.09,12.82-11.94,5.47-2.86,11.65-4.29,18.54-4.29,6.03,0,11.44,1.02,16.23,3.04,4.8,2.03,8.79,4.95,11.99,8.76l-11.62,10.51c-4.37-4.8-9.59-7.19-15.68-7.19-5.53,0-9.99,1.68-13.37,5.03-3.38,3.35-5.07,7.83-5.07,13.42,0,3.57.77,6.75,2.31,9.55,1.54,2.8,3.69,4.98,6.46,6.55,2.77,1.57,5.93,2.35,9.5,2.35s6.79-.71,9.87-2.12v-17.71Z"/>
    <path class="st0" d="M643.83,278.61c-5.32-5.23-7.98-12.64-7.98-22.23v-35.79h18.26v35.23c0,10.33,4.09,15.5,12.27,15.5s12.17-5.17,12.17-15.5v-35.23h17.98v35.79c0,9.59-2.66,17-7.98,22.23-5.32,5.23-12.77,7.84-22.37,7.84s-17.05-2.61-22.37-7.84Z"/>
    <path class="st0" d="M737.12,268h-9.96v17.16h-18.26v-64.56h29.51c5.84,0,10.91.97,15.22,2.9,4.3,1.94,7.62,4.7,9.96,8.3,2.34,3.6,3.5,7.83,3.5,12.68s-1.09,8.75-3.27,12.22c-2.18,3.47-5.3,6.2-9.36,8.16l13.93,20.29h-19.55l-11.71-17.16ZM745.79,237.47c-1.91-1.66-4.74-2.49-8.49-2.49h-10.15v18.91h10.15c3.75,0,6.58-.81,8.49-2.44,1.9-1.63,2.86-3.95,2.86-6.96s-.95-5.35-2.86-7.01Z"/>
    <path class="st0" d="M820.41,272.61h-27.3l-5.07,12.54h-18.63l28.5-64.56h17.99l28.59,64.56h-19l-5.07-12.54ZM815.06,259.15l-8.3-20.66-8.3,20.66h16.6Z"/>
    <path class="st0" d="M860.16,235.07h-19.83v-14.48h57.83v14.48h-19.74v50.08h-18.26v-50.08Z"/>
    <path class="st0" d="M956.82,271.05v14.11h-51.83v-64.56h50.64v14.11h-32.56v10.88h28.68v13.65h-28.68v11.81h33.76Z"/>
  </g>
</svg>