<?xml version="1.0" encoding="UTF-8"?>
<svg xmlns="http://www.w3.org/2000/svg" version="1.1" xmlns:xlink="http://www.w3.org/1999/xlink" viewBox="0 0 1080 442.72">
  <!-- Generator: Adobe Illustrator 29.8.4, SVG Export Plug-In . SVG Version: 2.1.1 Build 6)  -->
  <defs>
    <style>
      .st0 {
        fill: url(#Degradado_sin_nombre_101);
      }

      .st0, .st1, .st2, .st3, .st4, .st5, .st6, .st7, .st8, .st9, .st10, .st11, .st12 {
        mix-blend-mode: screen;
      }

      .st13 {
        fill: url(#Degradado_sin_nombre_3764);
      }

      .st1 {
        fill: url(#Degradado_sin_nombre_1017);
      }

      .st2 {
        fill: url(#Degradado_sin_nombre_1014);
      }

      .st14 {
        fill: url(#Degradado_sin_nombre_82);
      }

      .st15 {
        fill: #fff;
      }

      .st16 {
        fill: url(#Degradado_sin_nombre_3765);
      }

      .st3 {
        fill: url(#Degradado_sin_nombre_10112);
      }

      .st4 {
        fill: url(#Degradado_sin_nombre_10110);
      }

      .st17 {
        fill: url(#Degradado_sin_nombre_3763);
      }

      .st18 {
        fill: url(#Degradado_sin_nombre_3451);
      }

      .st18, .st19 {
        mix-blend-mode: multiply;
      }

      .st18, .st19, .st20 {
        opacity: .4;
      }

      .st21 {
        fill: #040c1f;
      }

      .st22 {
        fill: url(#Degradado_sin_nombre_355);
      }

      .st23 {
        fill: url(#Degradado_sin_nombre_3551);
      }

      .st23, .st24 {
        mix-blend-mode: overlay;
        opacity: .6;
      }

      .st25 {
        fill: url(#Degradado_sin_nombre_3761);
      }

      .st5 {
        fill: url(#Degradado_sin_nombre_1015);
      }

      .st26 {
        isolation: isolate;
      }

      .st27 {
        fill: url(#Degradado_sin_nombre_3762);
      }

      .st20 {
        fill: #fff6c7;
      }

      .st28 {
        fill: #965b32;
      }

      .st6 {
        fill: url(#Degradado_sin_nombre_1019);
      }

      .st7 {
        fill: url(#Degradado_sin_nombre_10111);
      }

      .st29 {
        fill: url(#Degradado_sin_nombre_427);
      }

      .st30 {
        fill: url(#Degradado_sin_nombre_376);
      }

      .st8 {
        fill: url(#Degradado_sin_nombre_1018);
      }

      .st31 {
        fill: url(#Degradado_sin_nombre_3768);
      }

      .st9 {
        fill: url(#Degradado_sin_nombre_1013);
      }

      .st10 {
        fill: url(#Degradado_sin_nombre_1012);
      }

      .st32 {
        fill: url(#Degradado_sin_nombre_3766);
      }

      .st33 {
        fill: #3f1f09;
      }

      .st34 {
        fill: url(#Degradado_sin_nombre_345);
      }

      .st35 {
        fill: url(#Degradado_sin_nombre_3767);
      }

      .st11 {
        fill: url(#Degradado_sin_nombre_1016);
      }

      .st12 {
        fill: url(#Degradado_sin_nombre_1011);
      }
    </style>
    <linearGradient id="Degradado_sin_nombre_82" data-name="Degradado sin nombre 82" x1="131.82" y1="221.34" x2="411.62" y2="221.34" gradientUnits="userSpaceOnUse">
      <stop offset="0" stop-color="#6e5314"/>
      <stop offset=".18" stop-color="#c6a218"/>
      <stop offset=".35" stop-color="#fff2b0"/>
      <stop offset=".55" stop-color="#c6a23a"/>
      <stop offset=".79" stop-color="#ddc255"/>
      <stop offset="1" stop-color="#3d2c08"/>
    </linearGradient>
    <linearGradient id="Degradado_sin_nombre_355" data-name="Degradado sin nombre 355" x1="271.72" y1="355.81" x2="271.72" y2="86.87" gradientUnits="userSpaceOnUse">
      <stop offset="0" stop-color="#fff" stop-opacity="0"/>
      <stop offset=".5" stop-color="#fff" stop-opacity=".9"/>
      <stop offset="1" stop-color="#fff" stop-opacity="0"/>
    </linearGradient>
    <linearGradient id="Degradado_sin_nombre_345" data-name="Degradado sin nombre 345" x1="271.72" y1="354.44" x2="271.72" y2="88.24" gradientUnits="userSpaceOnUse">
      <stop offset="0" stop-color="#3f1500" stop-opacity=".9"/>
      <stop offset="1" stop-color="#3f1500" stop-opacity="0"/>
    </linearGradient>
    <radialGradient id="Degradado_sin_nombre_101" data-name="Degradado sin nombre 101" cx="-1870.57" cy="4544.39" fx="-1870.57" fy="4544.39" r="6.72" gradientTransform="translate(4484.34 -5972.14) rotate(-35.86) scale(3.75 .53)" gradientUnits="userSpaceOnUse">
      <stop offset="0" stop-color="#fff"/>
      <stop offset=".21" stop-color="#adadad"/>
      <stop offset=".21" stop-color="#aeaeae" stop-opacity=".98"/>
      <stop offset=".27" stop-color="#c1c1c1" stop-opacity=".75"/>
      <stop offset=".33" stop-color="#d1d1d1" stop-opacity=".55"/>
      <stop offset=".39" stop-color="#dfdfdf" stop-opacity=".38"/>
      <stop offset=".46" stop-color="#ebebeb" stop-opacity=".24"/>
      <stop offset=".54" stop-color="#f4f4f4" stop-opacity=".13"/>
      <stop offset=".63" stop-color="#fafafa" stop-opacity=".06"/>
      <stop offset=".75" stop-color="#fdfdfd" stop-opacity=".01"/>
      <stop offset="1" stop-color="#fff" stop-opacity="0"/>
    </radialGradient>
    <radialGradient id="Degradado_sin_nombre_1011" data-name="Degradado sin nombre 101" cx="-159.64" cy="-19144.44" fx="-159.64" fy="-19144.44" r="20.16" gradientTransform="translate(8373.15 11362.35) rotate(-35.86) scale(.08 .73)" xlink:href="#Degradado_sin_nombre_101"/>
    <radialGradient id="Degradado_sin_nombre_1012" data-name="Degradado sin nombre 101" cx="258.93" cy="4647.86" fx="258.93" fy="4647.86" r="14.09" gradientTransform="translate(-25266.84 -4139.4) rotate(-35.86) scale(.11 3.95) skewX(88.35)" xlink:href="#Degradado_sin_nombre_101"/>
    <radialGradient id="Degradado_sin_nombre_1013" data-name="Degradado sin nombre 101" cx="-1794.83" cy="-32247.17" fx="-1794.83" fy="-32247.17" r="16.03" gradientTransform="translate(-496.9 5688.51) rotate(-35.86) scale(.11 .13) skewX(-48.24)" xlink:href="#Degradado_sin_nombre_101"/>
    <radialGradient id="Degradado_sin_nombre_1014" data-name="Degradado sin nombre 101" cx="-4943.57" cy="2333.14" fx="-4943.57" fy="2333.14" r="28.24" gradientTransform="translate(-4081.02 -2273.25) rotate(-35.86) scale(.09 1.91) skewX(85.19)" xlink:href="#Degradado_sin_nombre_101"/>
    <radialGradient id="Degradado_sin_nombre_1015" data-name="Degradado sin nombre 101" cx="-1980.41" cy="33120.08" fx="-1980.41" fy="33120.08" r="23.26" gradientTransform="translate(6425.59 -13762.36) rotate(-35.86) scale(.16 .23) skewX(-67.87)" xlink:href="#Degradado_sin_nombre_101"/>
    <radialGradient id="Degradado_sin_nombre_1016" data-name="Degradado sin nombre 101" cx="-3967.57" cy="38174.19" fx="-3967.57" fy="38174.19" r="29.12" gradientTransform="translate(-4843.35 -13741.45) rotate(-35.86) scale(.06 .37) skewX(-60.97)" xlink:href="#Degradado_sin_nombre_101"/>
    <radialGradient id="Degradado_sin_nombre_1017" data-name="Degradado sin nombre 101" cx="-141.08" cy="20857.53" fx="-141.08" fy="20857.53" r="25.71" gradientTransform="translate(-48184.48 17240.92) rotate(-35.86) scale(.29 .69) skewX(82.89)" xlink:href="#Degradado_sin_nombre_101"/>
    <radialGradient id="Degradado_sin_nombre_1018" data-name="Degradado sin nombre 101" cx="-784.62" cy="1099.47" fx="-784.62" fy="1099.47" r="24.39" gradientTransform="translate(211.63 -1245.62) rotate(-35.86)" xlink:href="#Degradado_sin_nombre_101"/>
    <radialGradient id="Degradado_sin_nombre_1019" data-name="Degradado sin nombre 101" cx="-1629.29" cy="3315.43" fx="-1629.29" fy="3315.43" r="18.34" gradientTransform="translate(1871.82 -3702.57) rotate(-35.86) scale(2.19 .64)" xlink:href="#Degradado_sin_nombre_101"/>
    <radialGradient id="Degradado_sin_nombre_10110" data-name="Degradado sin nombre 101" cx="-1450.53" cy="2420.69" fx="-1450.53" fy="2420.69" r="40.6" gradientTransform="translate(5139.03 -489.79) rotate(-.1) scale(3.36 .35)" xlink:href="#Degradado_sin_nombre_101"/>
    <radialGradient id="Degradado_sin_nombre_10111" data-name="Degradado sin nombre 101" cx="-1725.57" cy="-7095.92" fx="-1725.57" fy="-7095.92" r="16.64" gradientTransform="translate(-2036.17 6040.39) rotate(89.9) scale(3.36 .35)" xlink:href="#Degradado_sin_nombre_101"/>
    <radialGradient id="Degradado_sin_nombre_427" data-name="Degradado sin nombre 427" cx="652.67" cy="336.01" fx="652.67" fy="336.01" r="148.03" gradientUnits="userSpaceOnUse">
      <stop offset="0" stop-color="#6e5314"/>
      <stop offset=".18" stop-color="#c6a23a"/>
      <stop offset=".35" stop-color="#fff2b0"/>
      <stop offset=".55" stop-color="#c6a23a"/>
      <stop offset=".75" stop-color="#8a6a1f"/>
      <stop offset="1" stop-color="#3d2c08"/>
    </radialGradient>
    <linearGradient id="Degradado_sin_nombre_3551" data-name="Degradado sin nombre 355" x1="448.64" y1="336.01" x2="856.69" y2="336.01" xlink:href="#Degradado_sin_nombre_355"/>
    <linearGradient id="Degradado_sin_nombre_3451" data-name="Degradado sin nombre 345" x1="450.72" y1="336.01" x2="854.61" y2="336.01" xlink:href="#Degradado_sin_nombre_345"/>
    <radialGradient id="Degradado_sin_nombre_10112" data-name="Degradado sin nombre 101" cx="-1167.49" cy="598.52" fx="-1167.49" fy="598.52" r="29.1" gradientTransform="translate(3864.6 179.14) rotate(6.73) scale(2.76 .9)" xlink:href="#Degradado_sin_nombre_101"/>
    <linearGradient id="Degradado_sin_nombre_376" data-name="Degradado sin nombre 376" x1="472.84" y1="258.91" x2="472.84" y2="203.68" gradientUnits="userSpaceOnUse">
      <stop offset="0" stop-color="#c4a428"/>
      <stop offset=".62" stop-color="#816828"/>
      <stop offset="1" stop-color="#ccab28"/>
    </linearGradient>
    <linearGradient id="Degradado_sin_nombre_3761" data-name="Degradado sin nombre 376" x1="529.37" y1="260.02" x2="529.37" y2="202.58" xlink:href="#Degradado_sin_nombre_376"/>
    <linearGradient id="Degradado_sin_nombre_3762" data-name="Degradado sin nombre 376" x1="582.58" x2="582.58" xlink:href="#Degradado_sin_nombre_376"/>
    <linearGradient id="Degradado_sin_nombre_3763" data-name="Degradado sin nombre 376" x1="637.97" y1="260.02" x2="637.97" y2="202.58" xlink:href="#Degradado_sin_nombre_376"/>
    <linearGradient id="Degradado_sin_nombre_3764" data-name="Degradado sin nombre 376" x1="699.58" y1="260.02" x2="699.58" xlink:href="#Degradado_sin_nombre_376"/>
    <linearGradient id="Degradado_sin_nombre_3765" data-name="Degradado sin nombre 376" x1="761.55" x2="761.55" xlink:href="#Degradado_sin_nombre_376"/>
    <linearGradient id="Degradado_sin_nombre_3766" data-name="Degradado sin nombre 376" x1="819.97" x2="819.97" xlink:href="#Degradado_sin_nombre_376"/>
    <linearGradient id="Degradado_sin_nombre_3767" data-name="Degradado sin nombre 376" x1="873.27" x2="873.27" xlink:href="#Degradado_sin_nombre_376"/>
    <linearGradient id="Degradado_sin_nombre_3768" data-name="Degradado sin nombre 376" x1="926.01" x2="926.01" xlink:href="#Degradado_sin_nombre_376"/>
  </defs>
  <g class="st26">
    <g id="Capa_1">
      <g>
        <path class="st14" d="M383.5,176.83h-28.68v-9.61c0-45.82-37.28-83.1-83.1-83.1s-83.1,37.28-83.1,83.1v9.61h-28.68c-15.53,0-28.12,12.59-28.12,28.12v125.48c0,15.53,12.59,28.12,28.12,28.12h223.55c15.53,0,28.12-12.59,28.12-28.12v-125.48c0-15.53-12.59-28.12-28.12-28.12ZM218.28,167.22c0-29.47,23.97-53.44,53.44-53.44s53.44,23.97,53.44,53.44v9.61h-106.88v-9.61Z"/>
        <g class="st24">
          <path class="st22" d="M381.26,177.72h-28.11v-9.42c0-44.9-36.53-81.43-81.43-81.43s-81.43,36.53-81.43,81.43v9.42h-28.11c-15.22,0-27.56,12.34-27.56,27.56v122.97c0,15.22,12.34,27.56,27.56,27.56h219.08c15.22,0,27.56-12.34,27.56-27.56v-122.97c0-15.22-12.34-27.56-27.56-27.56ZM219.35,168.3c0-28.88,23.49-52.37,52.37-52.37s52.37,23.49,52.37,52.37v9.42h-104.74v-9.42Z"/>
        </g>
        <g class="st19">
          <path class="st34" d="M380.15,178.17h-27.82v-9.33c0-44.44-36.16-80.6-80.6-80.6s-80.6,36.16-80.6,80.6v9.33h-27.82c-15.07,0-27.28,12.21-27.28,27.28v121.71c0,15.07,12.21,27.28,27.28,27.28h216.84c15.07,0,27.28-12.21,27.28-27.28v-121.71c0-15.07-12.21-27.28-27.28-27.28ZM219.89,168.84c0-28.58,23.25-51.84,51.84-51.84s51.84,23.25,51.84,51.84v9.33h-103.67v-9.33Z"/>
        </g>
      </g>
      <path class="st20" d="M271.72,84.83c45.43,0,82.39,36.96,82.39,82.39v10.32h29.39c15.12,0,27.42,12.3,27.42,27.42v125.48c0,15.12-12.3,27.42-27.42,27.42h-223.55c-15.12,0-27.42-12.3-27.42-27.42v-125.48c0-15.12,12.3-27.42,27.42-27.42h29.39v-10.32c0-45.43,36.96-82.39,82.39-82.39M217.58,177.54h108.29v-10.32c0-29.86-24.29-54.14-54.15-54.14s-54.14,24.29-54.14,54.14v10.32M271.72,84.12c-45.82,0-83.1,37.28-83.1,83.1v9.61h-28.68c-15.53,0-28.12,12.59-28.12,28.12v125.48c0,15.53,12.59,28.12,28.12,28.12h223.55c15.53,0,28.12-12.59,28.12-28.12v-125.48c0-15.53-12.59-28.12-28.12-28.12h-28.68v-9.61c0-45.82-37.28-83.1-83.1-83.1h0ZM218.28,176.83v-9.61c0-29.47,23.97-53.44,53.44-53.44s53.44,23.97,53.44,53.44v9.61h-106.88Z"/>
      <g>
        <path class="st0" d="M240.29,90.33c.85,1.17-7.61,8.73-18.89,16.88-11.28,8.15-21.1,13.81-21.95,12.64s7.61-8.73,18.89-16.88,21.1-13.81,21.95-12.64Z"/>
        <g>
          <path class="st12" d="M231.67,121.41c-.72.52-6.59-6.37-13.11-15.39-6.52-9.02-11.22-16.75-10.5-17.27s6.59,6.37,13.11,15.39,11.22,16.75,10.5,17.27Z"/>
          <path class="st10" d="M233.78,107.32c-.1.61-6.41.11-14.09-1.13-7.68-1.24-13.83-2.73-13.73-3.34.1-.61,6.41-.11,14.09,1.13,7.68,1.24,13.83,2.73,13.73,3.34Z"/>
          <path class="st9" d="M217.32,120.91c-.7-.11-.12-7.29,1.29-16.03,1.41-8.74,3.11-15.74,3.81-15.63.7.11.12,7.29-1.29,16.03-1.4,8.74-3.11,15.74-3.81,15.63Z"/>
          <path class="st2" d="M194.11,93.54c.51-1.13,12.45,3.12,26.68,9.49,14.23,6.37,25.35,12.46,24.84,13.59-.51,1.13-12.45-3.12-26.68-9.49-14.23-6.37-25.35-12.46-24.84-13.59Z"/>
          <path class="st5" d="M229.38,83.87c.93.42-2.57,10.26-7.82,21.98-5.25,11.72-10.26,20.88-11.2,20.46-.93-.42,2.57-10.26,7.82-21.98,5.25-11.72,10.26-20.88,11.2-20.46Z"/>
          <path class="st11" d="M209.5,77.88c.8-.3,6.09,11.63,11.82,26.65,5.73,15.03,9.72,27.45,8.92,27.76-.8.3-6.09-11.63-11.82-26.65-5.73-15.03-9.72-27.45-8.92-27.76Z"/>
          <path class="st1" d="M243.89,95.93c.4,1.06-10.03,6.01-23.3,11.07-13.27,5.06-24.35,8.3-24.76,7.24-.4-1.06,10.03-6.01,23.3-11.07,13.27-5.06,24.35-8.3,24.75-7.24Z"/>
        </g>
        <path class="st8" d="M239.63,90.8c7.89,10.91,5.44,26.16-5.48,34.05-10.91,7.89-26.16,5.44-34.05-5.48-7.89-10.92-5.44-26.16,5.48-34.05s26.16-5.44,34.05,5.48Z"/>
        <path class="st6" d="M252.42,81.55c2.83,3.91-9.46,17.62-27.44,30.61-17.98,13-34.85,20.36-37.67,16.45-2.83-3.91,9.46-17.62,27.44-30.61,17.98-13,34.85-20.36,37.67-16.45Z"/>
      </g>
      <path class="st4" d="M408,356.43c.01,7.76-60.99,14.16-136.25,14.29-75.26.13-136.29-6.05-136.3-13.81-.01-7.76,60.99-14.16,136.25-14.3,75.26-.13,136.29,6.05,136.3,13.81Z"/>
      <path class="st15" d="M305.45,305.94h-68.37l-12.7,27.68h-46.66l71.37-142.46h45.04l71.6,142.46h-47.58l-12.7-27.68ZM292.05,276.23l-20.79-45.59-20.79,45.59h41.58Z"/>
      <path class="st33" d="M330.31,176.81h-.71v-7.88c0-32.7-25.97-59.31-57.88-59.31s-57.88,26.61-57.88,59.31v7.52h-.71v-7.52c0-33.09,26.28-60.01,58.59-60.01s58.59,26.92,58.59,60.01v7.88Z"/>
      <path class="st28" d="M330.94,176.87h-.71v-7.98c0-33.08-26.25-60-58.51-60s-58.51,26.92-58.51,60v7.61h-.71v-7.61c0-33.47,26.56-60.7,59.22-60.7s59.22,27.23,59.22,60.7v7.98Z"/>
      <path class="st7" d="M409.34,299.87c-3.18,0-5.8-24.99-5.86-55.83-.06-30.84,2.48-55.84,5.66-55.85,3.18,0,5.8,24.99,5.86,55.83.06,30.84-2.48,55.84-5.66,55.85Z"/>
      <g>
        <path class="st21" d="M445.84,301v-12.66h-5.11v-2.23h12.68v2.23h-5.26v12.66h-2.32Z"/>
        <path class="st21" d="M464.99,301.13c-1.38,0-2.59-.29-3.63-.88-1.04-.59-1.86-1.39-2.45-2.4-.59-1.01-.88-2.17-.88-3.46v-8.3h2.32v8.17c0,.88.21,1.67.63,2.37.42.7.98,1.25,1.68,1.65.7.4,1.48.6,2.33.6.91,0,1.72-.2,2.44-.6.72-.4,1.28-.95,1.7-1.65s.63-1.49.63-2.37v-8.17h2.19v8.3c0,1.29-.29,2.44-.88,3.46-.59,1.01-1.4,1.82-2.45,2.4-1.04.59-2.25.88-3.63.88Z"/>
        <path class="st21" d="M486.95,301v-14.9h7.75c.85,0,1.63.2,2.34.61.71.4,1.28.95,1.7,1.65s.64,1.47.64,2.32-.23,1.68-.68,2.39c-.45.72-1.05,1.29-1.8,1.71-.75.43-1.57.64-2.48.64h-5.15v5.58h-2.32ZM489.27,293.21h5c.48,0,.93-.12,1.34-.35.41-.23.74-.54.98-.93.24-.38.36-.8.36-1.26s-.12-.83-.36-1.18c-.24-.35-.57-.63-.98-.84-.41-.21-.86-.32-1.34-.32h-5v4.87Z"/>
        <path class="st21" d="M501.62,301l6.73-14.9h2.57l6.68,14.9h-2.53l-4.41-9.77c-.09-.21-.19-.47-.32-.78s-.26-.62-.39-.95c-.13-.33-.26-.65-.38-.98s-.22-.62-.31-.87l.62-.02c-.11.3-.23.61-.35.94-.12.33-.25.65-.37.97-.13.32-.26.63-.38.93s-.25.58-.36.85l-4.41,9.68h-2.38ZM504.55,297.44l.89-2.23h8.09l.6,2.23h-9.58Z"/>
        <path class="st21" d="M524.73,301v-12.66h-5.11v-2.23h12.68v2.23h-5.26v12.66h-2.32Z"/>
        <path class="st21" d="M537.18,301v-14.9h7.85c.86,0,1.66.21,2.38.62.72.41,1.31.97,1.75,1.67s.66,1.49.66,2.35-.23,1.66-.69,2.37c-.46.72-1.08,1.29-1.84,1.71-.77.43-1.61.64-2.53.64h-5.26v5.53h-2.32ZM539.5,293.25h5.19c.5,0,.95-.11,1.36-.34.41-.23.74-.53.98-.92.24-.38.36-.8.36-1.26s-.13-.88-.38-1.25c-.26-.36-.61-.65-1.05-.85-.45-.21-.94-.31-1.48-.31h-4.98v4.92ZM547.71,301l-4.6-6.73,2.45-.53,5.02,7.28-2.87-.02Z"/>
        <path class="st21" d="M556.42,301v-14.9h2.32v14.9h-2.32Z"/>
        <path class="st21" d="M565.36,301v-14.9h2.28l6.3,8.56h-.94l6.32-8.56h2.21v14.9h-2.3v-6.21c0-1.22.03-2.34.08-3.37s.17-2.07.34-3.12l.26.83-5.79,7.6h-1.4l-5.7-7.56.23-.87c.16,1.02.27,2.05.33,3.08.06,1.03.1,2.17.1,3.42v6.21h-2.32Z"/>
        <path class="st21" d="M595.26,301.21c-1.22,0-2.34-.19-3.35-.58-1.01-.39-1.9-.93-2.66-1.63-.76-.7-1.34-1.51-1.76-2.44-.41-.93-.62-1.93-.62-3.01s.21-2.08.62-3.01c.41-.93,1-1.74,1.76-2.44.76-.69,1.65-1.24,2.66-1.63,1.01-.39,2.13-.58,3.35-.58s2.34.19,3.35.57c1.01.38,1.9.93,2.66,1.63.76.7,1.35,1.52,1.77,2.45.42.93.63,1.93.63,3.01s-.21,2.08-.63,3.01-1.01,1.74-1.77,2.45c-.76.7-1.65,1.24-2.66,1.63-1.01.38-2.13.57-3.35.57ZM595.26,298.95c.89,0,1.71-.14,2.44-.41.73-.28,1.37-.66,1.92-1.14.55-.48.97-1.05,1.27-1.71.3-.66.45-1.37.45-2.14s-.15-1.48-.45-2.14c-.3-.66-.72-1.23-1.27-1.71-.55-.48-1.18-.86-1.92-1.14-.73-.28-1.54-.41-2.44-.41s-1.69.14-2.42.41c-.73.28-1.37.65-1.92,1.13-.55.48-.97,1.04-1.26,1.7s-.44,1.38-.44,2.16.14,1.48.44,2.15c.29.67.71,1.24,1.26,1.71s1.18.85,1.92,1.13c.73.28,1.54.41,2.42.41Z"/>
        <path class="st21" d="M609.01,301v-14.9h2.21l11,12.17-.21.19c-.06-.4-.11-.83-.16-1.3s-.09-.95-.12-1.45c-.03-.5-.05-1.01-.07-1.54s-.04-1.07-.05-1.61c-.01-.54-.02-1.07-.02-1.6v-4.87h2.3v14.9h-2.23l-10.87-11.73.13-.3c.04.47.08.93.12,1.37.04.45.07.87.12,1.28.04.4.07.79.1,1.17.02.38.04.73.06,1.08s.03.66.03.96v6.17h-2.32Z"/>
        <path class="st21" d="M630.5,301v-14.9h2.32v14.9h-2.32Z"/>
        <path class="st21" d="M646.7,301.21c-1.22,0-2.34-.19-3.35-.58-1.01-.39-1.9-.93-2.66-1.63-.76-.7-1.34-1.51-1.76-2.44-.41-.93-.62-1.93-.62-3.01s.21-2.08.62-3.01c.41-.93,1-1.74,1.76-2.44.76-.69,1.65-1.24,2.66-1.63,1.01-.39,2.13-.58,3.35-.58s2.34.19,3.35.57c1.01.38,1.9.93,2.66,1.63.76.7,1.35,1.52,1.77,2.45.42.93.63,1.93.63,3.01s-.21,2.08-.63,3.01-1.01,1.74-1.77,2.45c-.76.7-1.65,1.24-2.66,1.63-1.01.38-2.13.57-3.35.57ZM646.7,298.95c.89,0,1.71-.14,2.44-.41.73-.28,1.37-.66,1.92-1.14.55-.48.97-1.05,1.27-1.71.3-.66.45-1.37.45-2.14s-.15-1.48-.45-2.14c-.3-.66-.72-1.23-1.27-1.71-.55-.48-1.18-.86-1.92-1.14-.73-.28-1.54-.41-2.44-.41s-1.69.14-2.42.41c-.73.28-1.37.65-1.92,1.13-.55.48-.97,1.04-1.26,1.7s-.44,1.38-.44,2.16.14,1.48.44,2.15c.29.67.71,1.24,1.26,1.71s1.18.85,1.92,1.13c.73.28,1.54.41,2.42.41Z"/>
        <path class="st21" d="M676.53,301.21c-1.14,0-2.21-.17-3.23-.52-1.02-.35-1.92-.85-2.7-1.51-.78-.66-1.39-1.47-1.84-2.42s-.67-2.02-.67-3.21c0-1.06.22-2.06.66-2.98.44-.92,1.06-1.73,1.85-2.42.79-.69,1.72-1.22,2.77-1.61,1.05-.38,2.18-.57,3.38-.57.96,0,1.87.12,2.71.35.84.23,1.6.54,2.26.93s1.18.8,1.56,1.26l-1.49,1.64c-.48-.41-.99-.75-1.53-1.02s-1.1-.49-1.69-.65c-.59-.16-1.2-.25-1.82-.25-.88,0-1.7.13-2.45.39-.75.26-1.41.64-1.98,1.12-.57.48-1.01,1.05-1.33,1.69s-.48,1.35-.48,2.12c0,.87.17,1.64.5,2.32.33.68.79,1.25,1.37,1.69.58.45,1.24.79,1.98,1.03.74.24,1.51.36,2.32.36.75,0,1.46-.08,2.13-.24s1.25-.39,1.75-.69c.5-.3.88-.65,1.16-1.05.28-.4.4-.83.37-1.29v-.34l.32.4h-5.7v-2.26h7.83c.03.2.05.36.06.5.01.13.02.25.02.34v.24c0,1.08-.2,2.03-.6,2.85-.4.82-.96,1.51-1.68,2.08-.72.56-1.58.99-2.56,1.28-.99.29-2.07.44-3.25.44Z"/>
        <path class="st21" d="M687.81,301l6.73-14.9h2.57l6.68,14.9h-2.53l-4.41-9.77c-.09-.21-.19-.47-.32-.78s-.26-.62-.39-.95c-.13-.33-.26-.65-.38-.98s-.22-.62-.31-.87l.62-.02c-.11.3-.23.61-.35.94-.12.33-.25.65-.37.97-.13.32-.26.63-.38.93s-.25.58-.36.85l-4.41,9.68h-2.38ZM690.75,297.44l.89-2.23h8.09l.6,2.23h-9.58Z"/>
        <path class="st21" d="M708.48,301v-14.9h7.85c.86,0,1.66.21,2.38.62.72.41,1.31.97,1.75,1.67s.66,1.49.66,2.35-.23,1.66-.69,2.37c-.46.72-1.08,1.29-1.84,1.71-.77.43-1.61.64-2.53.64h-5.26v5.53h-2.32ZM710.8,293.25h5.19c.5,0,.95-.11,1.36-.34.41-.23.74-.53.98-.92.24-.38.36-.8.36-1.26s-.13-.88-.38-1.25c-.26-.36-.61-.65-1.05-.85-.45-.21-.94-.31-1.48-.31h-4.98v4.92ZM719.01,301l-4.6-6.73,2.45-.53,5.02,7.28-2.87-.02Z"/>
        <path class="st21" d="M725.78,301l6.73-14.9h2.57l6.68,14.9h-2.53l-4.41-9.77c-.09-.21-.19-.47-.32-.78s-.26-.62-.39-.95c-.13-.33-.26-.65-.38-.98s-.22-.62-.31-.87l.62-.02c-.11.3-.23.61-.35.94-.12.33-.25.65-.37.97-.13.32-.26.63-.38.93s-.25.58-.36.85l-4.41,9.68h-2.38ZM728.72,297.44l.89-2.23h8.09l.6,2.23h-9.58Z"/>
        <path class="st21" d="M746.44,301v-14.9h2.21l11,12.17-.21.19c-.06-.4-.11-.83-.16-1.3s-.09-.95-.12-1.45c-.03-.5-.05-1.01-.07-1.54s-.04-1.07-.05-1.61c-.01-.54-.02-1.07-.02-1.6v-4.87h2.3v14.9h-2.23l-10.87-11.73.13-.3c.04.47.08.93.12,1.37.04.45.07.87.12,1.28.04.4.07.79.1,1.17.02.38.04.73.06,1.08s.03.66.03.96v6.17h-2.32Z"/>
        <path class="st21" d="M771.3,301v-12.66h-5.11v-2.23h12.68v2.23h-5.26v12.66h-2.32Z"/>
        <path class="st21" d="M783.9,301v-14.9h2.32v14.9h-2.32Z"/>
        <path class="st21" d="M791.43,301v-1.68l10.07-11.37.64.4h-10.15v-2.26h12.68v1.66l-10.02,11.39-.66-.4h10.92v2.26h-13.47Z"/>
        <path class="st21" d="M808.14,301l6.73-14.9h2.57l6.68,14.9h-2.53l-4.41-9.77c-.09-.21-.19-.47-.32-.78s-.26-.62-.39-.95c-.13-.33-.26-.65-.38-.98s-.22-.62-.31-.87l.62-.02c-.11.3-.23.61-.35.94-.12.33-.25.65-.37.97-.13.32-.26.63-.38.93s-.25.58-.36.85l-4.41,9.68h-2.38ZM811.08,297.44l.89-2.23h8.09l.6,2.23h-9.58Z"/>
        <path class="st21" d="M828.81,301v-14.9h6.92c1.25,0,2.36.19,3.34.57.98.38,1.81.92,2.48,1.6.67.68,1.18,1.47,1.53,2.36.35.89.52,1.87.52,2.92s-.17,2.03-.52,2.94c-.35.91-.86,1.7-1.53,2.37-.67.67-1.5,1.2-2.48,1.58-.98.38-2.09.56-3.34.56h-6.92ZM831.13,299.02l-.08-.26h4.58c.95,0,1.77-.13,2.47-.39.7-.26,1.27-.62,1.72-1.09.45-.46.79-1.01,1.02-1.65s.34-1.33.34-2.09-.11-1.44-.34-2.08-.57-1.18-1.02-1.65c-.45-.47-1.03-.83-1.72-1.1-.69-.26-1.52-.39-2.47-.39h-4.64l.15-.21v10.9Z"/>
        <path class="st21" d="M856.2,301.21c-1.22,0-2.34-.19-3.35-.58-1.01-.39-1.9-.93-2.66-1.63-.76-.7-1.34-1.51-1.76-2.44-.41-.93-.62-1.93-.62-3.01s.21-2.08.62-3.01c.41-.93,1-1.74,1.76-2.44.76-.69,1.65-1.24,2.66-1.63,1.01-.39,2.13-.58,3.35-.58s2.34.19,3.35.57c1.01.38,1.9.93,2.66,1.63.76.7,1.35,1.52,1.77,2.45.42.93.63,1.93.63,3.01s-.21,2.08-.63,3.01-1.01,1.74-1.77,2.45c-.76.7-1.65,1.24-2.66,1.63-1.01.38-2.13.57-3.35.57ZM856.2,298.95c.89,0,1.71-.14,2.44-.41.73-.28,1.37-.66,1.92-1.14.55-.48.97-1.05,1.27-1.71.3-.66.45-1.37.45-2.14s-.15-1.48-.45-2.14c-.3-.66-.72-1.23-1.27-1.71-.55-.48-1.18-.86-1.92-1.14-.73-.28-1.54-.41-2.44-.41s-1.69.14-2.42.41c-.73.28-1.37.65-1.92,1.13-.55.48-.97,1.04-1.26,1.7s-.44,1.38-.44,2.16.14,1.48.44,2.15c.29.67.71,1.24,1.26,1.71.55.48,1.18.85,1.92,1.13.73.28,1.54.41,2.42.41Z"/>
      </g>
      <g>
        <g>
          <path class="st29" d="M444.47,343.65c8.53-2.37,17.17-4.43,25.87-6.17,4.34-.92,8.72-1.66,13.09-2.45,4.38-.7,8.77-1.42,13.18-2,8.81-1.24,17.67-2.13,26.55-2.84,4.44-.31,8.89-.65,13.34-.8l6.68-.29,6.69-.14c4.46-.12,8.92-.06,13.39-.05,2.23-.02,4.46.07,6.7.14l6.7.21c4.46.2,8.92.45,13.38.73,4.45.38,8.91.72,13.36,1.13,8.9.85,17.8,2.07,26.64,3.46,8.83,1.44,17.53,3.17,26.07,4.6,33.96,5.92,68.72,6,103.09,1.05,17.19-2.41,34.27-6.02,51.2-10.51l6.36-1.66,6.31-1.86,6.33-1.83c1.06-.29,2.1-.64,3.15-.97l3.14-1,6.3-2,3.16-.99c1.05-.34,2.08-.72,3.13-1.08,4.18-1.41,8.35-2.88,12.57-4.24-3.87,2.15-7.79,4.2-11.7,6.31-.98.52-1.96,1.04-2.95,1.54l-2.99,1.45-6.01,2.87c-2.01.94-4,1.96-6.05,2.81l-6.13,2.63-6.15,2.6-6.24,2.39c-16.65,6.35-33.86,11.44-51.44,15.06-2.2.44-4.4.91-6.6,1.33l-6.65,1.12c-4.43.8-8.9,1.27-13.37,1.85-2.23.31-4.48.48-6.72.69-2.24.21-4.49.41-6.74.57l-6.76.35c-1.13.05-2.25.13-3.38.16l-3.39.07c-2.26.04-4.52.11-6.77.09l-6.78-.13c-2.26-.01-4.52-.18-6.77-.27-2.26-.11-4.52-.21-6.77-.41-9.01-.66-18.04-1.84-26.89-3.34-8.85-1.55-17.46-3.29-26.02-4.79-8.56-1.55-17.14-2.81-25.77-3.94-4.32-.54-8.65-1.02-12.97-1.53l-13.01-1.26c-8.69-.69-17.39-1.34-26.11-1.7-34.91-1.69-69.99-.21-105.25,3.06Z"/>
          <path class="st23" d="M448.64,343.5c8.36-2.33,16.82-4.34,25.35-6.05,4.26-.9,8.55-1.63,12.83-2.4,4.3-.69,8.6-1.39,12.92-1.96,8.63-1.21,17.32-2.09,26.02-2.78,4.35-.3,8.71-.64,13.08-.79l6.55-.29,6.56-.13c4.37-.11,8.74-.06,13.12-.05,2.19-.02,4.37.07,6.56.14l6.56.21c4.37.19,8.74.44,13.12.71,4.36.37,8.73.71,13.09,1.11,8.72.84,17.44,2.03,26.1,3.39,8.66,1.41,17.18,3.11,25.55,4.51,33.28,5.8,67.34,5.88,101.03,1.02,16.85-2.37,33.59-5.9,50.18-10.3l6.24-1.63,6.18-1.82,6.2-1.8c1.04-.28,2.06-.63,3.09-.95l3.08-.98,6.17-1.96,3.1-.97c1.03-.33,2.04-.71,3.06-1.06,4.1-1.38,8.18-2.82,12.32-4.16-3.79,2.11-7.64,4.12-11.47,6.18-.96.51-1.92,1.02-2.89,1.51l-2.93,1.42-5.89,2.81c-1.97.92-3.92,1.92-5.92,2.75l-6.01,2.57-6.03,2.55-6.11,2.34c-16.32,6.22-33.18,11.21-50.41,14.76-2.16.43-4.31.89-6.47,1.3l-6.51,1.09c-4.34.78-8.73,1.24-13.1,1.81-2.19.31-4.39.47-6.59.68-2.2.2-4.4.4-6.6.56l-6.62.35c-1.1.05-2.21.13-3.31.16l-3.32.07c-2.21.04-4.43.11-6.64.09l-6.64-.12c-2.22-.01-4.43-.17-6.64-.27-2.21-.11-4.43-.2-6.63-.4-8.83-.65-17.68-1.8-26.35-3.27-8.68-1.52-17.11-3.22-25.5-4.7-8.39-1.52-16.8-2.75-25.26-3.86-4.23-.53-8.47-1-12.71-1.5l-12.75-1.23c-8.51-.68-17.04-1.32-25.59-1.67-34.21-1.65-68.59-.2-103.15,3Z"/>
          <path class="st18" d="M450.72,343.42c8.28-2.3,16.65-4.29,25.09-5.99,4.21-.89,8.46-1.61,12.7-2.38,4.25-.68,8.51-1.38,12.79-1.94,8.55-1.2,17.14-2.07,25.75-2.75,4.31-.3,8.62-.63,12.94-.78l6.48-.28,6.49-.13c4.33-.11,8.66-.06,12.99-.05,2.17-.02,4.33.07,6.49.14l6.5.21c4.33.19,8.66.43,12.98.7,4.32.37,8.64.7,12.96,1.1,8.63.83,17.26,2.01,25.84,3.36,8.57,1.39,17.01,3.08,25.29,4.46,32.94,5.74,66.66,5.82,99.99,1.01,16.67-2.34,33.24-5.84,49.67-10.19l6.17-1.61,6.12-1.8,6.14-1.78c1.03-.28,2.04-.62,3.06-.94l3.05-.97,6.11-1.94,3.06-.96c1.02-.33,2.02-.7,3.03-1.04,4.06-1.37,8.1-2.79,12.2-4.11-3.75,2.09-7.56,4.08-11.35,6.12-.95.5-1.9,1.01-2.86,1.49l-2.9,1.4-5.83,2.78c-1.95.91-3.88,1.9-5.86,2.72l-5.95,2.55-5.97,2.52-6.05,2.32c-16.15,6.16-32.84,11.09-49.9,14.61-2.13.43-4.26.88-6.4,1.29l-6.45,1.08c-4.29.77-8.64,1.23-12.97,1.79-2.16.31-4.34.47-6.52.67-2.18.2-4.35.39-6.54.55l-6.55.34c-1.09.05-2.19.12-3.28.16l-3.28.06c-2.19.04-4.38.11-6.57.09l-6.57-.12c-2.19-.01-4.38-.17-6.57-.26-2.19-.1-4.38-.2-6.57-.4-8.74-.64-17.5-1.79-26.08-3.24-8.59-1.51-16.93-3.19-25.24-4.65-8.3-1.5-16.62-2.72-25-3.82-4.19-.53-8.39-.99-12.58-1.49l-12.62-1.22c-8.43-.67-16.87-1.3-25.33-1.65-33.86-1.64-67.89-.2-102.09,2.97Z"/>
        </g>
        <path class="st3" d="M683.68,348.1c-1.7,14.42-38.76,21.89-82.77,16.7-44.01-5.19-78.31-21.09-76.61-35.51,1.7-14.42,38.76-21.89,82.77-16.7,44.01,5.19,78.31,21.09,76.61,35.51Z"/>
      </g>
      <g>
        <path class="st30" d="M484.36,248.18h-23.35l-4.34,10.73h-15.94l24.38-55.23h15.38l24.46,55.23h-16.25l-4.34-10.73ZM479.78,236.66l-7.1-17.67-7.1,17.67h14.2Z"/>
        <path class="st25" d="M515.76,258.36c-4.21-1.1-7.63-2.58-10.26-4.42l5.13-11.52c2.47,1.63,5.34,2.95,8.6,3.94,3.26,1,6.47,1.5,9.62,1.5,6,0,8.99-1.5,8.99-4.5,0-1.58-.86-2.75-2.56-3.51-1.71-.76-4.46-1.56-8.24-2.41-4.16-.89-7.63-1.85-10.41-2.88-2.79-1.03-5.18-2.67-7.18-4.93-2-2.26-3-5.31-3-9.15,0-3.36.92-6.4,2.76-9.11,1.84-2.71,4.59-4.85,8.24-6.43,3.65-1.58,8.14-2.37,13.45-2.37,3.63,0,7.21.41,10.73,1.22,3.52.82,6.63,2.01,9.31,3.59l-4.81,11.6c-5.26-2.84-10.36-4.26-15.31-4.26-3.1,0-5.36.46-6.78,1.38-1.42.92-2.13,2.12-2.13,3.59s.84,2.58,2.52,3.31c1.68.74,4.39,1.5,8.13,2.29,4.21.9,7.69,1.85,10.45,2.88,2.76,1.03,5.15,2.66,7.18,4.89,2.02,2.24,3.04,5.27,3.04,9.11,0,3.31-.92,6.31-2.76,8.99-1.84,2.68-4.6,4.83-8.28,6.43-3.68,1.6-8.15,2.41-13.41,2.41-4.47,0-8.81-.55-13.02-1.66Z"/>
        <path class="st27" d="M604.75,246.84v12.07h-44.34v-55.23h43.31v12.07h-27.85v9.31h24.54v11.68h-24.54v10.1h28.88Z"/>
        <path class="st17" d="M650.35,230.11h13.81v22.88c-3.16,2.26-6.78,4-10.89,5.21-4.1,1.21-8.2,1.82-12.31,1.82-5.79,0-10.99-1.22-15.62-3.67-4.63-2.45-8.26-5.85-10.89-10.22-2.63-4.36-3.95-9.31-3.95-14.83s1.31-10.47,3.95-14.83c2.63-4.36,6.28-7.77,10.97-10.22,4.68-2.45,9.97-3.67,15.86-3.67,5.15,0,9.78.87,13.88,2.6,4.1,1.74,7.52,4.23,10.26,7.49l-9.94,8.99c-3.74-4.1-8.21-6.15-13.41-6.15-4.73,0-8.55,1.43-11.44,4.3-2.89,2.87-4.34,6.69-4.34,11.48,0,3.05.66,5.77,1.97,8.17,1.31,2.39,3.16,4.26,5.52,5.6,2.37,1.34,5.08,2.01,8.13,2.01s5.81-.6,8.44-1.81v-15.15Z"/>
        <path class="st13" d="M680.45,253.31c-4.55-4.47-6.82-10.81-6.82-19.01v-30.61h15.62v30.14c0,8.84,3.5,13.25,10.49,13.25s10.41-4.42,10.41-13.25v-30.14h15.39v30.61c0,8.21-2.28,14.54-6.82,19.01-4.55,4.47-10.93,6.71-19.13,6.71s-14.58-2.23-19.13-6.71Z"/>
        <path class="st16" d="M760.25,244.24h-8.52v14.67h-15.62v-55.23h25.25c5,0,9.34.83,13.02,2.48,3.68,1.66,6.52,4.02,8.52,7.1,2,3.08,3,6.69,3,10.85s-.93,7.48-2.8,10.45c-1.87,2.97-4.54,5.3-8.01,6.98l11.91,17.36h-16.73l-10.02-14.67ZM767.67,218.12c-1.63-1.42-4.05-2.13-7.26-2.13h-8.68v16.17h8.68c3.21,0,5.63-.7,7.26-2.09,1.63-1.39,2.45-3.38,2.45-5.96s-.82-4.58-2.45-6Z"/>
        <path class="st32" d="M831.49,248.18h-23.35l-4.34,10.73h-15.94l24.38-55.23h15.38l24.46,55.23h-16.25l-4.34-10.73ZM826.92,236.66l-7.1-17.67-7.1,17.67h14.2Z"/>
        <path class="st35" d="M865.5,216.07h-16.96v-12.39h49.47v12.39h-16.88v42.84h-15.62v-42.84Z"/>
        <path class="st31" d="M948.18,246.84v12.07h-44.34v-55.23h43.31v12.07h-27.85v9.31h24.54v11.68h-24.54v10.1h28.87Z"/>
      </g>
    </g>
  </g>
</svg>