<?xml version="1.0" encoding="UTF-8"?>
<svg id="Capa_1" xmlns="http://www.w3.org/2000/svg" version="1.1" viewBox="0 0 1080 1080">
  <!-- Generator: Adobe Illustrator 29.8.4, SVG Export Plug-In . SVG Version: 2.1.1 Build 6)  -->
  <g>
    <path d="M291.99,793.13v-15.18h-6.12v-2.68h15.21v2.68h-6.3v15.18h-2.78Z"/>
    <path d="M314.96,793.28c-1.65,0-3.1-.35-4.35-1.06-1.25-.71-2.23-1.67-2.93-2.88-.71-1.22-1.06-2.6-1.06-4.15v-9.95h2.78v9.8c0,1.06.25,2,.75,2.85.5.84,1.17,1.5,2.02,1.98.84.48,1.77.71,2.79.71,1.09,0,2.06-.24,2.92-.71.86-.48,1.54-1.14,2.04-1.98s.75-1.79.75-2.85v-9.8h2.63v9.95c0,1.55-.35,2.93-1.06,4.15-.71,1.22-1.68,2.18-2.93,2.88-1.25.71-2.7,1.06-4.35,1.06Z"/>
    <path d="M341.3,793.13v-17.86h9.29c1.02,0,1.96.24,2.81.73.85.48,1.53,1.14,2.04,1.98s.77,1.76.77,2.78-.27,2.01-.82,2.87c-.54.86-1.26,1.54-2.16,2.05-.89.51-1.88.77-2.97.77h-6.18v6.69h-2.78ZM344.08,783.79h6c.58,0,1.11-.14,1.61-.42.49-.28.88-.65,1.17-1.11.29-.46.43-.96.43-1.51s-.14-1-.43-1.42c-.29-.42-.68-.75-1.17-1.01-.49-.26-1.03-.38-1.61-.38h-6v5.84Z"/>
    <path d="M358.88,793.13l8.06-17.86h3.09l8.01,17.86h-3.04l-5.28-11.71c-.1-.26-.23-.57-.38-.93s-.31-.74-.47-1.14c-.16-.39-.31-.78-.46-1.17s-.27-.74-.37-1.05l.74-.03c-.14.36-.28.73-.42,1.12-.14.39-.29.78-.45,1.16-.15.38-.31.75-.46,1.11s-.3.7-.43,1.02l-5.28,11.61h-2.86ZM362.4,788.86l1.07-2.68h9.7l.71,2.68h-11.48Z"/>
    <path d="M386.59,793.13v-15.18h-6.12v-2.68h15.21v2.68h-6.3v15.18h-2.78Z"/>
    <path d="M401.52,793.13v-17.86h9.42c1.04,0,1.99.25,2.86.74.87.49,1.57,1.16,2.09,2s.79,1.78.79,2.82-.28,1.99-.83,2.84c-.55.86-1.29,1.54-2.21,2.05-.92.51-1.93.77-3.04.77h-6.3v6.63h-2.78ZM404.3,783.84h6.23c.6,0,1.14-.14,1.63-.41.49-.27.88-.64,1.17-1.1.29-.46.43-.96.43-1.5s-.15-1.06-.46-1.49c-.31-.43-.73-.77-1.26-1.02-.54-.25-1.13-.37-1.77-.37h-5.97v5.89ZM414.15,793.13l-5.51-8.06,2.93-.64,6.02,8.73-3.45-.03Z"/>
    <path d="M424.59,793.13v-17.86h2.78v17.86h-2.78Z"/>
    <path d="M435.31,793.13v-17.86h2.73l7.55,10.26h-1.12l7.58-10.26h2.65v17.86h-2.76v-7.45c0-1.46.03-2.81.1-4.04s.2-2.48.41-3.74l.31,1-6.94,9.11h-1.68l-6.84-9.06.28-1.05c.19,1.23.32,2.46.4,3.69.08,1.23.11,2.6.11,4.1v7.45h-2.78Z"/>
    <path d="M471.16,793.38c-1.46,0-2.8-.23-4.02-.7-1.22-.47-2.28-1.12-3.19-1.95-.91-.83-1.61-1.81-2.11-2.92-.49-1.11-.74-2.32-.74-3.61s.25-2.5.74-3.61c.49-1.11,1.2-2.09,2.11-2.92.91-.83,1.97-1.48,3.19-1.95,1.22-.47,2.56-.7,4.02-.7s2.8.23,4.02.69c1.22.46,2.28,1.11,3.19,1.95.91.84,1.62,1.82,2.12,2.93.5,1.12.75,2.32.75,3.61s-.25,2.5-.75,3.61-1.21,2.09-2.12,2.93c-.91.84-1.97,1.49-3.19,1.95-1.22.46-2.56.69-4.02.69ZM471.16,790.68c1.07,0,2.04-.17,2.92-.5.88-.33,1.64-.79,2.3-1.37.65-.58,1.16-1.26,1.52-2.05.36-.79.54-1.65.54-2.56s-.18-1.77-.54-2.56c-.36-.79-.86-1.48-1.52-2.05-.66-.58-1.42-1.03-2.3-1.37-.88-.33-1.85-.5-2.92-.5s-2.02.17-2.9.5c-.88.33-1.64.78-2.3,1.35-.66.57-1.16,1.25-1.51,2.04s-.52,1.65-.52,2.59.17,1.78.52,2.58c.35.8.85,1.48,1.51,2.05s1.42,1.02,2.3,1.35c.88.33,1.84.5,2.9.5Z"/>
    <path d="M487.65,793.13v-17.86h2.65l13.19,14.6-.26.23c-.07-.48-.13-1-.19-1.56s-.11-1.14-.14-1.74c-.03-.59-.06-1.21-.09-1.85s-.05-1.28-.06-1.93c-.02-.65-.03-1.28-.03-1.91v-5.84h2.76v17.86h-2.68l-13.04-14.06.15-.36c.05.56.1,1.11.14,1.65.04.54.09,1.05.14,1.53.05.49.09.95.12,1.4.03.45.05.88.08,1.29s.04.79.04,1.15v7.4h-2.78Z"/>
    <path d="M513.42,793.13v-17.86h2.78v17.86h-2.78Z"/>
    <path d="M532.84,793.38c-1.46,0-2.8-.23-4.02-.7-1.22-.47-2.28-1.12-3.19-1.95-.91-.83-1.61-1.81-2.11-2.92-.49-1.11-.74-2.32-.74-3.61s.25-2.5.74-3.61c.49-1.11,1.2-2.09,2.11-2.92.91-.83,1.97-1.48,3.19-1.95,1.22-.47,2.56-.7,4.02-.7s2.8.23,4.02.69c1.22.46,2.28,1.11,3.19,1.95.91.84,1.62,1.82,2.12,2.93.5,1.12.75,2.32.75,3.61s-.25,2.5-.75,3.61-1.21,2.09-2.12,2.93c-.91.84-1.97,1.49-3.19,1.95-1.22.46-2.56.69-4.02.69ZM532.84,790.68c1.07,0,2.04-.17,2.92-.5.88-.33,1.64-.79,2.3-1.37.65-.58,1.16-1.26,1.52-2.05.36-.79.54-1.65.54-2.56s-.18-1.77-.54-2.56c-.36-.79-.86-1.48-1.52-2.05-.66-.58-1.42-1.03-2.3-1.37-.88-.33-1.85-.5-2.92-.5s-2.02.17-2.9.5c-.88.33-1.64.78-2.3,1.35-.66.57-1.16,1.25-1.51,2.04s-.52,1.65-.52,2.59.17,1.78.52,2.58c.35.8.85,1.48,1.51,2.05s1.42,1.02,2.3,1.35c.88.33,1.84.5,2.9.5Z"/>
    <path d="M568.62,793.38c-1.36,0-2.65-.21-3.88-.62-1.22-.42-2.31-1.02-3.24-1.81-.94-.79-1.67-1.76-2.21-2.9s-.8-2.42-.8-3.85c0-1.28.26-2.47.79-3.57.53-1.11,1.27-2.07,2.22-2.9.95-.83,2.06-1.47,3.32-1.93,1.26-.46,2.61-.69,4.06-.69,1.16,0,2.24.14,3.25.42,1.01.28,1.91.65,2.71,1.11s1.42.96,1.88,1.51l-1.79,1.96c-.58-.49-1.19-.9-1.84-1.22s-1.32-.58-2.03-.78c-.71-.2-1.43-.29-2.18-.29-1.06,0-2.03.16-2.94.47-.9.32-1.69.76-2.37,1.34-.68.58-1.21,1.25-1.59,2.03s-.57,1.62-.57,2.54c0,1.04.2,1.96.6,2.78.4.82.95,1.49,1.65,2.03.7.54,1.49.95,2.37,1.24.88.29,1.81.43,2.78.43.9,0,1.75-.1,2.55-.29s1.5-.47,2.09-.83c.6-.36,1.06-.78,1.39-1.26.33-.48.48-1,.45-1.54v-.41l.38.49h-6.84v-2.71h9.39c.03.24.06.44.08.6.02.16.03.3.03.41v.29c0,1.29-.24,2.43-.71,3.42-.48.99-1.15,1.82-2.02,2.49-.87.67-1.89,1.18-3.08,1.53-1.18.35-2.48.52-3.89.52Z"/>
    <path d="M582.15,793.13l8.06-17.86h3.09l8.01,17.86h-3.04l-5.28-11.71c-.1-.26-.23-.57-.38-.93s-.31-.74-.47-1.14c-.16-.39-.31-.78-.46-1.17s-.27-.74-.37-1.05l.74-.03c-.14.36-.28.73-.42,1.12-.14.39-.29.78-.45,1.16-.15.38-.31.75-.46,1.11s-.3.7-.43,1.02l-5.28,11.61h-2.86ZM585.67,788.86l1.07-2.68h9.7l.71,2.68h-11.48Z"/>
    <path d="M606.92,793.13v-17.86h9.42c1.04,0,1.99.25,2.86.74.87.49,1.57,1.16,2.09,2s.79,1.78.79,2.82-.28,1.99-.83,2.84c-.55.86-1.29,1.54-2.21,2.05-.92.51-1.93.77-3.04.77h-6.3v6.63h-2.78ZM609.7,783.84h6.23c.6,0,1.14-.14,1.63-.41.49-.27.88-.64,1.17-1.1.29-.46.43-.96.43-1.5s-.15-1.06-.46-1.49c-.31-.43-.73-.77-1.26-1.02-.54-.25-1.13-.37-1.77-.37h-5.97v5.89ZM619.56,793.13l-5.51-8.06,2.93-.64,6.02,8.73-3.45-.03Z"/>
    <path d="M627.67,793.13l8.06-17.86h3.09l8.01,17.86h-3.04l-5.28-11.71c-.1-.26-.23-.57-.38-.93s-.31-.74-.47-1.14c-.16-.39-.31-.78-.46-1.17s-.27-.74-.37-1.05l.74-.03c-.14.36-.28.73-.42,1.12-.14.39-.29.78-.45,1.16-.15.38-.31.75-.46,1.11s-.3.7-.43,1.02l-5.28,11.61h-2.86ZM631.19,788.86l1.07-2.68h9.7l.71,2.68h-11.48Z"/>
    <path d="M652.45,793.13v-17.86h2.65l13.19,14.6-.26.23c-.07-.48-.13-1-.19-1.56s-.11-1.14-.14-1.74c-.03-.59-.06-1.21-.09-1.85s-.05-1.28-.06-1.93c-.02-.65-.03-1.28-.03-1.91v-5.84h2.76v17.86h-2.68l-13.04-14.06.15-.36c.05.56.1,1.11.14,1.65.04.54.09,1.05.14,1.53.05.49.09.95.12,1.4.03.45.05.88.08,1.29s.04.79.04,1.15v7.4h-2.78Z"/>
    <path d="M682.26,793.13v-15.18h-6.12v-2.68h15.21v2.68h-6.3v15.18h-2.78Z"/>
    <path d="M697.36,793.13v-17.86h2.78v17.86h-2.78Z"/>
    <path d="M706.4,793.13v-2.02l12.07-13.63.76.49h-12.17v-2.71h15.21v1.99l-12.02,13.65-.79-.49h13.09v2.71h-16.15Z"/>
    <path d="M726.43,793.13l8.06-17.86h3.09l8.01,17.86h-3.04l-5.28-11.71c-.1-.26-.23-.57-.38-.93s-.31-.74-.47-1.14c-.16-.39-.31-.78-.46-1.17s-.27-.74-.37-1.05l.74-.03c-.14.36-.28.73-.42,1.12-.14.39-.29.78-.45,1.16-.15.38-.31.75-.46,1.11s-.3.7-.43,1.02l-5.28,11.61h-2.86ZM729.95,788.86l1.07-2.68h9.7l.71,2.68h-11.48Z"/>
    <path d="M751.21,793.13v-17.86h8.29c1.5,0,2.83.23,4.01.69,1.17.46,2.17,1.1,2.97,1.91.81.82,1.42,1.76,1.84,2.83.42,1.07.62,2.24.62,3.5s-.21,2.43-.62,3.52-1.03,2.04-1.84,2.85c-.81.81-1.8,1.44-2.97,1.89-1.17.45-2.51.68-4.01.68h-8.29ZM753.99,790.75l-.1-.31h5.49c1.14,0,2.13-.16,2.96-.47.83-.31,1.52-.75,2.07-1.3.54-.55.95-1.21,1.22-1.98s.41-1.6.41-2.5-.14-1.73-.41-2.49-.68-1.42-1.22-1.98c-.54-.56-1.23-1-2.07-1.31-.83-.31-1.82-.47-2.96-.47h-5.56l.18-.26v13.07Z"/>
    <path d="M784.05,793.38c-1.46,0-2.8-.23-4.02-.7-1.22-.47-2.28-1.12-3.19-1.95-.91-.83-1.61-1.81-2.11-2.92-.49-1.11-.74-2.32-.74-3.61s.25-2.5.74-3.61c.49-1.11,1.2-2.09,2.11-2.92.91-.83,1.97-1.48,3.19-1.95,1.22-.47,2.56-.7,4.02-.7s2.8.23,4.02.69c1.22.46,2.28,1.11,3.19,1.95.91.84,1.62,1.82,2.12,2.93.5,1.12.75,2.32.75,3.61s-.25,2.5-.75,3.61-1.21,2.09-2.12,2.93c-.91.84-1.97,1.49-3.19,1.95-1.22.46-2.56.69-4.02.69ZM784.05,790.68c1.07,0,2.04-.17,2.92-.5.88-.33,1.64-.79,2.3-1.37.65-.58,1.16-1.26,1.52-2.05.36-.79.54-1.65.54-2.56s-.18-1.77-.54-2.56c-.36-.79-.86-1.48-1.52-2.05-.66-.58-1.42-1.03-2.3-1.37-.88-.33-1.85-.5-2.92-.5s-2.02.17-2.9.5c-.88.33-1.64.78-2.3,1.35-.66.57-1.16,1.25-1.51,2.04s-.52,1.65-.52,2.59.17,1.78.52,2.58c.35.8.85,1.48,1.51,2.05s1.42,1.02,2.3,1.35c.88.33,1.84.5,2.9.5Z"/>
  </g>
  <g>
    <path d="M264.58,723.1h-30.61l-5.69,14.07h-20.89l31.96-72.4h20.17l32.06,72.4h-21.31l-5.69-14.07ZM258.58,708l-9.31-23.17-9.31,23.17h18.62Z"/>
    <path d="M305.74,736.45c-5.52-1.45-10-3.38-13.45-5.79l6.72-15.1c3.24,2.14,7,3.86,11.27,5.17,4.27,1.31,8.48,1.97,12.62,1.97,7.86,0,11.79-1.97,11.79-5.9,0-2.07-1.12-3.6-3.36-4.6-2.24-1-5.84-2.05-10.81-3.15-5.45-1.17-10-2.43-13.65-3.77-3.66-1.35-6.79-3.5-9.41-6.46-2.62-2.96-3.93-6.96-3.93-12,0-4.41,1.21-8.39,3.62-11.95,2.41-3.55,6.01-6.36,10.81-8.43,4.79-2.07,10.67-3.1,17.63-3.1,4.76,0,9.45.54,14.07,1.6,4.62,1.07,8.69,2.64,12.2,4.71l-6.31,15.2c-6.9-3.72-13.58-5.58-20.06-5.58-4.07,0-7.03.6-8.89,1.81-1.86,1.21-2.79,2.78-2.79,4.71s1.1,3.38,3.31,4.34c2.21.97,5.76,1.97,10.65,3,5.52,1.17,10.08,2.43,13.7,3.77,3.62,1.34,6.76,3.48,9.41,6.41,2.65,2.93,3.98,6.91,3.98,11.94,0,4.34-1.21,8.27-3.62,11.79-2.41,3.52-6.03,6.33-10.86,8.43-4.83,2.1-10.69,3.15-17.58,3.15-5.86,0-11.55-.72-17.06-2.17Z"/>
    <path d="M422.41,721.35v15.82h-58.13v-72.4h56.78v15.82h-36.51v12.2h32.16v15.31h-32.16v13.24h37.85Z"/>
    <path d="M482.19,699.42h18.1v29.99c-4.14,2.97-8.9,5.24-14.27,6.83-5.38,1.59-10.76,2.38-16.13,2.38-7.58,0-14.41-1.6-20.48-4.81-6.07-3.21-10.83-7.67-14.27-13.39-3.45-5.72-5.17-12.2-5.17-19.44s1.72-13.72,5.17-19.44c3.45-5.72,8.24-10.19,14.38-13.39,6.14-3.21,13.06-4.81,20.79-4.81,6.76,0,12.83,1.14,18.2,3.41,5.38,2.27,9.86,5.55,13.45,9.82l-13.03,11.79c-4.9-5.38-10.76-8.07-17.58-8.07-6.21,0-11.21,1.88-15,5.64s-5.69,8.78-5.69,15.05c0,4,.86,7.57,2.59,10.7,1.72,3.14,4.14,5.58,7.24,7.34,3.1,1.76,6.65,2.64,10.65,2.64s7.62-.79,11.07-2.38v-19.86Z"/>
    <path d="M521.64,729.83c-5.97-5.86-8.95-14.17-8.95-24.93v-40.13h20.48v39.51c0,11.58,4.58,17.38,13.76,17.38s13.65-5.79,13.65-17.38v-39.51h20.17v40.13c0,10.76-2.98,19.06-8.95,24.93-5.97,5.86-14.32,8.79-25.08,8.79s-19.12-2.93-25.08-8.79Z"/>
    <path d="M626.26,717.93h-11.17v19.24h-20.48v-72.4h33.1c6.55,0,12.24,1.09,17.06,3.26,4.83,2.17,8.55,5.27,11.17,9.31,2.62,4.03,3.93,8.78,3.93,14.22s-1.23,9.81-3.67,13.7c-2.45,3.9-5.95,6.95-10.5,9.15l15.62,22.75h-21.93l-13.13-19.24ZM635.98,683.7c-2.14-1.86-5.31-2.79-9.51-2.79h-11.38v21.2h11.38c4.2,0,7.38-.91,9.51-2.74,2.14-1.83,3.21-4.43,3.21-7.81s-1.07-6-3.21-7.86Z"/>
    <path d="M719.65,723.1h-30.61l-5.69,14.07h-20.89l31.96-72.4h20.17l32.06,72.4h-21.31l-5.69-14.07ZM713.65,708l-9.31-23.17-9.31,23.17h18.62Z"/>
    <path d="M764.22,681.01h-22.24v-16.24h64.85v16.24h-22.13v56.16h-20.48v-56.16Z"/>
    <path d="M872.61,721.35v15.82h-58.12v-72.4h56.78v15.82h-36.51v12.2h32.16v15.31h-32.16v13.24h37.85Z"/>
  </g>
  <path d="M265.27,846.54c11.26-2.7,22.65-5.04,34.13-7.03,5.73-1.05,11.51-1.89,17.28-2.79,5.79-.8,11.58-1.62,17.39-2.28,11.63-1.41,23.32-2.42,35.04-3.23,5.86-.35,11.73-.74,17.61-.92l8.82-.33,8.83-.15c5.89-.13,11.77-.06,17.67-.05,2.95-.02,5.89.08,8.84.16l8.84.24c5.89.22,11.77.51,17.66.83,5.87.43,11.75.82,17.63,1.29,11.74.97,23.49,2.36,35.15,3.94,11.66,1.64,23.14,3.61,34.41,5.24,44.81,6.74,90.68,6.84,136.04,1.19,22.68-2.75,45.23-6.86,67.57-11.96l8.4-1.89,8.33-2.12,8.35-2.09c1.4-.33,2.78-.73,4.16-1.11l4.15-1.14,8.31-2.28,4.17-1.13c1.38-.39,2.75-.83,4.13-1.23,5.52-1.6,11.02-3.28,16.59-4.83-5.1,2.45-10.28,4.78-15.44,7.19-1.29.59-2.59,1.19-3.89,1.75l-3.95,1.65-7.93,3.27c-2.66,1.06-5.27,2.23-7.98,3.2l-8.09,2.99-8.12,2.96-8.23,2.72c-21.98,7.23-44.68,13.02-67.88,17.16-2.9.5-5.8,1.04-8.71,1.51l-8.77,1.27c-5.84.91-11.75,1.44-17.64,2.11-2.94.36-5.91.55-8.87.79-2.96.23-5.92.46-8.89.65l-8.92.4c-1.49.06-2.97.15-4.46.19l-4.47.08c-2.98.04-5.96.13-8.94.1l-8.94-.14c-2.98-.01-5.96-.2-8.94-.31-2.98-.12-5.96-.24-8.93-.47-11.89-.76-23.8-2.1-35.49-3.8-11.68-1.77-23.04-3.75-34.34-5.46-11.29-1.77-22.62-3.2-34.01-4.48-5.7-.62-11.41-1.16-17.12-1.75l-17.17-1.43c-11.46-.78-22.95-1.53-34.46-1.94-46.06-1.92-92.36-.23-138.89,3.49Z"/>
  <g>
    <path d="M698.3,352.75h-40.62v-13.62c0-64.89-52.79-117.68-117.68-117.68s-117.68,52.79-117.68,117.68v13.62h-40.62c-22,0-39.83,17.83-39.83,39.83v177.7c0,22,17.83,39.83,39.83,39.83h316.6c22,0,39.83-17.83,39.83-39.83v-177.7c0-22-17.83-39.83-39.83-39.83ZM615.68,339.14v13.62h-151.36v-13.62c0-41.73,33.95-75.68,75.68-75.68s75.68,33.95,75.68,75.68ZM605.75,574.79l-17.99-39.2h-96.83l-17.99,39.2h-66.08l101.08-201.76h63.79l101.41,201.76h-67.39Z"/>
    <polygon points="509.91 493.51 568.79 493.51 539.35 428.95 509.91 493.51"/>
  </g>
</svg>