<?xml version="1.0" encoding="UTF-8"?>
<svg xmlns="http://www.w3.org/2000/svg" version="1.1" xmlns:xlink="http://www.w3.org/1999/xlink" viewBox="0 0 1080 1080">
  <!-- Generator: Adobe Illustrator 29.8.4, SVG Export Plug-In . SVG Version: 2.1.1 Build 6)  -->
  <defs>
    <style>
      .st0 {
        fill: url(#Degradado_sin_nombre_101);
      }

      .st0, .st1, .st2, .st3, .st4, .st5, .st6, .st7, .st8, .st9, .st10, .st11 {
        mix-blend-mode: screen;
      }

      .st12 {
        fill: url(#Degradado_sin_nombre_3764);
      }

      .st1 {
        fill: url(#Degradado_sin_nombre_1017);
      }

      .st2 {
        fill: url(#Degradado_sin_nombre_1014);
      }

      .st13 {
        fill: url(#Degradado_sin_nombre_82);
      }

      .st14 {
        fill: url(#Degradado_sin_nombre_3765);
      }

      .st3 {
        fill: url(#Degradado_sin_nombre_10110);
      }

      .st15 {
        fill: url(#Degradado_sin_nombre_3763);
      }

      .st16 {
        fill: #040c1f;
      }

      .st17 {
        fill: url(#Degradado_sin_nombre_355);
      }

      .st18 {
        fill: url(#Degradado_sin_nombre_3761);
      }

      .st4 {
        fill: url(#Degradado_sin_nombre_1015);
      }

      .st19 {
        mix-blend-mode: multiply;
      }

      .st19, .st20 {
        opacity: .4;
      }

      .st21 {
        isolation: isolate;
      }

      .st22 {
        fill: url(#Degradado_sin_nombre_3762);
      }

      .st20 {
        fill: #fff6c7;
      }

      .st23 {
        fill: #965b32;
      }

      .st5 {
        fill: url(#Degradado_sin_nombre_1019);
      }

      .st6 {
        fill: url(#Degradado_sin_nombre_10111);
      }

      .st24 {
        fill: url(#Degradado_sin_nombre_376);
      }

      .st7 {
        fill: url(#Degradado_sin_nombre_1018);
      }

      .st25 {
        fill: url(#Degradado_sin_nombre_3768);
      }

      .st8 {
        fill: url(#Degradado_sin_nombre_1013);
      }

      .st9 {
        fill: url(#Degradado_sin_nombre_1012);
      }

      .st26 {
        fill: url(#Degradado_sin_nombre_3766);
      }

      .st27 {
        fill: #3f1f09;
      }

      .st28 {
        mix-blend-mode: overlay;
        opacity: .6;
      }

      .st29 {
        fill: url(#Degradado_sin_nombre_345);
      }

      .st30 {
        fill: url(#Degradado_sin_nombre_3767);
      }

      .st10 {
        fill: url(#Degradado_sin_nombre_1016);
      }

      .st11 {
        fill: url(#Degradado_sin_nombre_1011);
      }
    </style>
    <linearGradient id="Degradado_sin_nombre_82" data-name="Degradado sin nombre 82" x1="341.87" y1="415.78" x2="738.13" y2="415.78" gradientUnits="userSpaceOnUse">
      <stop offset="0" stop-color="#6e5314"/>
      <stop offset=".18" stop-color="#c6a218"/>
      <stop offset=".35" stop-color="#fff2b0"/>
      <stop offset=".55" stop-color="#c6a23a"/>
      <stop offset=".79" stop-color="#ddc255"/>
      <stop offset="1" stop-color="#3d2c08"/>
    </linearGradient>
    <linearGradient id="Degradado_sin_nombre_355" data-name="Degradado sin nombre 355" x1="540" y1="606.23" x2="540" y2="225.34" gradientUnits="userSpaceOnUse">
      <stop offset="0" stop-color="#fff" stop-opacity="0"/>
      <stop offset=".5" stop-color="#fff" stop-opacity=".9"/>
      <stop offset="1" stop-color="#fff" stop-opacity="0"/>
    </linearGradient>
    <linearGradient id="Degradado_sin_nombre_345" data-name="Degradado sin nombre 345" x1="540" y1="604.28" x2="540" y2="227.28" gradientUnits="userSpaceOnUse">
      <stop offset="0" stop-color="#3f1500" stop-opacity=".9"/>
      <stop offset="1" stop-color="#3f1500" stop-opacity="0"/>
    </linearGradient>
    <radialGradient id="Degradado_sin_nombre_101" data-name="Degradado sin nombre 101" cx="-759.89" cy="2251.4" fx="-759.89" fy="2251.4" r="9.51" gradientTransform="translate(2072.13 -2393.05) rotate(-35.86) scale(3.75 .53)" gradientUnits="userSpaceOnUse">
      <stop offset="0" stop-color="#fff"/>
      <stop offset=".21" stop-color="#adadad"/>
      <stop offset=".21" stop-color="#aeaeae" stop-opacity=".98"/>
      <stop offset=".27" stop-color="#c1c1c1" stop-opacity=".75"/>
      <stop offset=".33" stop-color="#d1d1d1" stop-opacity=".55"/>
      <stop offset=".39" stop-color="#dfdfdf" stop-opacity=".38"/>
      <stop offset=".46" stop-color="#ebebeb" stop-opacity=".24"/>
      <stop offset=".54" stop-color="#f4f4f4" stop-opacity=".13"/>
      <stop offset=".63" stop-color="#fafafa" stop-opacity=".06"/>
      <stop offset=".75" stop-color="#fdfdfd" stop-opacity=".01"/>
      <stop offset="1" stop-color="#fff" stop-opacity="0"/>
    </radialGradient>
    <radialGradient id="Degradado_sin_nombre_1011" data-name="Degradado sin nombre 101" cx="-343.8" cy="-16112.79" fx="-343.8" fy="-16112.79" r="28.55" gradientTransform="translate(7342.23 9715.98) rotate(-35.86) scale(.08 .73)" xlink:href="#Degradado_sin_nombre_101"/>
    <radialGradient id="Degradado_sin_nombre_1012" data-name="Degradado sin nombre 101" cx="359.28" cy="-4731" fx="359.28" fy="-4731" r="19.95" gradientTransform="translate(26352.51 4612.51) rotate(-35.86) scale(.11 3.95) skewX(88.35)" xlink:href="#Degradado_sin_nombre_101"/>
    <radialGradient id="Degradado_sin_nombre_1013" data-name="Degradado sin nombre 101" cx="-1481.5" cy="-17913.94" fx="-1481.5" fy="-17913.94" r="22.7" gradientTransform="translate(112.45 3320.99) rotate(-35.86) scale(.11 .13) skewX(-48.24)" xlink:href="#Degradado_sin_nombre_101"/>
    <radialGradient id="Degradado_sin_nombre_1014" data-name="Degradado sin nombre 101" cx="-2561.4" cy="10222.87" fx="-2561.4" fy="10222.87" r="39.99" gradientTransform="translate(-19798.88 -9142.82) rotate(-35.86) scale(.09 1.91) skewX(85.19)" xlink:href="#Degradado_sin_nombre_101"/>
    <radialGradient id="Degradado_sin_nombre_1015" data-name="Degradado sin nombre 101" cx="-292.21" cy="18783.65" fx="-292.21" fy="18783.65" r="32.94" gradientTransform="translate(3879.9 -7536.87) rotate(-35.86) scale(.16 .23) skewX(-67.87)" xlink:href="#Degradado_sin_nombre_101"/>
    <radialGradient id="Degradado_sin_nombre_1016" data-name="Degradado sin nombre 101" cx="-1566.43" cy="30088.68" fx="-1566.43" fy="30088.68" r="41.24" gradientTransform="translate(-3593.92 -10612.24) rotate(-35.86) scale(.06 .37) skewX(-60.97)" xlink:href="#Degradado_sin_nombre_101"/>
    <radialGradient id="Degradado_sin_nombre_1017" data-name="Degradado sin nombre 101" cx="518.83" cy="6289.34" fx="518.83" fy="6289.34" r="36.42" gradientTransform="translate(-14263.35 5515.22) rotate(-35.86) scale(.29 .69) skewX(82.89)" xlink:href="#Degradado_sin_nombre_101"/>
    <radialGradient id="Degradado_sin_nombre_1018" data-name="Degradado sin nombre 101" cx="215.62" cy="904.23" fx="215.62" fy="904.23" r="34.54" gradientTransform="translate(-237.91 -355.35) rotate(-35.86)" xlink:href="#Degradado_sin_nombre_101"/>
    <radialGradient id="Degradado_sin_nombre_1019" data-name="Degradado sin nombre 101" cx="-547.2" cy="1652.93" fx="-547.2" fy="1652.93" r="25.97" gradientTransform="translate(819.49 -1306.96) rotate(-35.86) scale(2.19 .64)" xlink:href="#Degradado_sin_nombre_101"/>
    <radialGradient id="Degradado_sin_nombre_10110" data-name="Degradado sin nombre 101" cx="-562.17" cy="987.19" fx="-562.17" fy="987.19" r="57.5" gradientTransform="translate(2426.33 262.42) rotate(-.1) scale(3.36 .35)" xlink:href="#Degradado_sin_nombre_101"/>
    <radialGradient id="Degradado_sin_nombre_10111" data-name="Degradado sin nombre 101" cx="-854" cy="-3576.27" fx="-854" fy="-3576.27" r="23.56" gradientTransform="translate(-497.8 3316.6) rotate(89.9) scale(3.36 .35)" xlink:href="#Degradado_sin_nombre_101"/>
    <linearGradient id="Degradado_sin_nombre_376" data-name="Degradado sin nombre 376" x1="234.16" y1="739.58" x2="234.16" y2="663.36" gradientUnits="userSpaceOnUse">
      <stop offset="0" stop-color="#c4a428"/>
      <stop offset=".62" stop-color="#816828"/>
      <stop offset="1" stop-color="#ccab28"/>
    </linearGradient>
    <linearGradient id="Degradado_sin_nombre_3761" data-name="Degradado sin nombre 376" x1="312.18" y1="741.1" x2="312.18" y2="661.84" xlink:href="#Degradado_sin_nombre_376"/>
    <linearGradient id="Degradado_sin_nombre_3762" data-name="Degradado sin nombre 376" x1="385.61" x2="385.61" xlink:href="#Degradado_sin_nombre_376"/>
    <linearGradient id="Degradado_sin_nombre_3763" data-name="Degradado sin nombre 376" x1="462.04" y1="741.1" x2="462.04" y2="661.84" xlink:href="#Degradado_sin_nombre_376"/>
    <linearGradient id="Degradado_sin_nombre_3764" data-name="Degradado sin nombre 376" x1="547.08" y1="741.1" x2="547.08" xlink:href="#Degradado_sin_nombre_376"/>
    <linearGradient id="Degradado_sin_nombre_3765" data-name="Degradado sin nombre 376" x1="632.6" x2="632.6" xlink:href="#Degradado_sin_nombre_376"/>
    <linearGradient id="Degradado_sin_nombre_3766" data-name="Degradado sin nombre 376" x1="713.22" x2="713.22" xlink:href="#Degradado_sin_nombre_376"/>
    <linearGradient id="Degradado_sin_nombre_3767" data-name="Degradado sin nombre 376" x1="786.77" x2="786.77" xlink:href="#Degradado_sin_nombre_376"/>
    <linearGradient id="Degradado_sin_nombre_3768" data-name="Degradado sin nombre 376" x1="859.55" x2="859.55" xlink:href="#Degradado_sin_nombre_376"/>
  </defs>
  <g class="st21">
    <g id="Capa_1">
      <g>
        <g>
          <g>
            <path class="st13" d="M698.3,352.75h-40.62v-13.62c0-64.89-52.79-117.68-117.68-117.68s-117.68,52.79-117.68,117.68v13.62h-40.62c-22,0-39.83,17.83-39.83,39.83v177.7c0,22,17.83,39.83,39.83,39.83h316.6c22,0,39.83-17.83,39.83-39.83v-177.7c0-22-17.83-39.83-39.83-39.83ZM464.32,339.14c0-41.73,33.95-75.68,75.68-75.68s75.68,33.95,75.68,75.68v13.62h-151.36v-13.62Z"/>
            <g class="st28">
              <path class="st17" d="M695.13,354.01h-39.8v-13.34c0-63.59-51.74-115.33-115.33-115.33s-115.33,51.74-115.33,115.33v13.34h-39.8c-21.56,0-39.03,17.48-39.03,39.03v174.15c0,21.56,17.48,39.03,39.03,39.03h310.26c21.56,0,39.03-17.48,39.03-39.03v-174.15c0-21.56-17.48-39.03-39.03-39.03ZM465.83,340.67c0-40.9,33.27-74.17,74.17-74.17s74.17,33.27,74.17,74.17v13.34h-148.34v-13.34Z"/>
            </g>
            <g class="st19">
              <path class="st29" d="M693.55,354.64h-39.4v-13.21c0-62.94-51.21-114.15-114.15-114.15s-114.15,51.21-114.15,114.15v13.21h-39.4c-21.34,0-38.63,17.3-38.63,38.63v172.37c0,21.34,17.3,38.63,38.63,38.63h307.1c21.34,0,38.63-17.3,38.63-38.63v-172.37c0-21.34-17.3-38.63-38.63-38.63ZM466.59,341.43c0-40.48,32.93-73.41,73.41-73.41s73.41,32.93,73.41,73.41v13.21h-146.82v-13.21Z"/>
            </g>
          </g>
          <path class="st20" d="M540,222.45c64.34,0,116.68,52.34,116.68,116.68v14.62h41.62c21.41,0,38.83,17.42,38.83,38.83v177.7c0,21.41-17.42,38.83-38.83,38.83h-316.6c-21.41,0-38.83-17.42-38.83-38.83v-177.7c0-21.41,17.42-38.83,38.83-38.83h41.62v-14.62c0-64.34,52.34-116.68,116.68-116.68M463.32,353.75h153.36v-14.62c0-42.28-34.4-76.68-76.68-76.68s-76.68,34.4-76.68,76.68v14.62M540,221.45c-64.89,0-117.68,52.79-117.68,117.68v13.62h-40.62c-22,0-39.83,17.83-39.83,39.83v177.7c0,22,17.83,39.83,39.83,39.83h316.6c22,0,39.83-17.83,39.83-39.83v-177.7c0-22-17.83-39.83-39.83-39.83h-40.62v-13.62c0-64.89-52.79-117.68-117.68-117.68h0ZM464.32,352.75v-13.62c0-41.73,33.95-75.68,75.68-75.68s75.68,33.95,75.68,75.68v13.62h-151.36Z"/>
          <g>
            <path class="st0" d="M495.48,230.24c1.2,1.66-10.78,12.36-26.75,23.9-15.97,11.54-29.89,19.56-31.08,17.9s10.78-12.36,26.75-23.9c15.97-11.54,29.89-19.56,31.08-17.9Z"/>
            <g>
              <path class="st11" d="M483.28,274.27c-1.02.74-9.33-9.02-18.56-21.8-9.23-12.77-15.89-23.72-14.88-24.46s9.33,9.02,18.56,21.8c9.23,12.77,15.89,23.72,14.88,24.46Z"/>
              <path class="st9" d="M486.26,254.31c-.14.87-9.07.15-19.95-1.6-10.88-1.75-19.59-3.87-19.45-4.74.14-.87,9.07-.15,19.95,1.6,10.88,1.75,19.59,3.87,19.45,4.74Z"/>
              <path class="st8" d="M462.96,273.56c-.98-.16-.17-10.32,1.82-22.7,1.99-12.38,4.4-22.29,5.39-22.13.99.16.17,10.32-1.82,22.7-1.99,12.38-4.4,22.29-5.39,22.13Z"/>
              <path class="st2" d="M430.08,234.8c.72-1.6,17.63,4.41,37.78,13.44,20.15,9.03,35.89,17.65,35.17,19.25-.72,1.61-17.63-4.41-37.78-13.44-20.15-9.03-35.9-17.65-35.18-19.25Z"/>
              <path class="st4" d="M480.03,221.09c1.32.59-3.63,14.53-11.07,31.12-7.44,16.6-14.54,29.57-15.86,28.98-1.32-.59,3.64-14.53,11.07-31.12,7.44-16.6,14.54-29.57,15.86-28.98Z"/>
              <path class="st10" d="M451.88,212.61c1.13-.43,8.62,16.47,16.74,37.75,8.11,21.28,13.77,38.88,12.63,39.31-1.13.43-8.63-16.47-16.74-37.75-8.11-21.28-13.76-38.88-12.63-39.31Z"/>
              <path class="st1" d="M500.59,238.17c.57,1.5-14.2,8.52-32.99,15.68-18.79,7.16-34.49,11.76-35.06,10.26-.57-1.5,14.2-8.51,32.99-15.68,18.79-7.16,34.49-11.76,35.06-10.26Z"/>
            </g>
            <path class="st7" d="M494.55,230.91c11.17,15.46,7.7,37.05-7.76,48.22-15.46,11.17-37.05,7.7-48.22-7.76-11.17-15.46-7.7-37.05,7.76-48.22s37.05-7.7,48.22,7.76Z"/>
            <path class="st5" d="M512.67,217.81c4,5.54-13.4,24.95-38.86,43.35-25.46,18.41-49.35,28.84-53.35,23.3-4-5.54,13.39-24.95,38.86-43.35,25.46-18.41,49.35-28.84,53.35-23.3Z"/>
          </g>
          <path class="st3" d="M733,607.1c.02,10.99-86.38,20.05-192.96,20.24-106.59.19-193.01-8.56-193.03-19.55-.02-10.99,86.38-20.05,192.96-20.25,106.59-.19,193.01,8.56,193.03,19.56Z"/>
          <path class="st16" d="M587.76,535.6h-96.83l-17.99,39.2h-66.08l101.08-201.76h63.79l101.41,201.76h-67.39l-17.99-39.2ZM568.79,493.51l-29.44-64.57-29.44,64.57h58.88Z"/>
          <path class="st27" d="M622.97,352.72h-1v-11.17c0-46.31-36.77-83.99-81.98-83.99s-81.97,37.68-81.97,83.99v10.66h-1v-10.66c0-46.87,37.22-84.99,82.97-84.99s82.98,38.13,82.98,84.99v11.17Z"/>
          <path class="st23" d="M623.86,352.81h-1v-11.3c0-46.85-37.17-84.97-82.86-84.97s-82.86,38.12-82.86,84.97v10.78h-1v-10.78c0-47.4,37.62-85.97,83.86-85.97s83.86,38.57,83.86,85.97v11.3Z"/>
        </g>
        <path class="st6" d="M734.89,526.99c-4.5,0-8.22-35.39-8.29-79.07-.08-43.67,3.51-79.09,8.01-79.09s8.22,35.39,8.3,79.07c.08,43.67-3.51,79.09-8.01,79.1Z"/>
      </g>
      <g>
        <path class="st24" d="M250.06,724.77h-32.23l-5.99,14.81h-21.99l33.64-76.21h21.23l33.75,76.21h-22.43l-5.99-14.81ZM243.75,708.88l-9.8-24.39-9.8,24.39h19.6Z"/>
        <path class="st18" d="M293.39,738.82c-5.81-1.52-10.53-3.55-14.15-6.1l7.08-15.9c3.41,2.25,7.37,4.07,11.87,5.44,4.5,1.38,8.93,2.07,13.28,2.07,8.27,0,12.41-2.07,12.41-6.21,0-2.18-1.18-3.79-3.54-4.85-2.36-1.05-6.15-2.16-11.38-3.32-5.73-1.23-10.53-2.56-14.37-3.97-3.85-1.42-7.15-3.68-9.91-6.81-2.76-3.12-4.14-7.33-4.14-12.63,0-4.64,1.27-8.84,3.81-12.57,2.54-3.74,6.33-6.7,11.38-8.87,5.04-2.18,11.23-3.27,18.56-3.27,5.01,0,9.94.56,14.81,1.69,4.86,1.13,9.15,2.78,12.85,4.95l-6.64,16c-7.26-3.92-14.3-5.88-21.12-5.88-4.28,0-7.4.64-9.36,1.91-1.96,1.27-2.94,2.92-2.94,4.95s1.16,3.56,3.48,4.57c2.32,1.02,6.06,2.07,11.21,3.16,5.81,1.24,10.62,2.56,14.43,3.97,3.81,1.42,7.11,3.67,9.91,6.75,2.79,3.09,4.19,7.28,4.19,12.58,0,4.57-1.27,8.71-3.81,12.41-2.54,3.7-6.35,6.66-11.43,8.87-5.08,2.21-11.25,3.32-18.51,3.32-6.17,0-12.16-.76-17.96-2.29Z"/>
        <path class="st22" d="M416.21,722.92v16.66h-61.19v-76.21h59.77v16.66h-38.43v12.85h33.86v16.11h-33.86v13.94h39.85Z"/>
        <path class="st15" d="M479.14,699.84h19.05v31.57c-4.35,3.12-9.36,5.52-15.03,7.19-5.66,1.67-11.32,2.5-16.98,2.5-7.99,0-15.17-1.69-21.56-5.06-6.39-3.38-11.4-8.07-15.02-14.1-3.63-6.02-5.44-12.85-5.44-20.47s1.81-14.44,5.44-20.47c3.63-6.02,8.67-10.72,15.13-14.1,6.46-3.38,13.75-5.06,21.88-5.06,7.11,0,13.5,1.2,19.16,3.59,5.66,2.4,10.38,5.84,14.15,10.34l-13.72,12.41c-5.16-5.66-11.32-8.49-18.51-8.49-6.53,0-11.8,1.98-15.79,5.93-3.99,3.96-5.99,9.24-5.99,15.84,0,4.21.91,7.97,2.72,11.27,1.81,3.3,4.35,5.88,7.62,7.73,3.27,1.85,7,2.78,11.21,2.78s8.02-.83,11.65-2.5v-20.9Z"/>
        <path class="st12" d="M520.67,731.85c-6.28-6.17-9.42-14.92-9.42-26.24v-42.24h21.56v41.59c0,12.19,4.83,18.29,14.48,18.29s14.37-6.1,14.37-18.29v-41.59h21.23v42.24c0,11.32-3.14,20.07-9.42,26.24-6.28,6.17-15.08,9.25-26.4,9.25s-20.13-3.08-26.4-9.25Z"/>
        <path class="st14" d="M630.8,719.33h-11.76v20.25h-21.56v-76.21h34.84c6.89,0,12.88,1.14,17.96,3.43,5.08,2.29,9,5.55,11.76,9.8,2.76,4.25,4.14,9.24,4.14,14.97s-1.29,10.33-3.87,14.43c-2.58,4.1-6.26,7.31-11.05,9.64l16.44,23.95h-23.08l-13.83-20.25ZM641.04,683.29c-2.25-1.96-5.59-2.94-10.02-2.94h-11.98v22.32h11.98c4.43,0,7.77-.96,10.02-2.89,2.25-1.92,3.37-4.66,3.37-8.22s-1.13-6.32-3.37-8.27Z"/>
        <path class="st26" d="M729.12,724.77h-32.23l-5.99,14.81h-21.99l33.64-76.21h21.23l33.75,76.21h-22.43l-5.99-14.81ZM722.8,708.88l-9.8-24.39-9.8,24.39h19.6Z"/>
        <path class="st30" d="M776.05,680.46h-23.41v-17.09h68.27v17.09h-23.3v59.12h-21.56v-59.12Z"/>
        <path class="st25" d="M890.15,722.92v16.66h-61.19v-76.21h59.77v16.66h-38.43v12.85h33.86v16.11h-33.86v13.94h39.85Z"/>
      </g>
    </g>
  </g>
</svg>