<?xml version="1.0" encoding="UTF-8"?>
<svg id="Capa_1" xmlns="http://www.w3.org/2000/svg" version="1.1" viewBox="0 0 1080 442.72">
  <!-- Generator: Adobe Illustrator 29.8.4, SVG Export Plug-In . SVG Version: 2.1.1 Build 6)  -->
  <g>
    <path d="M445.84,301v-12.66h-5.11v-2.23h12.68v2.23h-5.26v12.66h-2.32Z"/>
    <path d="M464.99,301.13c-1.38,0-2.59-.29-3.63-.88-1.04-.59-1.86-1.39-2.45-2.4-.59-1.01-.88-2.17-.88-3.46v-8.3h2.32v8.17c0,.88.21,1.67.63,2.37.42.7.98,1.25,1.68,1.65.7.4,1.48.6,2.33.6.91,0,1.72-.2,2.44-.6.72-.4,1.28-.95,1.7-1.65s.63-1.49.63-2.37v-8.17h2.19v8.3c0,1.29-.29,2.44-.88,3.46-.59,1.01-1.4,1.82-2.45,2.4-1.04.59-2.25.88-3.63.88Z"/>
    <path d="M486.95,301v-14.9h7.75c.85,0,1.63.2,2.34.61.71.4,1.28.95,1.7,1.65s.64,1.47.64,2.32-.23,1.68-.68,2.39c-.45.72-1.05,1.29-1.8,1.71-.75.43-1.57.64-2.48.64h-5.15v5.58h-2.32ZM489.27,293.21h5c.48,0,.93-.12,1.34-.35.41-.23.74-.54.98-.93.24-.38.36-.8.36-1.26s-.12-.83-.36-1.18c-.24-.35-.57-.63-.98-.84-.41-.21-.86-.32-1.34-.32h-5v4.87Z"/>
    <path d="M501.62,301l6.73-14.9h2.57l6.68,14.9h-2.53l-4.41-9.77c-.09-.21-.19-.47-.32-.78s-.26-.62-.39-.95c-.13-.33-.26-.65-.38-.98s-.22-.62-.31-.87l.62-.02c-.11.3-.23.61-.35.94-.12.33-.25.65-.37.97-.13.32-.26.63-.38.93s-.25.58-.36.85l-4.41,9.68h-2.38ZM504.55,297.44l.89-2.23h8.09l.6,2.23h-9.58Z"/>
    <path d="M524.73,301v-12.66h-5.11v-2.23h12.68v2.23h-5.26v12.66h-2.32Z"/>
    <path d="M537.18,301v-14.9h7.85c.86,0,1.66.21,2.38.62.72.41,1.31.97,1.75,1.67s.66,1.49.66,2.35-.23,1.66-.69,2.37c-.46.72-1.08,1.29-1.84,1.71-.77.43-1.61.64-2.53.64h-5.26v5.53h-2.32ZM539.5,293.25h5.19c.5,0,.95-.11,1.36-.34.41-.23.74-.53.98-.92.24-.38.36-.8.36-1.26s-.13-.88-.38-1.25c-.26-.36-.61-.65-1.05-.85-.45-.21-.94-.31-1.48-.31h-4.98v4.92ZM547.71,301l-4.6-6.73,2.45-.53,5.02,7.28-2.87-.02Z"/>
    <path d="M556.42,301v-14.9h2.32v14.9h-2.32Z"/>
    <path d="M565.36,301v-14.9h2.28l6.3,8.56h-.94l6.32-8.56h2.21v14.9h-2.3v-6.21c0-1.22.03-2.34.08-3.37s.17-2.07.34-3.12l.26.83-5.79,7.6h-1.4l-5.7-7.56.23-.87c.16,1.02.27,2.05.33,3.08.06,1.03.1,2.17.1,3.42v6.21h-2.32Z"/>
    <path d="M595.26,301.21c-1.22,0-2.34-.19-3.35-.58-1.01-.39-1.9-.93-2.66-1.63-.76-.7-1.34-1.51-1.76-2.44-.41-.93-.62-1.93-.62-3.01s.21-2.08.62-3.01c.41-.93,1-1.74,1.76-2.44.76-.69,1.65-1.24,2.66-1.63,1.01-.39,2.13-.58,3.35-.58s2.34.19,3.35.57c1.01.38,1.9.93,2.66,1.63.76.7,1.35,1.52,1.77,2.45.42.93.63,1.93.63,3.01s-.21,2.08-.63,3.01-1.01,1.74-1.77,2.45c-.76.7-1.65,1.24-2.66,1.63-1.01.38-2.13.57-3.35.57ZM595.26,298.95c.89,0,1.71-.14,2.44-.41.73-.28,1.37-.66,1.92-1.14.55-.48.97-1.05,1.27-1.71.3-.66.45-1.37.45-2.14s-.15-1.48-.45-2.14c-.3-.66-.72-1.23-1.27-1.71-.55-.48-1.18-.86-1.92-1.14-.73-.28-1.54-.41-2.44-.41s-1.69.14-2.42.41c-.73.28-1.37.65-1.92,1.13-.55.48-.97,1.04-1.26,1.7s-.44,1.38-.44,2.16.14,1.48.44,2.15c.29.67.71,1.24,1.26,1.71.55.48,1.18.85,1.92,1.13.73.28,1.54.41,2.42.41Z"/>
    <path d="M609.01,301v-14.9h2.21l11,12.17-.21.19c-.06-.4-.11-.83-.16-1.3s-.09-.95-.12-1.45c-.03-.5-.05-1.01-.07-1.54s-.04-1.07-.05-1.61c-.01-.54-.02-1.07-.02-1.6v-4.87h2.3v14.9h-2.23l-10.87-11.73.13-.3c.04.47.08.93.12,1.37.04.45.07.87.12,1.28.04.4.07.79.1,1.17.02.38.04.73.06,1.08s.03.66.03.96v6.17h-2.32Z"/>
    <path d="M630.5,301v-14.9h2.32v14.9h-2.32Z"/>
    <path d="M646.7,301.21c-1.22,0-2.34-.19-3.35-.58-1.01-.39-1.9-.93-2.66-1.63-.76-.7-1.34-1.51-1.76-2.44-.41-.93-.62-1.93-.62-3.01s.21-2.08.62-3.01c.41-.93,1-1.74,1.76-2.44.76-.69,1.65-1.24,2.66-1.63,1.01-.39,2.13-.58,3.35-.58s2.34.19,3.35.57c1.01.38,1.9.93,2.66,1.63.76.7,1.35,1.52,1.77,2.45.42.93.63,1.93.63,3.01s-.21,2.08-.63,3.01-1.01,1.74-1.77,2.45c-.76.7-1.65,1.24-2.66,1.63-1.01.38-2.13.57-3.35.57ZM646.7,298.95c.89,0,1.71-.14,2.44-.41.73-.28,1.37-.66,1.92-1.14.55-.48.97-1.05,1.27-1.71.3-.66.45-1.37.45-2.14s-.15-1.48-.45-2.14c-.3-.66-.72-1.23-1.27-1.71-.55-.48-1.18-.86-1.92-1.14-.73-.28-1.54-.41-2.44-.41s-1.69.14-2.42.41c-.73.28-1.37.65-1.92,1.13-.55.48-.97,1.04-1.26,1.7s-.44,1.38-.44,2.16.14,1.48.44,2.15c.29.67.71,1.24,1.26,1.71s1.18.85,1.92,1.13c.73.28,1.54.41,2.42.41Z"/>
    <path d="M676.53,301.21c-1.14,0-2.21-.17-3.23-.52-1.02-.35-1.92-.85-2.7-1.51-.78-.66-1.39-1.47-1.84-2.42s-.67-2.02-.67-3.21c0-1.06.22-2.06.66-2.98.44-.92,1.06-1.73,1.85-2.42.79-.69,1.72-1.22,2.77-1.61,1.05-.38,2.18-.57,3.38-.57.96,0,1.87.12,2.71.35.84.23,1.6.54,2.26.93s1.18.8,1.56,1.26l-1.49,1.64c-.48-.41-.99-.75-1.53-1.02s-1.1-.49-1.69-.65c-.59-.16-1.2-.25-1.82-.25-.88,0-1.7.13-2.45.39-.75.26-1.41.64-1.98,1.12-.57.48-1.01,1.05-1.33,1.69s-.48,1.35-.48,2.12c0,.87.17,1.64.5,2.32.33.68.79,1.25,1.37,1.69.58.45,1.24.79,1.98,1.03.74.24,1.51.36,2.32.36.75,0,1.46-.08,2.13-.24s1.25-.39,1.75-.69c.5-.3.88-.65,1.16-1.05.28-.4.4-.83.37-1.29v-.34l.32.4h-5.7v-2.26h7.83c.03.2.05.36.06.5.01.13.02.25.02.34v.24c0,1.08-.2,2.03-.6,2.85-.4.82-.96,1.51-1.68,2.08-.72.56-1.58.99-2.56,1.28-.99.29-2.07.44-3.25.44Z"/>
    <path d="M687.81,301l6.73-14.9h2.57l6.68,14.9h-2.53l-4.41-9.77c-.09-.21-.19-.47-.32-.78s-.26-.62-.39-.95c-.13-.33-.26-.65-.38-.98s-.22-.62-.31-.87l.62-.02c-.11.3-.23.61-.35.94-.12.33-.25.65-.37.97-.13.32-.26.63-.38.93s-.25.58-.36.85l-4.41,9.68h-2.38ZM690.75,297.44l.89-2.23h8.09l.6,2.23h-9.58Z"/>
    <path d="M708.48,301v-14.9h7.85c.86,0,1.66.21,2.38.62.72.41,1.31.97,1.75,1.67s.66,1.49.66,2.35-.23,1.66-.69,2.37c-.46.72-1.08,1.29-1.84,1.71-.77.43-1.61.64-2.53.64h-5.26v5.53h-2.32ZM710.8,293.25h5.19c.5,0,.95-.11,1.36-.34.41-.23.74-.53.98-.92.24-.38.36-.8.36-1.26s-.13-.88-.38-1.25c-.26-.36-.61-.65-1.05-.85-.45-.21-.94-.31-1.48-.31h-4.98v4.92ZM719.01,301l-4.6-6.73,2.45-.53,5.02,7.28-2.87-.02Z"/>
    <path d="M725.78,301l6.73-14.9h2.57l6.68,14.9h-2.53l-4.41-9.77c-.09-.21-.19-.47-.32-.78s-.26-.62-.39-.95c-.13-.33-.26-.65-.38-.98s-.22-.62-.31-.87l.62-.02c-.11.3-.23.61-.35.94-.12.33-.25.65-.37.97-.13.32-.26.63-.38.93s-.25.58-.36.85l-4.41,9.68h-2.38ZM728.72,297.44l.89-2.23h8.09l.6,2.23h-9.58Z"/>
    <path d="M746.44,301v-14.9h2.21l11,12.17-.21.19c-.06-.4-.11-.83-.16-1.3s-.09-.95-.12-1.45c-.03-.5-.05-1.01-.07-1.54s-.04-1.07-.05-1.61c-.01-.54-.02-1.07-.02-1.6v-4.87h2.3v14.9h-2.23l-10.87-11.73.13-.3c.04.47.08.93.12,1.37.04.45.07.87.12,1.28.04.4.07.79.1,1.17.02.38.04.73.06,1.08s.03.66.03.96v6.17h-2.32Z"/>
    <path d="M771.3,301v-12.66h-5.11v-2.23h12.68v2.23h-5.26v12.66h-2.32Z"/>
    <path d="M783.9,301v-14.9h2.32v14.9h-2.32Z"/>
    <path d="M791.43,301v-1.68l10.07-11.37.64.4h-10.15v-2.26h12.68v1.66l-10.02,11.39-.66-.4h10.92v2.26h-13.47Z"/>
    <path d="M808.14,301l6.73-14.9h2.57l6.68,14.9h-2.53l-4.41-9.77c-.09-.21-.19-.47-.32-.78s-.26-.62-.39-.95c-.13-.33-.26-.65-.38-.98s-.22-.62-.31-.87l.62-.02c-.11.3-.23.61-.35.94-.12.33-.25.65-.37.97-.13.32-.26.63-.38.93s-.25.58-.36.85l-4.41,9.68h-2.38ZM811.08,297.44l.89-2.23h8.09l.6,2.23h-9.58Z"/>
    <path d="M828.81,301v-14.9h6.92c1.25,0,2.36.19,3.34.57.98.38,1.81.92,2.48,1.6.67.68,1.18,1.47,1.53,2.36.35.89.52,1.87.52,2.92s-.17,2.03-.52,2.94c-.35.91-.86,1.7-1.53,2.37-.67.67-1.5,1.2-2.48,1.58-.98.38-2.09.56-3.34.56h-6.92ZM831.13,299.02l-.08-.26h4.58c.95,0,1.77-.13,2.47-.39.7-.26,1.27-.62,1.72-1.09.45-.46.79-1.01,1.02-1.65s.34-1.33.34-2.09-.11-1.44-.34-2.08-.57-1.18-1.02-1.65c-.45-.47-1.03-.83-1.72-1.1-.69-.26-1.52-.39-2.47-.39h-4.64l.15-.21v10.9Z"/>
    <path d="M856.2,301.21c-1.22,0-2.34-.19-3.35-.58-1.01-.39-1.9-.93-2.66-1.63-.76-.7-1.34-1.51-1.76-2.44-.41-.93-.62-1.93-.62-3.01s.21-2.08.62-3.01c.41-.93,1-1.74,1.76-2.44.76-.69,1.65-1.24,2.66-1.63,1.01-.39,2.13-.58,3.35-.58s2.34.19,3.35.57c1.01.38,1.9.93,2.66,1.63.76.7,1.35,1.52,1.77,2.45.42.93.63,1.93.63,3.01s-.21,2.08-.63,3.01c-.42.93-1.01,1.74-1.77,2.45-.76.7-1.65,1.24-2.66,1.63-1.01.38-2.13.57-3.35.57ZM856.2,298.95c.89,0,1.71-.14,2.44-.41.73-.28,1.37-.66,1.92-1.14.55-.48.97-1.05,1.27-1.71.3-.66.45-1.37.45-2.14s-.15-1.48-.45-2.14c-.3-.66-.72-1.23-1.27-1.71-.55-.48-1.18-.86-1.92-1.14-.73-.28-1.54-.41-2.44-.41s-1.69.14-2.42.41c-.73.28-1.37.65-1.92,1.13-.55.48-.97,1.04-1.26,1.7s-.44,1.38-.44,2.16.14,1.48.44,2.15c.29.67.71,1.24,1.26,1.71.55.48,1.18.85,1.92,1.13.73.28,1.54.41,2.42.41Z"/>
  </g>
  <path d="M848.28,318.31c-1.05.35-2.08.74-3.13,1.08l-3.16.99-6.3,2-3.14,1c-1.05.34-2.09.68-3.15.97l-6.33,1.83-6.31,1.86-6.36,1.66c-16.93,4.48-34.01,8.09-51.2,10.51-34.37,4.96-69.13,4.88-103.09-1.05-8.54-1.43-17.24-3.16-26.07-4.6-8.84-1.39-17.74-2.61-26.64-3.46-4.45-.41-8.91-.75-13.36-1.13-4.46-.28-8.92-.53-13.38-.73l-6.7-.21c-2.23-.07-4.46-.16-6.7-.14-4.47-.01-8.93-.07-13.39.05l-6.69.14-6.68.29c-4.45.15-8.9.5-13.34.8-8.88.71-17.74,1.6-26.55,2.84-4.41.58-8.8,1.3-13.18,2-4.37.79-8.75,1.53-13.09,2.45-8.7,1.75-17.33,3.8-25.87,6.17,35.26-3.27,70.34-4.75,105.25-3.06,8.72.35,17.43,1.01,26.11,1.7l13.01,1.26c4.33.51,8.66.99,12.97,1.53,8.63,1.13,17.21,2.39,25.77,3.94,8.57,1.5,17.17,3.24,26.02,4.79,8.85,1.5,17.88,2.68,26.89,3.34,2.25.2,4.51.3,6.77.41,2.26.09,4.51.26,6.77.27l6.78.13c2.26.02,4.52-.05,6.77-.09l3.39-.07c1.13-.04,2.25-.11,3.38-.16l6.76-.35c2.25-.16,4.49-.36,6.74-.57,2.24-.22,4.49-.38,6.72-.69,4.46-.58,8.94-1.05,13.37-1.85l6.65-1.12c2.21-.42,4.4-.89,6.6-1.33,17.58-3.63,34.79-8.72,51.44-15.06l6.24-2.39,6.15-2.6,6.13-2.63c2.05-.85,4.03-1.87,6.05-2.81l6.01-2.87,2.99-1.45c.99-.5,1.97-1.02,2.95-1.54,3.91-2.11,7.83-4.16,11.7-6.31-4.22,1.37-8.39,2.83-12.57,4.24Z"/>
  <g>
    <path d="M383.04,176.43h-28.63v-9.6c0-45.74-37.21-82.94-82.94-82.94s-82.94,37.21-82.94,82.94v9.6h-28.63c-15.5,0-28.07,12.57-28.07,28.07v125.25c0,15.5,12.57,28.07,28.07,28.07h223.14c15.5,0,28.07-12.57,28.07-28.07v-125.25c0-15.5-12.57-28.07-28.07-28.07ZM324.81,166.84v9.6h-106.68v-9.6c0-29.41,23.93-53.34,53.34-53.34s53.34,23.93,53.34,53.34ZM317.81,332.93l-12.68-27.63h-68.25l-12.68,27.63h-46.57l71.24-142.2h44.96l71.47,142.2h-47.49Z"/>
    <polygon points="250.26 275.64 291.76 275.64 271.01 230.14 250.26 275.64"/>
  </g>
  <g>
    <path d="M484.35,248.17h-23.35l-4.34,10.73h-15.93l24.37-55.21h15.38l24.45,55.21h-16.25l-4.34-10.73ZM479.77,236.66l-7.1-17.67-7.1,17.67h14.2Z"/>
    <path d="M515.74,258.35c-4.21-1.1-7.63-2.58-10.25-4.42l5.13-11.52c2.47,1.63,5.34,2.95,8.6,3.94,3.26,1,6.47,1.5,9.62,1.5,5.99,0,8.99-1.5,8.99-4.5,0-1.58-.86-2.75-2.56-3.51-1.71-.76-4.46-1.56-8.24-2.41-4.15-.89-7.63-1.85-10.41-2.88-2.79-1.03-5.18-2.67-7.18-4.93-2-2.26-3-5.31-3-9.15,0-3.36.92-6.4,2.76-9.11,1.84-2.71,4.59-4.85,8.24-6.43,3.65-1.58,8.14-2.37,13.45-2.37,3.63,0,7.2.41,10.73,1.22,3.52.81,6.63,2.01,9.31,3.59l-4.81,11.59c-5.26-2.84-10.36-4.26-15.3-4.26-3.1,0-5.36.46-6.78,1.38-1.42.92-2.13,2.12-2.13,3.59s.84,2.58,2.52,3.31c1.68.74,4.39,1.5,8.12,2.29,4.21.89,7.69,1.85,10.45,2.88,2.76,1.03,5.15,2.66,7.18,4.89,2.02,2.24,3.04,5.27,3.04,9.11,0,3.31-.92,6.31-2.76,8.99-1.84,2.68-4.6,4.83-8.28,6.43-3.68,1.6-8.15,2.41-13.41,2.41-4.47,0-8.81-.55-13.01-1.66Z"/>
    <path d="M604.71,246.83v12.07h-44.33v-55.21h43.3v12.07h-27.84v9.31h24.53v11.67h-24.53v10.1h28.87Z"/>
    <path d="M650.3,230.11h13.8v22.87c-3.16,2.26-6.78,4-10.89,5.21-4.1,1.21-8.2,1.81-12.31,1.81-5.78,0-10.99-1.22-15.62-3.67-4.63-2.45-8.26-5.85-10.89-10.21-2.63-4.36-3.94-9.31-3.94-14.83s1.31-10.46,3.94-14.83c2.63-4.36,6.28-7.77,10.96-10.21,4.68-2.44,9.96-3.67,15.85-3.67,5.15,0,9.78.87,13.88,2.6,4.1,1.73,7.52,4.23,10.25,7.49l-9.94,8.99c-3.73-4.1-8.2-6.15-13.41-6.15-4.73,0-8.55,1.43-11.44,4.3-2.89,2.87-4.34,6.69-4.34,11.48,0,3.05.66,5.77,1.97,8.16,1.31,2.39,3.16,4.26,5.52,5.6,2.37,1.34,5.07,2.01,8.12,2.01s5.81-.6,8.44-1.81v-15.14Z"/>
    <path d="M680.4,253.3c-4.55-4.47-6.82-10.81-6.82-19.01v-30.6h15.62v30.13c0,8.83,3.5,13.25,10.49,13.25s10.41-4.42,10.41-13.25v-30.13h15.38v30.6c0,8.2-2.28,14.54-6.82,19.01-4.55,4.47-10.92,6.7-19.13,6.7s-14.58-2.23-19.13-6.7Z"/>
    <path d="M760.18,244.23h-8.52v14.67h-15.62v-55.21h25.24c5,0,9.33.83,13.01,2.48,3.68,1.66,6.52,4.02,8.52,7.1,2,3.08,3,6.69,3,10.85s-.93,7.48-2.8,10.45c-1.87,2.97-4.54,5.3-8.01,6.98l11.91,17.35h-16.72l-10.02-14.67ZM767.59,218.12c-1.63-1.42-4.05-2.13-7.26-2.13h-8.68v16.17h8.68c3.21,0,5.63-.7,7.26-2.09,1.63-1.39,2.44-3.38,2.44-5.96s-.82-4.57-2.44-5.99Z"/>
    <path d="M831.41,248.17h-23.35l-4.34,10.73h-15.93l24.37-55.21h15.38l24.45,55.21h-16.25l-4.34-10.73ZM826.83,236.66l-7.1-17.67-7.1,17.67h14.2Z"/>
    <path d="M865.4,216.07h-16.96v-12.38h49.46v12.38h-16.88v42.83h-15.62v-42.83Z"/>
    <path d="M948.06,246.83v12.07h-44.33v-55.21h43.3v12.07h-27.84v9.31h24.53v11.67h-24.53v10.1h28.87Z"/>
  </g>
</svg>