<?xml version="1.0" encoding="UTF-8"?>
<svg xmlns="http://www.w3.org/2000/svg" version="1.1" xmlns:xlink="http://www.w3.org/1999/xlink" viewBox="0 0 1080 1080">
  <!-- Generator: Adobe Illustrator 29.8.4, SVG Export Plug-In . SVG Version: 2.1.1 Build 6)  -->
  <defs>
    <style>
      .st0 {
        fill: url(#Degradado_sin_nombre_101);
      }

      .st0, .st1, .st2, .st3, .st4, .st5, .st6, .st7, .st8, .st9, .st10, .st11, .st12 {
        mix-blend-mode: screen;
      }

      .st13 {
        fill: url(#Degradado_sin_nombre_3764);
      }

      .st1 {
        fill: url(#Degradado_sin_nombre_1017);
      }

      .st2 {
        fill: url(#Degradado_sin_nombre_1014);
      }

      .st14 {
        fill: url(#Degradado_sin_nombre_82);
      }

      .st15 {
        fill: url(#Degradado_sin_nombre_3451);
      }

      .st16 {
        fill: #fff;
      }

      .st17 {
        fill: url(#Degradado_sin_nombre_3765);
      }

      .st3 {
        fill: url(#Degradado_sin_nombre_10110);
      }

      .st18 {
        fill: url(#Degradado_sin_nombre_3763);
      }

      .st19 {
        fill: url(#Degradado_sin_nombre_3551);
      }

      .st4 {
        fill: url(#Degradado_sin_nombre_120);
      }

      .st20 {
        fill: #040c1f;
      }

      .st21 {
        fill: url(#Degradado_sin_nombre_3761);
      }

      .st5 {
        fill: url(#Degradado_sin_nombre_1015);
      }

      .st22, .st23, .st24 {
        opacity: .4;
      }

      .st22, .st24 {
        mix-blend-mode: multiply;
      }

      .st25 {
        isolation: isolate;
      }

      .st26 {
        fill: url(#Degradado_sin_nombre_3762);
      }

      .st23 {
        fill: #fff6c7;
      }

      .st27 {
        fill: #965b32;
      }

      .st6 {
        fill: url(#Degradado_sin_nombre_1019);
      }

      .st7 {
        fill: url(#Degradado_sin_nombre_10111);
      }

      .st24 {
        fill: url(#Degradado_sin_nombre_345);
      }

      .st28 {
        fill: url(#Degradado_sin_nombre_427);
      }

      .st29 {
        fill: url(#Degradado_sin_nombre_376);
      }

      .st8 {
        fill: url(#Degradado_sin_nombre_1018);
      }

      .st30 {
        fill: url(#Degradado_sin_nombre_3768);
      }

      .st9 {
        fill: url(#Degradado_sin_nombre_1013);
      }

      .st10 {
        fill: url(#Degradado_sin_nombre_1012);
      }

      .st31 {
        fill: url(#Degradado_sin_nombre_3766);
      }

      .st32 {
        fill: #3f1f09;
      }

      .st33, .st34 {
        mix-blend-mode: overlay;
        opacity: .6;
      }

      .st35 {
        fill: url(#Degradado_sin_nombre_3767);
      }

      .st11 {
        fill: url(#Degradado_sin_nombre_1016);
      }

      .st34 {
        fill: url(#Degradado_sin_nombre_355);
      }

      .st12 {
        fill: url(#Degradado_sin_nombre_1011);
      }
    </style>
    <radialGradient id="Degradado_sin_nombre_427" data-name="Degradado sin nombre 427" cx="549" cy="837.85" fx="549" fy="837.85" r="199.33" gradientUnits="userSpaceOnUse">
      <stop offset="0" stop-color="#6e5314"/>
      <stop offset=".18" stop-color="#c6a23a"/>
      <stop offset=".35" stop-color="#fff2b0"/>
      <stop offset=".55" stop-color="#c6a23a"/>
      <stop offset=".75" stop-color="#8a6a1f"/>
      <stop offset="1" stop-color="#3d2c08"/>
    </radialGradient>
    <linearGradient id="Degradado_sin_nombre_355" data-name="Degradado sin nombre 355" x1="274.27" y1="837.85" x2="823.73" y2="837.85" gradientUnits="userSpaceOnUse">
      <stop offset="0" stop-color="#fff" stop-opacity="0"/>
      <stop offset=".5" stop-color="#fff" stop-opacity=".9"/>
      <stop offset="1" stop-color="#fff" stop-opacity="0"/>
    </linearGradient>
    <linearGradient id="Degradado_sin_nombre_345" data-name="Degradado sin nombre 345" x1="277.07" y1="837.85" x2="820.93" y2="837.85" gradientUnits="userSpaceOnUse">
      <stop offset="0" stop-color="#3f1500" stop-opacity=".9"/>
      <stop offset="1" stop-color="#3f1500" stop-opacity="0"/>
    </linearGradient>
    <linearGradient id="Degradado_sin_nombre_82" data-name="Degradado sin nombre 82" x1="341.87" y1="415.78" x2="738.13" y2="415.78" gradientUnits="userSpaceOnUse">
      <stop offset="0" stop-color="#6e5314"/>
      <stop offset=".18" stop-color="#c6a218"/>
      <stop offset=".35" stop-color="#fff2b0"/>
      <stop offset=".55" stop-color="#c6a23a"/>
      <stop offset=".79" stop-color="#ddc255"/>
      <stop offset="1" stop-color="#3d2c08"/>
    </linearGradient>
    <linearGradient id="Degradado_sin_nombre_3551" data-name="Degradado sin nombre 355" x1="540" y1="606.23" x2="540" y2="225.34" xlink:href="#Degradado_sin_nombre_355"/>
    <linearGradient id="Degradado_sin_nombre_3451" data-name="Degradado sin nombre 345" x1="540" y1="604.28" x2="540" y2="227.28" xlink:href="#Degradado_sin_nombre_345"/>
    <radialGradient id="Degradado_sin_nombre_101" data-name="Degradado sin nombre 101" cx="-1662.07" cy="3985.01" fx="-1662.07" fy="3985.01" r="9.51" gradientTransform="translate(4272.23 -5125.82) rotate(-35.86) scale(3.75 .53)" gradientUnits="userSpaceOnUse">
      <stop offset="0" stop-color="#fff"/>
      <stop offset=".21" stop-color="#adadad"/>
      <stop offset=".21" stop-color="#aeaeae" stop-opacity=".98"/>
      <stop offset=".27" stop-color="#c1c1c1" stop-opacity=".75"/>
      <stop offset=".33" stop-color="#d1d1d1" stop-opacity=".55"/>
      <stop offset=".39" stop-color="#dfdfdf" stop-opacity=".38"/>
      <stop offset=".46" stop-color="#ebebeb" stop-opacity=".24"/>
      <stop offset=".54" stop-color="#f4f4f4" stop-opacity=".13"/>
      <stop offset=".63" stop-color="#fafafa" stop-opacity=".06"/>
      <stop offset=".75" stop-color="#fdfdfd" stop-opacity=".01"/>
      <stop offset="1" stop-color="#fff" stop-opacity="0"/>
    </radialGradient>
    <radialGradient id="Degradado_sin_nombre_1011" data-name="Degradado sin nombre 101" cx="-820.43" cy="-27829.68" fx="-820.43" fy="-27829.68" r="28.55" gradientTransform="translate(12356.7 16588.04) rotate(-35.86) scale(.08 .73)" xlink:href="#Degradado_sin_nombre_101"/>
    <radialGradient id="Degradado_sin_nombre_1012" data-name="Degradado sin nombre 101" cx="344.69" cy="-7026.41" fx="344.69" fy="-7026.41" r="19.95" gradientTransform="translate(38929.21 6716.16) rotate(-35.86) scale(.11 3.95) skewX(88.35)" xlink:href="#Degradado_sin_nombre_101"/>
    <radialGradient id="Degradado_sin_nombre_1013" data-name="Degradado sin nombre 101" cx="-2815.09" cy="-32184.5" fx="-2815.09" fy="-32184.5" r="22.7" gradientTransform="translate(-155.69 5756.4) rotate(-35.86) scale(.11 .13) skewX(-48.24)" xlink:href="#Degradado_sin_nombre_101"/>
    <radialGradient id="Degradado_sin_nombre_1014" data-name="Degradado sin nombre 101" cx="-4762.56" cy="16137.19" fx="-4762.56" fy="16137.19" r="39.99" gradientTransform="translate(-31469.72 -14616.26) rotate(-35.86) scale(.09 1.91) skewX(85.19)" xlink:href="#Degradado_sin_nombre_101"/>
    <radialGradient id="Degradado_sin_nombre_1015" data-name="Degradado sin nombre 101" cx="-972.66" cy="31982.39" fx="-972.66" fy="31982.39" r="32.94" gradientTransform="translate(6339.06 -13053.16) rotate(-35.86) scale(.16 .23) skewX(-67.87)" xlink:href="#Degradado_sin_nombre_101"/>
    <radialGradient id="Degradado_sin_nombre_1016" data-name="Degradado sin nombre 101" cx="-3126.57" cy="50294.8" fx="-3126.57" fy="50294.8" r="41.24" gradientTransform="translate(-6298.06 -17923.98) rotate(-35.86) scale(.06 .37) skewX(-60.97)" xlink:href="#Degradado_sin_nombre_101"/>
    <radialGradient id="Degradado_sin_nombre_1017" data-name="Degradado sin nombre 101" cx="443.39" cy="11437.46" fx="443.39" fy="11437.46" r="36.42" gradientTransform="translate(-26200.95 9737.73) rotate(-35.86) scale(.29 .69) skewX(82.89)" xlink:href="#Degradado_sin_nombre_101"/>
    <radialGradient id="Degradado_sin_nombre_1018" data-name="Degradado sin nombre 101" cx="-2.55" cy="1578.43" fx="-2.55" fy="1578.43" r="34.54" gradientTransform="translate(-456.08 -1029.55) rotate(-35.86)" xlink:href="#Degradado_sin_nombre_101"/>
    <radialGradient id="Degradado_sin_nombre_1019" data-name="Degradado sin nombre 101" cx="-1272.31" cy="3068.13" fx="-1272.31" fy="3068.13" r="25.97" gradientTransform="translate(1577.26 -2970.31) rotate(-35.86) scale(2.19 .64)" xlink:href="#Degradado_sin_nombre_101"/>
    <radialGradient id="Degradado_sin_nombre_10110" data-name="Degradado sin nombre 101" cx="-1370.14" cy="993.14" fx="-1370.14" fy="993.14" r="57.5" gradientTransform="translate(5138.32 255.52) rotate(-.1) scale(3.36 .35)" xlink:href="#Degradado_sin_nombre_101"/>
    <radialGradient id="Degradado_sin_nombre_10111" data-name="Degradado sin nombre 101" cx="-2004.21" cy="-6901.57" fx="-2004.21" fy="-6901.57" r="23.56" gradientTransform="translate(-1641.73 7179.43) rotate(89.9) scale(3.36 .35)" xlink:href="#Degradado_sin_nombre_101"/>
    <radialGradient id="Degradado_sin_nombre_120" data-name="Degradado sin nombre 120" cx="-1237.97" cy="1053.6" fx="-1237.97" fy="1053.6" r="44.04" gradientTransform="translate(3985.28 296.43) rotate(6.73) scale(2.76 .9)" gradientUnits="userSpaceOnUse">
      <stop offset="0" stop-color="#fff"/>
      <stop offset=".21" stop-color="#adadad"/>
      <stop offset=".21" stop-color="#aeaeae" stop-opacity=".98"/>
      <stop offset=".27" stop-color="#c1c1c1" stop-opacity=".75"/>
      <stop offset=".33" stop-color="#d1d1d1" stop-opacity=".55"/>
      <stop offset=".39" stop-color="#dfdfdf" stop-opacity=".38"/>
      <stop offset=".46" stop-color="#ebebeb" stop-opacity=".24"/>
      <stop offset=".54" stop-color="#f4f4f4" stop-opacity=".13"/>
      <stop offset=".63" stop-color="#fafafa" stop-opacity=".06"/>
      <stop offset=".75" stop-color="#fdfdfd" stop-opacity=".01"/>
      <stop offset="1" stop-color="#fff" stop-opacity="0"/>
    </radialGradient>
    <linearGradient id="Degradado_sin_nombre_376" data-name="Degradado sin nombre 376" x1="234.16" y1="739.58" x2="234.16" y2="663.36" gradientUnits="userSpaceOnUse">
      <stop offset="0" stop-color="#c4a428"/>
      <stop offset=".62" stop-color="#816828"/>
      <stop offset="1" stop-color="#ccab28"/>
    </linearGradient>
    <linearGradient id="Degradado_sin_nombre_3761" data-name="Degradado sin nombre 376" x1="312.18" y1="741.1" x2="312.18" y2="661.84" xlink:href="#Degradado_sin_nombre_376"/>
    <linearGradient id="Degradado_sin_nombre_3762" data-name="Degradado sin nombre 376" x1="385.61" x2="385.61" xlink:href="#Degradado_sin_nombre_376"/>
    <linearGradient id="Degradado_sin_nombre_3763" data-name="Degradado sin nombre 376" x1="462.04" y1="741.1" x2="462.04" y2="661.84" xlink:href="#Degradado_sin_nombre_376"/>
    <linearGradient id="Degradado_sin_nombre_3764" data-name="Degradado sin nombre 376" x1="547.08" y1="741.1" x2="547.08" xlink:href="#Degradado_sin_nombre_376"/>
    <linearGradient id="Degradado_sin_nombre_3765" data-name="Degradado sin nombre 376" x1="632.6" x2="632.6" xlink:href="#Degradado_sin_nombre_376"/>
    <linearGradient id="Degradado_sin_nombre_3766" data-name="Degradado sin nombre 376" x1="713.22" x2="713.22" xlink:href="#Degradado_sin_nombre_376"/>
    <linearGradient id="Degradado_sin_nombre_3767" data-name="Degradado sin nombre 376" x1="786.77" x2="786.77" xlink:href="#Degradado_sin_nombre_376"/>
    <linearGradient id="Degradado_sin_nombre_3768" data-name="Degradado sin nombre 376" x1="859.55" x2="859.55" xlink:href="#Degradado_sin_nombre_376"/>
  </defs>
  <g class="st25">
    <g id="Capa_1">
      <g>
        <path class="st20" d="M291.99,793.13v-15.18h-6.12v-2.68h15.21v2.68h-6.3v15.18h-2.78Z"/>
        <path class="st20" d="M314.96,793.28c-1.65,0-3.1-.35-4.35-1.06-1.25-.71-2.23-1.67-2.93-2.88-.71-1.22-1.06-2.6-1.06-4.15v-9.95h2.78v9.8c0,1.06.25,2,.75,2.85.5.84,1.17,1.5,2.02,1.98.84.48,1.77.71,2.79.71,1.09,0,2.06-.24,2.92-.71.86-.48,1.54-1.14,2.04-1.98s.75-1.79.75-2.85v-9.8h2.63v9.95c0,1.55-.35,2.93-1.06,4.15-.71,1.22-1.68,2.18-2.93,2.88-1.25.71-2.7,1.06-4.35,1.06Z"/>
        <path class="st20" d="M341.3,793.13v-17.86h9.29c1.02,0,1.96.24,2.81.73.85.48,1.53,1.14,2.04,1.98s.77,1.76.77,2.78-.27,2.01-.82,2.87c-.54.86-1.26,1.54-2.16,2.05-.89.51-1.88.77-2.97.77h-6.18v6.69h-2.78ZM344.08,783.79h6c.58,0,1.11-.14,1.61-.42.49-.28.88-.65,1.17-1.11.29-.46.43-.96.43-1.51s-.14-1-.43-1.42c-.29-.42-.68-.75-1.17-1.01-.49-.26-1.03-.38-1.61-.38h-6v5.84Z"/>
        <path class="st20" d="M358.88,793.13l8.06-17.86h3.09l8.01,17.86h-3.04l-5.28-11.71c-.1-.26-.23-.57-.38-.93s-.31-.74-.47-1.14c-.16-.39-.31-.78-.46-1.17s-.27-.74-.37-1.05l.74-.03c-.14.36-.28.73-.42,1.12-.14.39-.29.78-.45,1.16-.15.38-.31.75-.46,1.11s-.3.7-.43,1.02l-5.28,11.61h-2.86ZM362.4,788.86l1.07-2.68h9.7l.71,2.68h-11.48Z"/>
        <path class="st20" d="M386.59,793.13v-15.18h-6.12v-2.68h15.21v2.68h-6.3v15.18h-2.78Z"/>
        <path class="st20" d="M401.52,793.13v-17.86h9.42c1.04,0,1.99.25,2.86.74.87.49,1.57,1.16,2.09,2s.79,1.78.79,2.82-.28,1.99-.83,2.84c-.55.86-1.29,1.54-2.21,2.05-.92.51-1.93.77-3.04.77h-6.3v6.63h-2.78ZM404.3,783.84h6.23c.6,0,1.14-.14,1.63-.41.49-.27.88-.64,1.17-1.1.29-.46.43-.96.43-1.5s-.15-1.06-.46-1.49c-.31-.43-.73-.77-1.26-1.02-.54-.25-1.13-.37-1.77-.37h-5.97v5.89ZM414.15,793.13l-5.51-8.06,2.93-.64,6.02,8.73-3.45-.03Z"/>
        <path class="st20" d="M424.59,793.13v-17.86h2.78v17.86h-2.78Z"/>
        <path class="st20" d="M435.31,793.13v-17.86h2.73l7.55,10.26h-1.12l7.58-10.26h2.65v17.86h-2.76v-7.45c0-1.46.03-2.81.1-4.04s.2-2.48.41-3.74l.31,1-6.94,9.11h-1.68l-6.84-9.06.28-1.05c.19,1.23.32,2.46.4,3.69.08,1.23.11,2.6.11,4.1v7.45h-2.78Z"/>
        <path class="st20" d="M471.16,793.38c-1.46,0-2.8-.23-4.02-.7-1.22-.47-2.28-1.12-3.19-1.95-.91-.83-1.61-1.81-2.11-2.92-.49-1.11-.74-2.32-.74-3.61s.25-2.5.74-3.61c.49-1.11,1.2-2.09,2.11-2.92.91-.83,1.97-1.48,3.19-1.95,1.22-.47,2.56-.7,4.02-.7s2.8.23,4.02.69c1.22.46,2.28,1.11,3.19,1.95.91.84,1.62,1.82,2.12,2.93.5,1.12.75,2.32.75,3.61s-.25,2.5-.75,3.61-1.21,2.09-2.12,2.93c-.91.84-1.97,1.49-3.19,1.95-1.22.46-2.56.69-4.02.69ZM471.16,790.68c1.07,0,2.04-.17,2.92-.5.88-.33,1.64-.79,2.3-1.37.65-.58,1.16-1.26,1.52-2.05.36-.79.54-1.65.54-2.56s-.18-1.77-.54-2.56c-.36-.79-.86-1.48-1.52-2.05-.66-.58-1.42-1.03-2.3-1.37-.88-.33-1.85-.5-2.92-.5s-2.02.17-2.9.5c-.88.33-1.64.78-2.3,1.35-.66.57-1.16,1.25-1.51,2.04s-.52,1.65-.52,2.59.17,1.78.52,2.58c.35.8.85,1.48,1.51,2.05s1.42,1.02,2.3,1.35c.88.33,1.84.5,2.9.5Z"/>
        <path class="st20" d="M487.65,793.13v-17.86h2.65l13.19,14.6-.26.23c-.07-.48-.13-1-.19-1.56s-.11-1.14-.14-1.74c-.03-.59-.06-1.21-.09-1.85s-.05-1.28-.06-1.93c-.02-.65-.03-1.28-.03-1.91v-5.84h2.76v17.86h-2.68l-13.04-14.06.15-.36c.05.56.1,1.11.14,1.65.04.54.09,1.05.14,1.53.05.49.09.95.12,1.4.03.45.05.88.08,1.29s.04.79.04,1.15v7.4h-2.78Z"/>
        <path class="st20" d="M513.42,793.13v-17.86h2.78v17.86h-2.78Z"/>
        <path class="st20" d="M532.84,793.38c-1.46,0-2.8-.23-4.02-.7-1.22-.47-2.28-1.12-3.19-1.95-.91-.83-1.61-1.81-2.11-2.92-.49-1.11-.74-2.32-.74-3.61s.25-2.5.74-3.61c.49-1.11,1.2-2.09,2.11-2.92.91-.83,1.97-1.48,3.19-1.95,1.22-.47,2.56-.7,4.02-.7s2.8.23,4.02.69c1.22.46,2.28,1.11,3.19,1.95.91.84,1.62,1.82,2.12,2.93.5,1.12.75,2.32.75,3.61s-.25,2.5-.75,3.61-1.21,2.09-2.12,2.93c-.91.84-1.97,1.49-3.19,1.95-1.22.46-2.56.69-4.02.69ZM532.84,790.68c1.07,0,2.04-.17,2.92-.5.88-.33,1.64-.79,2.3-1.37.65-.58,1.16-1.26,1.52-2.05.36-.79.54-1.65.54-2.56s-.18-1.77-.54-2.56c-.36-.79-.86-1.48-1.52-2.05-.66-.58-1.42-1.03-2.3-1.37-.88-.33-1.85-.5-2.92-.5s-2.02.17-2.9.5c-.88.33-1.64.78-2.3,1.35-.66.57-1.16,1.25-1.51,2.04s-.52,1.65-.52,2.59.17,1.78.52,2.58c.35.8.85,1.48,1.51,2.05s1.42,1.02,2.3,1.35c.88.33,1.84.5,2.9.5Z"/>
        <path class="st20" d="M568.62,793.38c-1.36,0-2.65-.21-3.88-.62-1.22-.42-2.31-1.02-3.24-1.81-.94-.79-1.67-1.76-2.21-2.9s-.8-2.42-.8-3.85c0-1.28.26-2.47.79-3.57.53-1.11,1.27-2.07,2.22-2.9.95-.83,2.06-1.47,3.32-1.93,1.26-.46,2.61-.69,4.06-.69,1.16,0,2.24.14,3.25.42,1.01.28,1.91.65,2.71,1.11s1.42.96,1.88,1.51l-1.79,1.96c-.58-.49-1.19-.9-1.84-1.22s-1.32-.58-2.03-.78c-.71-.2-1.43-.29-2.18-.29-1.06,0-2.03.16-2.94.47-.9.32-1.69.76-2.37,1.34-.68.58-1.21,1.25-1.59,2.03s-.57,1.62-.57,2.54c0,1.04.2,1.96.6,2.78.4.82.95,1.49,1.65,2.03.7.54,1.49.95,2.37,1.24.88.29,1.81.43,2.78.43.9,0,1.75-.1,2.55-.29s1.5-.47,2.09-.83c.6-.36,1.06-.78,1.39-1.26.33-.48.48-1,.45-1.54v-.41l.38.49h-6.84v-2.71h9.39c.03.24.06.44.08.6.02.16.03.3.03.41v.29c0,1.29-.24,2.43-.71,3.42-.48.99-1.15,1.82-2.02,2.49-.87.67-1.89,1.18-3.08,1.53-1.18.35-2.48.52-3.89.52Z"/>
        <path class="st20" d="M582.15,793.13l8.06-17.86h3.09l8.01,17.86h-3.04l-5.28-11.71c-.1-.26-.23-.57-.38-.93s-.31-.74-.47-1.14c-.16-.39-.31-.78-.46-1.17s-.27-.74-.37-1.05l.74-.03c-.14.36-.28.73-.42,1.12-.14.39-.29.78-.45,1.16-.15.38-.31.75-.46,1.11s-.3.7-.43,1.02l-5.28,11.61h-2.86ZM585.67,788.86l1.07-2.68h9.7l.71,2.68h-11.48Z"/>
        <path class="st20" d="M606.92,793.13v-17.86h9.42c1.04,0,1.99.25,2.86.74.87.49,1.57,1.16,2.09,2s.79,1.78.79,2.82-.28,1.99-.83,2.84c-.55.86-1.29,1.54-2.21,2.05-.92.51-1.93.77-3.04.77h-6.3v6.63h-2.78ZM609.7,783.84h6.23c.6,0,1.14-.14,1.63-.41.49-.27.88-.64,1.17-1.1.29-.46.43-.96.43-1.5s-.15-1.06-.46-1.49c-.31-.43-.73-.77-1.26-1.02-.54-.25-1.13-.37-1.77-.37h-5.97v5.89ZM619.56,793.13l-5.51-8.06,2.93-.64,6.02,8.73-3.45-.03Z"/>
        <path class="st20" d="M627.67,793.13l8.06-17.86h3.09l8.01,17.86h-3.04l-5.28-11.71c-.1-.26-.23-.57-.38-.93s-.31-.74-.47-1.14c-.16-.39-.31-.78-.46-1.17s-.27-.74-.37-1.05l.74-.03c-.14.36-.28.73-.42,1.12-.14.39-.29.78-.45,1.16-.15.38-.31.75-.46,1.11s-.3.7-.43,1.02l-5.28,11.61h-2.86ZM631.19,788.86l1.07-2.68h9.7l.71,2.68h-11.48Z"/>
        <path class="st20" d="M652.45,793.13v-17.86h2.65l13.19,14.6-.26.23c-.07-.48-.13-1-.19-1.56s-.11-1.14-.14-1.74c-.03-.59-.06-1.21-.09-1.85s-.05-1.28-.06-1.93c-.02-.65-.03-1.28-.03-1.91v-5.84h2.76v17.86h-2.68l-13.04-14.06.15-.36c.05.56.1,1.11.14,1.65.04.54.09,1.05.14,1.53.05.49.09.95.12,1.4.03.45.05.88.08,1.29s.04.79.04,1.15v7.4h-2.78Z"/>
        <path class="st20" d="M682.26,793.13v-15.18h-6.12v-2.68h15.21v2.68h-6.3v15.18h-2.78Z"/>
        <path class="st20" d="M697.36,793.13v-17.86h2.78v17.86h-2.78Z"/>
        <path class="st20" d="M706.4,793.13v-2.02l12.07-13.63.76.49h-12.17v-2.71h15.21v1.99l-12.02,13.65-.79-.49h13.09v2.71h-16.15Z"/>
        <path class="st20" d="M726.43,793.13l8.06-17.86h3.09l8.01,17.86h-3.04l-5.28-11.71c-.1-.26-.23-.57-.38-.93s-.31-.74-.47-1.14c-.16-.39-.31-.78-.46-1.17s-.27-.74-.37-1.05l.74-.03c-.14.36-.28.73-.42,1.12-.14.39-.29.78-.45,1.16-.15.38-.31.75-.46,1.11s-.3.7-.43,1.02l-5.28,11.61h-2.86ZM729.95,788.86l1.07-2.68h9.7l.71,2.68h-11.48Z"/>
        <path class="st20" d="M751.21,793.13v-17.86h8.29c1.5,0,2.83.23,4.01.69,1.17.46,2.17,1.1,2.97,1.91.81.82,1.42,1.76,1.84,2.83.42,1.07.62,2.24.62,3.5s-.21,2.43-.62,3.52-1.03,2.04-1.84,2.85c-.81.81-1.8,1.44-2.97,1.89-1.17.45-2.51.68-4.01.68h-8.29ZM753.99,790.75l-.1-.31h5.49c1.14,0,2.13-.16,2.96-.47.83-.31,1.52-.75,2.07-1.3.54-.55.95-1.21,1.22-1.98s.41-1.6.41-2.5-.14-1.73-.41-2.49-.68-1.42-1.22-1.98c-.54-.56-1.23-1-2.07-1.31-.83-.31-1.82-.47-2.96-.47h-5.56l.18-.26v13.07Z"/>
        <path class="st20" d="M784.05,793.38c-1.46,0-2.8-.23-4.02-.7-1.22-.47-2.28-1.12-3.19-1.95-.91-.83-1.61-1.81-2.11-2.92-.49-1.11-.74-2.32-.74-3.61s.25-2.5.74-3.61c.49-1.11,1.2-2.09,2.11-2.92.91-.83,1.97-1.48,3.19-1.95,1.22-.47,2.56-.7,4.02-.7s2.8.23,4.02.69c1.22.46,2.28,1.11,3.19,1.95.91.84,1.62,1.82,2.12,2.93.5,1.12.75,2.32.75,3.61s-.25,2.5-.75,3.61-1.21,2.09-2.12,2.93c-.91.84-1.97,1.49-3.19,1.95-1.22.46-2.56.69-4.02.69ZM784.05,790.68c1.07,0,2.04-.17,2.92-.5.88-.33,1.64-.79,2.3-1.37.65-.58,1.16-1.26,1.52-2.05.36-.79.54-1.65.54-2.56s-.18-1.77-.54-2.56c-.36-.79-.86-1.48-1.52-2.05-.66-.58-1.42-1.03-2.3-1.37-.88-.33-1.85-.5-2.92-.5s-2.02.17-2.9.5c-.88.33-1.64.78-2.3,1.35-.66.57-1.16,1.25-1.51,2.04s-.52,1.65-.52,2.59.17,1.78.52,2.58c.35.8.85,1.48,1.51,2.05s1.42,1.02,2.3,1.35c.88.33,1.84.5,2.9.5Z"/>
      </g>
      <g>
        <path class="st28" d="M268.66,848.13c11.49-3.2,23.12-5.96,34.83-8.31,5.85-1.24,11.74-2.23,17.63-3.3,5.9-.94,11.81-1.91,17.75-2.7,11.86-1.67,23.79-2.87,35.75-3.82,5.98-.41,11.97-.87,17.97-1.08l9-.39,9.01-.18c6.01-.16,12.02-.08,18.03-.06,3.01-.02,6.01.09,9.02.19l9.02.29c6.01.27,12.02.6,18.02.98,5.99.51,11.99.97,17.99,1.52,11.98,1.15,23.97,2.79,35.87,4.66,11.89,1.94,23.61,4.27,35.11,6.19,45.72,7.97,92.53,8.09,138.81,1.41,23.15-3.25,46.15-8.11,68.95-14.15l8.57-2.24,8.5-2.5,8.53-2.47c1.43-.39,2.83-.86,4.24-1.31l4.23-1.35,8.48-2.7,4.25-1.33c1.41-.46,2.8-.98,4.21-1.45,5.63-1.9,11.24-3.87,16.93-5.71-5.21,2.9-10.49,5.66-15.76,8.5-1.32.7-2.64,1.41-3.97,2.07l-4.03,1.95-8.09,3.86c-2.71,1.26-5.38,2.64-8.14,3.78l-8.25,3.53-8.28,3.5-8.4,3.22c-22.42,8.55-45.59,15.4-69.27,20.29-2.96.59-5.92,1.23-8.89,1.79l-8.95,1.5c-5.96,1.07-11.99,1.71-18,2.49-3,.42-6.03.65-9.05.94-3.02.28-6.04.55-9.07.77l-9.1.47c-1.52.07-3.03.17-4.55.22l-4.56.09c-3.04.05-6.08.15-9.12.12l-9.12-.17c-3.04-.01-6.08-.24-9.12-.37-3.04-.15-6.08-.28-9.12-.55-12.13-.89-24.29-2.48-36.21-4.5-11.92-2.09-23.51-4.43-35.04-6.46-11.53-2.09-23.08-3.78-34.71-5.3-5.81-.73-11.64-1.37-17.47-2.06l-17.52-1.69c-11.7-.93-23.42-1.81-35.16-2.29-47-2.27-94.24-.28-141.73,4.12Z"/>
        <path class="st34" d="M274.27,847.92c11.26-3.13,22.65-5.84,34.13-8.15,5.73-1.21,11.51-2.19,17.28-3.23,5.79-.93,11.58-1.88,17.39-2.64,11.63-1.63,23.32-2.81,35.04-3.75,5.86-.4,11.73-.86,17.61-1.06l8.82-.39,8.83-.18c5.89-.15,11.77-.08,17.67-.06,2.95-.02,5.89.09,8.84.19l8.84.28c5.89.26,11.77.59,17.66.96,5.87.5,11.75.95,17.63,1.49,11.74,1.13,23.49,2.73,35.15,4.57,11.66,1.9,23.14,4.18,34.41,6.07,44.81,7.81,90.68,7.92,136.04,1.38,22.68-3.19,45.23-7.95,67.57-13.86l8.4-2.19,8.33-2.45,8.35-2.42c1.4-.38,2.78-.84,4.16-1.28l4.15-1.33,8.31-2.64,4.17-1.31c1.38-.45,2.75-.96,4.13-1.42,5.52-1.86,11.02-3.8,16.59-5.6-5.1,2.84-10.28,5.54-15.44,8.33-1.29.68-2.59,1.38-3.89,2.03l-3.95,1.91-7.93,3.79c-2.66,1.23-5.27,2.58-7.98,3.71l-8.09,3.46-8.12,3.43-8.23,3.15c-21.98,8.37-44.68,15.09-67.88,19.88-2.9.58-5.8,1.2-8.71,1.75l-8.77,1.47c-5.84,1.05-11.75,1.67-17.64,2.44-2.94.42-5.91.63-8.87.92-2.96.27-5.92.54-8.89.75l-8.92.47c-1.49.07-2.97.17-4.46.22l-4.47.09c-2.98.05-5.96.15-8.94.12l-8.94-.17c-2.98-.01-5.96-.23-8.94-.36-2.98-.14-5.96-.27-8.93-.54-11.89-.88-23.8-2.43-35.49-4.41-11.68-2.05-23.04-4.34-34.34-6.33-11.29-2.05-22.62-3.7-34.01-5.19-5.7-.72-11.41-1.34-17.12-2.02l-17.17-1.66c-11.46-.91-22.95-1.77-34.46-2.24-46.06-2.23-92.36-.27-138.89,4.04Z"/>
        <path class="st24" d="M277.07,847.82c11.15-3.1,22.42-5.78,33.79-8.06,5.67-1.2,11.39-2.17,17.1-3.2,5.73-.92,11.46-1.86,17.22-2.62,11.51-1.62,23.08-2.78,34.68-3.71,5.8-.4,11.61-.85,17.43-1.05l8.73-.38,8.74-.18c5.83-.15,11.65-.07,17.49-.06,2.92-.02,5.83.09,8.74.18l8.75.28c5.83.26,11.65.58,17.48.95,5.81.49,11.63.94,17.45,1.48,11.62,1.12,23.25,2.7,34.79,4.52,11.54,1.88,22.9,4.14,34.05,6.01,44.35,7.73,89.76,7.84,134.65,1.37,22.45-3.15,44.77-7.87,66.88-13.72l8.31-2.17,8.24-2.43,8.27-2.4c1.39-.38,2.75-.83,4.11-1.27l4.1-1.31,8.22-2.62,4.13-1.29c1.37-.44,2.72-.95,4.08-1.41,5.46-1.84,10.91-3.76,16.42-5.54-5.05,2.81-10.18,5.49-15.28,8.24-1.28.68-2.56,1.36-3.85,2.01l-3.91,1.89-7.85,3.75c-2.63,1.22-5.22,2.56-7.9,3.67l-8.01,3.43-8.03,3.4-8.15,3.12c-21.75,8.29-44.22,14.94-67.19,19.68-2.87.58-5.74,1.19-8.62,1.73l-8.68,1.46c-5.78,1.04-11.63,1.66-17.46,2.42-2.91.41-5.85.63-8.78.91-2.93.27-5.86.53-8.8.74l-8.83.46c-1.47.07-2.94.17-4.42.21l-4.42.09c-2.95.05-5.9.14-8.85.12l-8.85-.16c-2.95-.01-5.9-.23-8.85-.36-2.95-.14-5.9-.27-8.84-.53-11.77-.87-23.56-2.41-35.12-4.36-11.56-2.03-22.8-4.3-33.99-6.26-11.18-2.03-22.39-3.66-33.66-5.14-5.64-.71-11.29-1.33-16.95-2l-16.99-1.64c-11.35-.9-22.71-1.76-34.11-2.22-45.59-2.2-91.41-.27-137.47,4Z"/>
      </g>
      <g>
        <g>
          <g>
            <path class="st14" d="M698.3,352.75h-40.62v-13.62c0-64.89-52.79-117.68-117.68-117.68s-117.68,52.79-117.68,117.68v13.62h-40.62c-22,0-39.83,17.83-39.83,39.83v177.7c0,22,17.83,39.83,39.83,39.83h316.6c22,0,39.83-17.83,39.83-39.83v-177.7c0-22-17.83-39.83-39.83-39.83ZM464.32,339.14c0-41.73,33.95-75.68,75.68-75.68s75.68,33.95,75.68,75.68v13.62h-151.36v-13.62Z"/>
            <g class="st33">
              <path class="st19" d="M695.13,354.01h-39.8v-13.34c0-63.59-51.74-115.33-115.33-115.33s-115.33,51.74-115.33,115.33v13.34h-39.8c-21.56,0-39.03,17.48-39.03,39.03v174.15c0,21.56,17.48,39.03,39.03,39.03h310.26c21.56,0,39.03-17.48,39.03-39.03v-174.15c0-21.56-17.48-39.03-39.03-39.03ZM465.83,340.67c0-40.9,33.27-74.17,74.17-74.17s74.17,33.27,74.17,74.17v13.34h-148.34v-13.34Z"/>
            </g>
            <g class="st22">
              <path class="st15" d="M693.55,354.64h-39.4v-13.21c0-62.94-51.21-114.15-114.15-114.15s-114.15,51.21-114.15,114.15v13.21h-39.4c-21.34,0-38.63,17.3-38.63,38.63v172.37c0,21.34,17.3,38.63,38.63,38.63h307.1c21.34,0,38.63-17.3,38.63-38.63v-172.37c0-21.34-17.3-38.63-38.63-38.63ZM466.59,341.43c0-40.48,32.93-73.41,73.41-73.41s73.41,32.93,73.41,73.41v13.21h-146.82v-13.21Z"/>
            </g>
          </g>
          <path class="st23" d="M540,222.45c64.34,0,116.68,52.34,116.68,116.68v14.62h41.62c21.41,0,38.83,17.42,38.83,38.83v177.7c0,21.41-17.42,38.83-38.83,38.83h-316.6c-21.41,0-38.83-17.42-38.83-38.83v-177.7c0-21.41,17.42-38.83,38.83-38.83h41.62v-14.62c0-64.34,52.34-116.68,116.68-116.68M463.32,353.75h153.36v-14.62c0-42.28-34.4-76.68-76.68-76.68s-76.68,34.4-76.68,76.68v14.62M540,221.45c-64.89,0-117.68,52.79-117.68,117.68v13.62h-40.62c-22,0-39.83,17.83-39.83,39.83v177.7c0,22,17.83,39.83,39.83,39.83h316.6c22,0,39.83-17.83,39.83-39.83v-177.7c0-22-17.83-39.83-39.83-39.83h-40.62v-13.62c0-64.89-52.79-117.68-117.68-117.68h0ZM464.32,352.75v-13.62c0-41.73,33.95-75.68,75.68-75.68s75.68,33.95,75.68,75.68v13.62h-151.36Z"/>
          <g>
            <path class="st0" d="M495.48,230.24c1.2,1.66-10.78,12.36-26.75,23.9-15.97,11.54-29.89,19.56-31.08,17.9s10.78-12.36,26.75-23.9c15.97-11.54,29.89-19.56,31.08-17.9Z"/>
            <g>
              <path class="st12" d="M483.28,274.27c-1.02.74-9.33-9.02-18.56-21.8-9.23-12.77-15.89-23.72-14.88-24.46s9.33,9.02,18.56,21.8c9.23,12.77,15.89,23.72,14.88,24.46Z"/>
              <path class="st10" d="M486.26,254.31c-.14.87-9.07.15-19.95-1.6-10.88-1.75-19.59-3.87-19.45-4.74.14-.87,9.07-.15,19.95,1.6,10.88,1.75,19.59,3.87,19.45,4.74Z"/>
              <path class="st9" d="M462.96,273.56c-.98-.16-.17-10.32,1.82-22.7,1.99-12.38,4.4-22.29,5.39-22.13.99.16.17,10.32-1.82,22.7-1.99,12.38-4.4,22.29-5.39,22.13Z"/>
              <path class="st2" d="M430.08,234.8c.72-1.6,17.63,4.41,37.78,13.44,20.15,9.03,35.89,17.65,35.17,19.25-.72,1.61-17.63-4.41-37.78-13.44-20.15-9.03-35.9-17.65-35.18-19.25Z"/>
              <path class="st5" d="M480.03,221.09c1.32.59-3.63,14.53-11.07,31.12-7.44,16.6-14.54,29.57-15.86,28.98-1.32-.59,3.64-14.53,11.07-31.12,7.44-16.6,14.54-29.57,15.86-28.98Z"/>
              <path class="st11" d="M451.88,212.61c1.13-.43,8.62,16.47,16.74,37.75,8.11,21.28,13.77,38.88,12.63,39.31-1.13.43-8.63-16.47-16.74-37.75-8.11-21.28-13.76-38.88-12.63-39.31Z"/>
              <path class="st1" d="M500.59,238.17c.57,1.5-14.2,8.52-32.99,15.68-18.79,7.16-34.49,11.76-35.06,10.26-.57-1.5,14.2-8.51,32.99-15.68,18.79-7.16,34.49-11.76,35.06-10.26Z"/>
            </g>
            <path class="st8" d="M494.55,230.91c11.17,15.46,7.7,37.05-7.76,48.22-15.46,11.17-37.05,7.7-48.22-7.76-11.17-15.46-7.7-37.05,7.76-48.22s37.05-7.7,48.22,7.76Z"/>
            <path class="st6" d="M512.67,217.81c4,5.54-13.4,24.95-38.86,43.35-25.46,18.41-49.35,28.84-53.35,23.3-4-5.54,13.39-24.95,38.86-43.35,25.46-18.41,49.35-28.84,53.35-23.3Z"/>
          </g>
          <path class="st3" d="M733,607.1c.02,10.99-86.38,20.05-192.96,20.24-106.59.19-193.01-8.56-193.03-19.55-.02-10.99,86.38-20.05,192.96-20.25,106.59-.19,193.01,8.56,193.03,19.56Z"/>
          <path class="st16" d="M587.76,535.6h-96.83l-17.99,39.2h-66.08l101.08-201.76h63.79l101.41,201.76h-67.39l-17.99-39.2ZM568.79,493.51l-29.44-64.57-29.44,64.57h58.88Z"/>
          <path class="st32" d="M622.97,352.72h-1v-11.17c0-46.31-36.77-83.99-81.98-83.99s-81.97,37.68-81.97,83.99v10.66h-1v-10.66c0-46.87,37.22-84.99,82.97-84.99s82.98,38.13,82.98,84.99v11.17Z"/>
          <path class="st27" d="M623.86,352.81h-1v-11.3c0-46.85-37.17-84.97-82.86-84.97s-82.86,38.12-82.86,84.97v10.78h-1v-10.78c0-47.4,37.62-85.97,83.86-85.97s83.86,38.57,83.86,85.97v11.3Z"/>
        </g>
        <path class="st7" d="M734.89,526.99c-4.5,0-8.22-35.39-8.29-79.07-.08-43.67,3.51-79.09,8.01-79.09s8.22,35.39,8.3,79.07c.08,43.67-3.51,79.09-8.01,79.1Z"/>
      </g>
      <path class="st4" d="M604.06,855.69c-2.58,21.82-58.66,33.13-125.27,25.27-66.61-7.86-118.52-31.92-115.95-53.74,2.58-21.82,58.66-33.14,125.27-25.28,66.61,7.86,118.52,31.92,115.95,53.75Z"/>
      <g>
        <path class="st29" d="M250.06,724.77h-32.23l-5.99,14.81h-21.99l33.64-76.21h21.23l33.75,76.21h-22.43l-5.99-14.81ZM243.75,708.88l-9.8-24.39-9.8,24.39h19.6Z"/>
        <path class="st21" d="M293.39,738.82c-5.81-1.52-10.53-3.55-14.15-6.1l7.08-15.9c3.41,2.25,7.37,4.07,11.87,5.44,4.5,1.38,8.93,2.07,13.28,2.07,8.27,0,12.41-2.07,12.41-6.21,0-2.18-1.18-3.79-3.54-4.85-2.36-1.05-6.15-2.16-11.38-3.32-5.73-1.23-10.53-2.56-14.37-3.97-3.85-1.42-7.15-3.68-9.91-6.81-2.76-3.12-4.14-7.33-4.14-12.63,0-4.64,1.27-8.84,3.81-12.57,2.54-3.74,6.33-6.7,11.38-8.87,5.04-2.18,11.23-3.27,18.56-3.27,5.01,0,9.94.56,14.81,1.69,4.86,1.13,9.15,2.78,12.85,4.95l-6.64,16c-7.26-3.92-14.3-5.88-21.12-5.88-4.28,0-7.4.64-9.36,1.91-1.96,1.27-2.94,2.92-2.94,4.95s1.16,3.56,3.48,4.57c2.32,1.02,6.06,2.07,11.21,3.16,5.81,1.24,10.62,2.56,14.43,3.97,3.81,1.42,7.11,3.67,9.91,6.75,2.79,3.09,4.19,7.28,4.19,12.58,0,4.57-1.27,8.71-3.81,12.41-2.54,3.7-6.35,6.66-11.43,8.87-5.08,2.21-11.25,3.32-18.51,3.32-6.17,0-12.16-.76-17.96-2.29Z"/>
        <path class="st26" d="M416.21,722.92v16.66h-61.19v-76.21h59.77v16.66h-38.43v12.85h33.86v16.11h-33.86v13.94h39.85Z"/>
        <path class="st18" d="M479.14,699.84h19.05v31.57c-4.35,3.12-9.36,5.52-15.03,7.19-5.66,1.67-11.32,2.5-16.98,2.5-7.99,0-15.17-1.69-21.56-5.06-6.39-3.38-11.4-8.07-15.02-14.1-3.63-6.02-5.44-12.85-5.44-20.47s1.81-14.44,5.44-20.47c3.63-6.02,8.67-10.72,15.13-14.1,6.46-3.38,13.75-5.06,21.88-5.06,7.11,0,13.5,1.2,19.16,3.59,5.66,2.4,10.38,5.84,14.15,10.34l-13.72,12.41c-5.16-5.66-11.32-8.49-18.51-8.49-6.53,0-11.8,1.98-15.79,5.93-3.99,3.96-5.99,9.24-5.99,15.84,0,4.21.91,7.97,2.72,11.27,1.81,3.3,4.35,5.88,7.62,7.73,3.27,1.85,7,2.78,11.21,2.78s8.02-.83,11.65-2.5v-20.9Z"/>
        <path class="st13" d="M520.67,731.85c-6.28-6.17-9.42-14.92-9.42-26.24v-42.24h21.56v41.59c0,12.19,4.83,18.29,14.48,18.29s14.37-6.1,14.37-18.29v-41.59h21.23v42.24c0,11.32-3.14,20.07-9.42,26.24-6.28,6.17-15.08,9.25-26.4,9.25s-20.13-3.08-26.4-9.25Z"/>
        <path class="st17" d="M630.8,719.33h-11.76v20.25h-21.56v-76.21h34.84c6.89,0,12.88,1.14,17.96,3.43,5.08,2.29,9,5.55,11.76,9.8,2.76,4.25,4.14,9.24,4.14,14.97s-1.29,10.33-3.87,14.43c-2.58,4.1-6.26,7.31-11.05,9.64l16.44,23.95h-23.08l-13.83-20.25ZM641.04,683.29c-2.25-1.96-5.59-2.94-10.02-2.94h-11.98v22.32h11.98c4.43,0,7.77-.96,10.02-2.89,2.25-1.92,3.37-4.66,3.37-8.22s-1.13-6.32-3.37-8.27Z"/>
        <path class="st31" d="M729.12,724.77h-32.23l-5.99,14.81h-21.99l33.64-76.21h21.23l33.75,76.21h-22.43l-5.99-14.81ZM722.8,708.88l-9.8-24.39-9.8,24.39h19.6Z"/>
        <path class="st35" d="M776.05,680.46h-23.41v-17.09h68.27v17.09h-23.3v59.12h-21.56v-59.12Z"/>
        <path class="st30" d="M890.15,722.92v16.66h-61.19v-76.21h59.77v16.66h-38.43v12.85h33.86v16.11h-33.86v13.94h39.85Z"/>
      </g>
    </g>
  </g>
</svg>