<svg width="34" height="34" viewBox="0 0 34 34" fill="none" xmlns="http://www.w3.org/2000/svg">
<path d="M14.3703 9.3888C15.4847 6.61072 16.0419 5.22168 17 5.22168C17.9581 5.22168 18.5153 6.61072 19.6297 9.3888L19.6816 9.51817C20.3111 11.0876 20.6259 11.8724 21.2674 12.3494C21.909 12.8263 22.7511 12.9018 24.4354 13.0526L24.7399 13.0799C27.4965 13.3267 28.8748 13.4502 29.1697 14.3271C29.4646 15.204 28.441 16.1352 26.3939 17.9977L25.7106 18.6193C24.6743 19.5621 24.1562 20.0335 23.9147 20.6513C23.8696 20.7666 23.8322 20.8847 23.8026 21.0048C23.6438 21.6489 23.7956 22.3328 24.099 23.7005L24.1935 24.1263C24.7512 26.6399 25.03 27.8968 24.5432 28.4389C24.3612 28.6414 24.1248 28.7873 23.8621 28.859C23.1591 29.0508 22.1611 28.2375 20.1651 26.6111C18.8545 25.5431 18.1991 25.0091 17.4467 24.8889C17.1508 24.8417 16.8492 24.8417 16.5533 24.8889C15.8009 25.0091 15.1455 25.5431 13.8349 26.6111C11.8389 28.2375 10.8409 29.0508 10.1379 28.859C9.87523 28.7873 9.63877 28.6414 9.45684 28.4389C8.96996 27.8968 9.24881 26.6399 9.80651 24.1263L9.90097 23.7005C10.2044 22.3328 10.3562 21.6489 10.1974 21.0048C10.1678 20.8847 10.1304 20.7666 10.0853 20.6513C9.8438 20.0335 9.32565 19.5621 8.28935 18.6193L7.60612 17.9977C5.55898 16.1352 4.5354 15.204 4.83032 14.3271C5.12524 13.4502 6.50353 13.3267 9.2601 13.0799L9.56459 13.0526C11.2489 12.9018 12.091 12.8263 12.7326 12.3494C13.3741 11.8724 13.6889 11.0876 14.3184 9.51816L14.3703 9.3888Z" stroke="#33363F" stroke-width="2"/>
</svg>
