<svg width="30" height="30" viewBox="0 0 30 30" fill="none" xmlns="http://www.w3.org/2000/svg">
<path d="M17.2031 2.70703L17.8119 1.91369L17.8118 1.91359L17.2031 2.70703ZM17.3242 2.81543L18.0535 2.13116L18.0532 2.13091L17.3242 2.81543ZM17.6699 4.20215L16.6749 4.30141L17.6699 4.20215ZM18.3398 6.625L17.85 7.49681L17.8501 7.49684L18.3398 6.625ZM18.5586 6.71582L18.2876 7.6784L18.2881 7.67855L18.5586 6.71582ZM20.7471 5.47656L20.1139 4.70255V4.70255L20.7471 5.47656ZM21.9736 4.74121L21.9432 3.74167L21.9428 3.74169L21.9736 4.74121ZM22.1348 4.74902L22.2656 3.75762L22.265 3.75754L22.1348 4.74902ZM23.2803 5.60254L23.9874 4.89543V4.89543L23.2803 5.60254ZM24.3975 6.71973L25.1046 6.01262V6.01262L24.3975 6.71973ZM25.251 7.86523L26.2424 7.73471L26.2424 7.73469L25.251 7.86523ZM25.2588 8.02734L26.2583 8.05895L26.2583 8.05871L25.2588 8.02734ZM24.5234 9.25195L25.2973 9.8853V9.8853L24.5234 9.25195ZM23.2842 11.4395L22.3214 11.7097L22.3214 11.7098L23.2842 11.4395ZM23.375 11.6592L22.503 12.1487L22.5034 12.1495L23.375 11.6592ZM25.7979 12.3291L25.6982 13.3241L25.7979 12.3291ZM27.1846 12.6768L27.8696 11.9482L27.8695 11.9482L27.1846 12.6768ZM27.293 12.7959L28.0862 12.187L28.0861 12.1868L27.293 12.7959ZM27.5 14.21H28.5H27.5ZM27.5 15.79H28.5H27.5ZM27.293 17.2041L28.086 17.8133L28.0864 17.8128L27.293 17.2041ZM27.1846 17.3242L27.8689 18.0534L27.8692 18.0531L27.1846 17.3242ZM25.7979 17.6699L25.6984 16.6749L25.7979 17.6699ZM23.376 18.3408L22.5041 17.8511L22.504 17.8512L23.376 18.3408ZM23.2842 18.5596L22.3214 18.2892L22.3214 18.2893L23.2842 18.5596ZM24.5234 20.7471L23.7495 21.3803L24.5234 20.7471ZM25.2588 21.9717L26.2583 21.9403L26.2583 21.9401L25.2588 21.9717ZM25.251 22.1338L26.2424 22.2644V22.2643L25.251 22.1338ZM24.3975 23.2793L25.1046 23.9864L25.1047 23.9863L24.3975 23.2793ZM23.2803 24.3965L22.5732 23.6894L22.5731 23.6895L23.2803 24.3965ZM22.1348 25.251L22.2653 26.2424L22.2655 26.2424L22.1348 25.251ZM21.9727 25.2588L21.9412 26.2583L21.9415 26.2583L21.9727 25.2588ZM20.7471 24.5234L21.3803 23.7495L20.7471 24.5234ZM18.5596 23.2842L18.289 22.3215L18.2889 22.3215L18.5596 23.2842ZM18.3408 23.375L17.8513 22.503L17.8512 22.5031L18.3408 23.375ZM17.6699 25.7979L16.6749 25.6984L17.6699 25.7979ZM17.3242 27.1846L18.053 27.8693L18.0534 27.8689L17.3242 27.1846ZM17.2041 27.293L17.813 28.0862L17.8133 28.086L17.2041 27.293ZM14.21 27.5V28.5V27.5ZM12.7959 27.293L12.1868 28.0861L12.187 28.0862L12.7959 27.293ZM12.6768 27.1846L11.9482 27.8695L11.9482 27.8696L12.6768 27.1846ZM12.3291 25.7979L13.3241 25.6982L12.3291 25.7979ZM11.6592 23.375L12.1495 22.5034L12.1487 22.503L11.6592 23.375ZM11.4395 23.2842L11.7098 22.3214L11.7097 22.3214L11.4395 23.2842ZM9.25195 24.5234L9.8853 25.2973L9.25195 24.5234ZM8.02734 25.2588L8.05871 26.2583L8.05895 26.2583L8.02734 25.2588ZM7.86523 25.251L7.73469 26.2424L7.73471 26.2424L7.86523 25.251ZM6.71973 24.3975L6.01262 25.1046V25.1046L6.71973 24.3975ZM5.60254 23.2803L4.89543 23.9874V23.9874L5.60254 23.2803ZM4.74902 22.1348L3.75754 22.265L3.75762 22.2656L4.74902 22.1348ZM4.74121 21.9736L3.74169 21.9428L3.74167 21.9432L4.74121 21.9736ZM5.47656 20.7471L4.70255 20.1139L5.47656 20.7471ZM6.71582 18.5586L7.67855 18.2881L7.6784 18.2876L6.71582 18.5586ZM6.625 18.3398L7.49684 17.8501L7.49681 17.85L6.625 18.3398ZM4.20215 17.6699L4.30141 16.6749L4.20215 17.6699ZM2.81543 17.3242L2.13091 18.0532L2.13116 18.0535L2.81543 17.3242ZM2.70703 17.2031L1.91359 17.8118L1.91369 17.8119L2.70703 17.2031ZM2.5 14.21H1.5H2.5ZM2.70703 12.7959L1.91391 12.1868L1.91377 12.187L2.70703 12.7959ZM2.81543 12.6758L2.13106 11.9466L2.13052 11.9471L2.81543 12.6758ZM4.20215 12.3291L4.3018 13.3241L4.20215 12.3291ZM6.625 11.6582L7.49709 12.1475L7.49727 12.1472L6.625 11.6582ZM6.71582 11.4395L7.67854 11.71L7.67867 11.7095L6.71582 11.4395ZM5.47656 9.25195L4.70261 9.88519L5.47656 9.25195ZM4.74121 8.02734L3.7417 8.05854L3.74171 8.05902L4.74121 8.02734ZM4.74902 7.86523L3.75759 7.73461L3.75756 7.73487L4.74902 7.86523ZM5.60254 6.71973L4.89543 6.01262L4.89533 6.01272L5.60254 6.71973ZM6.71973 5.60254L7.42683 6.30965L7.42693 6.30955L6.71973 5.60254ZM7.86523 4.74805L7.73462 3.75661L7.73447 3.75663L7.86523 4.74805ZM8.02734 4.74023L8.05876 3.74073L8.05852 3.74072L8.02734 4.74023ZM9.25293 5.47559L8.61969 6.24954L9.25293 5.47559ZM11.4395 6.71484L11.7095 7.67769L11.7098 7.67761L11.4395 6.71484ZM11.6592 6.62402L12.1486 7.49604L12.1491 7.49581L11.6592 6.62402ZM12.3291 4.20117L11.3341 4.1015L12.3291 4.20117ZM12.6758 2.81543L11.947 2.13068L11.9467 2.13099L12.6758 2.81543ZM12.7959 2.70703L12.1872 1.91363L12.1868 1.91391L12.7959 2.70703ZM15.7891 2.5V3.5C16.1939 3.5 16.4126 3.50166 16.5665 3.51944C16.6976 3.53459 16.6594 3.55027 16.5945 3.50048L17.2031 2.70703L17.8118 1.91359C17.4775 1.65721 17.1139 1.56938 16.796 1.53266C16.501 1.49857 16.1473 1.5 15.7891 1.5V2.5ZM17.2031 2.70703L16.5943 3.50037L16.5952 3.49995L17.3242 2.81543L18.0532 2.13091C17.9719 2.04429 17.8885 1.9725 17.8119 1.91369L17.2031 2.70703ZM17.3242 2.81543L16.595 3.49969C16.5386 3.4396 16.5504 3.39963 16.5785 3.52898C16.6114 3.6807 16.6346 3.89824 16.6749 4.30141L17.6699 4.20215L18.665 4.10288C18.6295 3.74682 18.5959 3.39473 18.533 3.10477C18.4652 2.79244 18.342 2.43873 18.0535 2.13116L17.3242 2.81543ZM17.6699 4.20215L16.6749 4.30141C16.744 4.99433 16.8039 5.61626 16.9156 6.08968C17.0263 6.55881 17.2464 7.15768 17.85 7.49681L18.3398 6.625L18.8297 5.75319C18.9797 5.83746 18.937 5.94766 18.8621 5.63044C18.7883 5.31752 18.7401 4.85546 18.665 4.10288L17.6699 4.20215ZM18.3398 6.625L17.8501 7.49684C17.9875 7.57407 18.1343 7.63525 18.2876 7.6784L18.5586 6.71582L18.8296 5.75324L18.8296 5.75316L18.3398 6.625ZM18.5586 6.71582L18.2881 7.67855C18.9547 7.86582 19.5342 7.59814 19.9443 7.34482C20.3584 7.08908 20.8409 6.69173 21.3802 6.25058L20.7471 5.47656L20.1139 4.70255C19.5284 5.1815 19.1671 5.47414 18.8934 5.64318C18.6158 5.81465 18.6634 5.70655 18.8291 5.75309L18.5586 6.71582ZM20.7471 5.47656L21.3802 6.25058C21.6937 5.99418 21.8642 5.85689 21.9946 5.77322C22.1058 5.7019 22.0863 5.73821 22.0045 5.74073L21.9736 4.74121L21.9428 3.74169C21.5216 3.7547 21.1842 3.91694 20.9148 4.0898C20.6645 4.25032 20.3915 4.47546 20.1139 4.70255L20.7471 5.47656ZM21.9736 4.74121L22.0041 5.74075L22.0045 5.7405L22.1348 4.74902L22.265 3.75754C22.1553 3.74312 22.0472 3.73851 21.9432 3.74167L21.9736 4.74121ZM22.1348 4.74902L22.0039 5.74042C21.9224 5.72967 21.9063 5.69135 22.0098 5.77348C22.1312 5.86987 22.2869 6.02334 22.5732 6.30965L23.2803 5.60254L23.9874 4.89543C23.7344 4.64247 23.4855 4.39139 23.2531 4.20694C23.0028 4.00823 22.6835 3.81278 22.2656 3.75762L22.1348 4.74902ZM23.2803 5.60254L22.5732 6.30965L23.6904 7.42683L24.3975 6.71973L25.1046 6.01262L23.9874 4.89543L23.2803 5.60254ZM24.3975 6.71973L23.6904 7.42683C23.9767 7.71323 24.1302 7.86884 24.2266 7.99028C24.3087 8.09372 24.2703 8.07745 24.2595 7.99578L25.251 7.86523L26.2424 7.73469C26.1874 7.31657 25.9918 6.99721 25.7931 6.74683C25.6086 6.51446 25.3575 6.26555 25.1046 6.01262L24.3975 6.71973ZM25.251 7.86523L24.2595 7.99575L24.2593 7.99598L25.2588 8.02734L26.2583 8.05871C26.2616 7.95379 26.257 7.84517 26.2424 7.73471L25.251 7.86523ZM25.2588 8.02734L24.2593 7.99574C24.2619 7.91363 24.2984 7.89375 24.227 8.00478C24.1432 8.13514 24.006 8.30526 23.7496 8.6186L24.5234 9.25195L25.2973 9.8853C25.5239 9.60841 25.749 9.33579 25.9095 9.0862C26.0823 8.81727 26.245 8.48021 26.2583 8.05895L25.2588 8.02734ZM24.5234 9.25195L23.7496 8.6186C23.3085 9.15756 22.9111 9.63982 22.6554 10.0538C22.402 10.4639 22.1343 11.0431 22.3214 11.7097L23.2842 11.4395L24.247 11.1692C24.2935 11.3348 24.1854 11.3824 24.3568 11.105C24.5258 10.8315 24.8184 10.4705 25.2973 9.8853L24.5234 9.25195ZM23.2842 11.4395L22.3214 11.7098C22.3639 11.8613 22.4247 12.0091 22.503 12.1487L23.375 11.6592L24.247 11.1697L24.2469 11.1691L23.2842 11.4395ZM23.375 11.6592L22.5034 12.1495C22.8428 12.7527 23.4418 12.9726 23.9105 13.0831C24.3838 13.1947 25.0056 13.2548 25.6982 13.3241L25.7979 12.3291L25.8975 11.3341C25.145 11.2587 24.6828 11.2104 24.3697 11.1365C24.052 11.0616 24.1621 11.0188 24.2466 11.1689L23.375 11.6592ZM25.7979 12.3291L25.6982 13.3241C26.1009 13.3645 26.3184 13.388 26.4695 13.4211C26.5981 13.4493 26.5589 13.461 26.4996 13.4054L27.1846 12.6768L27.8695 11.9482C27.5629 11.6599 27.2101 11.5359 26.8972 11.4674C26.6067 11.4038 26.2545 11.3698 25.8975 11.3341L25.7979 12.3291ZM27.1846 12.6768L26.4996 13.4053L26.4999 13.405L27.293 12.7959L28.0861 12.1868C28.0174 12.0973 27.944 12.0182 27.8696 11.9482L27.1846 12.6768ZM27.293 12.7959L26.4998 13.4048C26.4498 13.3398 26.4655 13.3014 26.4806 13.4324C26.4984 13.5863 26.5 13.805 26.5 14.21H27.5H28.5C28.5 13.8518 28.5015 13.4981 28.4674 13.2031C28.4307 12.8852 28.3429 12.5213 28.0862 12.187L27.293 12.7959ZM27.5 14.21H26.5V15.79H27.5H28.5V14.21H27.5ZM27.5 15.79H26.5C26.5 16.1947 26.4983 16.4135 26.4806 16.5674C26.4654 16.6987 26.4497 16.6604 26.4996 16.5954L27.293 17.2041L28.0864 17.8128C28.3428 17.4785 28.4306 17.1147 28.4673 16.7969C28.5014 16.5019 28.5 16.1482 28.5 15.79H27.5ZM27.293 17.2041L26.4999 16.5949L26.5 16.5953L27.1846 17.3242L27.8692 18.0531C27.9503 17.977 28.0224 17.896 28.086 17.8133L27.293 17.2041ZM27.1846 17.3242L26.5002 16.5951C26.5605 16.5385 26.6007 16.5503 26.4711 16.5784C26.3192 16.6114 26.1016 16.6346 25.6984 16.6749L25.7979 17.6699L25.8973 18.665C26.2532 18.6294 26.6053 18.5958 26.8951 18.533C27.2073 18.4652 27.5612 18.3422 27.8689 18.0534L27.1846 17.3242ZM25.7979 17.6699L25.6984 16.6749C25.0055 16.7441 24.3837 16.8043 23.9103 16.9163C23.4411 17.0273 22.8429 17.2479 22.5041 17.8511L23.376 18.3408L24.2479 18.8305C24.1638 18.9802 24.054 18.9375 24.3708 18.8626C24.6833 18.7886 25.1452 18.7401 25.8973 18.665L25.7979 17.6699ZM23.376 18.3408L22.504 17.8512C22.431 17.9813 22.3668 18.1277 22.3214 18.2892L23.2842 18.5596L24.2469 18.83C24.2445 18.8386 24.2433 18.8387 24.2479 18.8304L23.376 18.3408ZM23.2842 18.5596L22.3214 18.2893C22.1342 18.956 22.4022 19.5354 22.6555 19.9453C22.9112 20.3591 23.3086 20.8414 23.7495 21.3803L24.5234 20.7471L25.2974 20.1138C24.8186 19.5286 24.526 19.1676 24.3569 18.8939C24.1853 18.6163 24.2935 18.664 24.247 18.8299L23.2842 18.5596ZM24.5234 20.7471L23.7495 21.3803C24.006 21.6938 24.1432 21.8639 24.227 21.9943C24.2984 22.1054 24.2619 22.0855 24.2593 22.0033L25.2588 21.9717L26.2583 21.9401C26.245 21.5188 26.0822 21.1817 25.9094 20.9128C25.749 20.6633 25.5239 20.3907 25.2974 20.1138L24.5234 20.7471ZM25.2588 21.9717L24.2593 22.0031L24.2595 22.0032L25.251 22.1338L26.2424 22.2643C26.257 22.1538 26.2616 22.0452 26.2583 21.9403L25.2588 21.9717ZM25.251 22.1338L24.2595 22.0032C24.2703 21.9215 24.3088 21.9052 24.2266 22.0086C24.1302 22.1301 23.9767 22.2857 23.6903 22.5723L24.3975 23.2793L25.1047 23.9863C25.3575 23.7334 25.6087 23.4844 25.7931 23.2522C25.9918 23.0018 26.1873 22.6825 26.2424 22.2644L25.251 22.1338ZM24.3975 23.2793L23.6904 22.5722L22.5732 23.6894L23.2803 24.3965L23.9874 25.1036L25.1046 23.9864L24.3975 23.2793ZM23.2803 24.3965L22.5731 23.6895C22.2863 23.9763 22.1307 24.13 22.0091 24.2267C21.9054 24.3091 21.9219 24.2704 22.004 24.2596L22.1348 25.251L22.2655 26.2424C22.6841 26.1872 23.0036 25.9911 23.2537 25.7922C23.4858 25.6077 23.7347 25.3563 23.9875 25.1035L23.2803 24.3965ZM22.1348 25.251L22.0042 24.2595L22.0038 24.2593L21.9727 25.2588L21.9415 26.2583C22.046 26.2616 22.1548 26.257 22.2653 26.2424L22.1348 25.251ZM21.9727 25.2588L22.0041 24.2593C22.0859 24.2619 22.1055 24.2982 21.9944 24.2269C21.864 24.1431 21.6937 24.0059 21.3803 23.7495L20.7471 24.5234L20.1138 25.2974C20.3911 25.5243 20.6639 25.7493 20.9138 25.9098C21.183 26.0827 21.5201 26.245 21.9412 26.2583L21.9727 25.2588ZM20.7471 24.5234L21.3803 23.7495C20.8413 23.3085 20.3591 22.9111 19.9452 22.6553C19.5352 22.4019 18.9558 22.1341 18.289 22.3215L18.5596 23.2842L18.8301 24.2469C18.6643 24.2935 18.6165 24.1853 18.8938 24.3567C19.1674 24.5257 19.5283 24.8183 20.1138 25.2974L20.7471 24.5234ZM18.5596 23.2842L18.2889 22.3215C18.1349 22.3648 17.9882 22.4262 17.8513 22.503L18.3408 23.375L18.8303 24.247L18.8302 24.2469L18.5596 23.2842ZM18.3408 23.375L17.8512 22.5031C17.2477 22.8419 17.0272 23.4405 16.9162 23.9098C16.8043 24.3833 16.7442 25.0053 16.6749 25.6984L17.6699 25.7979L18.665 25.8973C18.7402 25.1448 18.7886 24.6827 18.8626 24.3699C18.9375 24.0529 18.9802 24.1628 18.8304 24.2469L18.3408 23.375ZM17.6699 25.7979L16.6749 25.6984C16.6346 26.1017 16.6114 26.3193 16.5784 26.4711C16.5503 26.6006 16.5385 26.5605 16.595 26.5003L17.3242 27.1846L18.0534 27.8689C18.3421 27.5612 18.4652 27.2074 18.533 26.8951C18.5958 26.6053 18.6294 26.2532 18.665 25.8973L17.6699 25.7979ZM17.3242 27.1846L16.5954 26.4998L16.5949 26.4999L17.2041 27.293L17.8133 28.086C17.8961 28.0224 17.977 27.9502 18.053 27.8693L17.3242 27.1846ZM17.2041 27.293L16.5952 26.4997C16.6605 26.4496 16.6988 26.4654 16.5672 26.4806C16.413 26.4984 16.1941 26.5 15.7891 26.5V27.5V28.5C16.1474 28.5 16.5012 28.5015 16.7964 28.4674C17.1142 28.4308 17.4784 28.343 17.813 28.0862L17.2041 27.293ZM15.7891 27.5V26.5H14.21V27.5V28.5H15.7891V27.5ZM14.21 27.5V26.5C13.805 26.5 13.5863 26.4984 13.4324 26.4806C13.3014 26.4655 13.3398 26.4498 13.4048 26.4998L12.7959 27.293L12.187 28.0862C12.5213 28.3429 12.8852 28.4307 13.2031 28.4674C13.4981 28.5015 13.8518 28.5 14.21 28.5V27.5ZM12.7959 27.293L13.405 26.4999L13.4053 26.4996L12.6768 27.1846L11.9482 27.8696C12.0182 27.944 12.0973 28.0174 12.1868 28.0861L12.7959 27.293ZM12.6768 27.1846L13.4054 26.4996C13.461 26.5589 13.4493 26.5981 13.4211 26.4695C13.388 26.3184 13.3645 26.1009 13.3241 25.6982L12.3291 25.7979L11.3341 25.8975C11.3698 26.2545 11.4038 26.6067 11.4674 26.8972C11.5359 27.2101 11.6599 27.5629 11.9482 27.8695L12.6768 27.1846ZM12.3291 25.7979L13.3241 25.6982C13.2548 25.0056 13.1947 24.3838 13.0831 23.9105C12.9726 23.4418 12.7527 22.8428 12.1495 22.5034L11.6592 23.375L11.1689 24.2466C11.0188 24.1621 11.0616 24.052 11.1365 24.3697C11.2104 24.6828 11.2587 25.145 11.3341 25.8975L12.3291 25.7979ZM11.6592 23.375L12.1487 22.503C12.0091 22.4247 11.8613 22.3639 11.7098 22.3214L11.4395 23.2842L11.1691 24.2469L11.1697 24.247L11.6592 23.375ZM11.4395 23.2842L11.7097 22.3214C11.0431 22.1343 10.4639 22.402 10.0538 22.6554C9.63982 22.9111 9.15756 23.3085 8.6186 23.7496L9.25195 24.5234L9.8853 25.2973C10.4705 24.8184 10.8315 24.5258 11.105 24.3568C11.3824 24.1854 11.3348 24.2935 11.1692 24.247L11.4395 23.2842ZM9.25195 24.5234L8.6186 23.7496C8.30526 24.006 8.13514 24.1432 8.00478 24.227C7.89375 24.2984 7.91363 24.2619 7.99574 24.2593L8.02734 25.2588L8.05895 26.2583C8.48021 26.245 8.81727 26.0823 9.0862 25.9095C9.33579 25.749 9.60841 25.5239 9.8853 25.2973L9.25195 24.5234ZM8.02734 25.2588L7.99598 24.2593L7.99575 24.2595L7.86523 25.251L7.73471 26.2424C7.84517 26.257 7.95379 26.2616 8.05871 26.2583L8.02734 25.2588ZM7.86523 25.251L7.99578 24.2595C8.07745 24.2703 8.09372 24.3087 7.99028 24.2266C7.86884 24.1302 7.71323 23.9767 7.42683 23.6904L6.71973 24.3975L6.01262 25.1046C6.26555 25.3575 6.51446 25.6086 6.74683 25.7931C6.99721 25.9918 7.31657 26.1874 7.73469 26.2424L7.86523 25.251ZM6.71973 24.3975L7.42683 23.6904L6.30965 22.5732L5.60254 23.2803L4.89543 23.9874L6.01262 25.1046L6.71973 24.3975ZM5.60254 23.2803L6.30965 22.5732C6.02334 22.2869 5.86987 22.1312 5.77348 22.0098C5.69135 21.9063 5.72967 21.9224 5.74042 22.0039L4.74902 22.1348L3.75762 22.2656C3.81278 22.6835 4.00823 23.0028 4.20694 23.2531C4.39139 23.4855 4.64247 23.7344 4.89543 23.9874L5.60254 23.2803ZM4.74902 22.1348L5.7405 22.0045L5.74075 22.0041L4.74121 21.9736L3.74167 21.9432C3.73851 22.0472 3.74312 22.1553 3.75754 22.265L4.74902 22.1348ZM4.74121 21.9736L5.74073 22.0045C5.73821 22.0863 5.7019 22.1058 5.77322 21.9946C5.85689 21.8642 5.99418 21.6937 6.25058 21.3802L5.47656 20.7471L4.70255 20.1139C4.47546 20.3915 4.25032 20.6645 4.0898 20.9148C3.91694 21.1842 3.7547 21.5216 3.74169 21.9428L4.74121 21.9736ZM5.47656 20.7471L6.25058 21.3802C6.69173 20.8409 7.08908 20.3584 7.34482 19.9443C7.59814 19.5342 7.86582 18.9547 7.67855 18.2881L6.71582 18.5586L5.75309 18.8291C5.70655 18.6634 5.81465 18.6158 5.64318 18.8934C5.47414 19.1671 5.1815 19.5284 4.70255 20.1139L5.47656 20.7471ZM6.71582 18.5586L7.6784 18.2876C7.63525 18.1343 7.57407 17.9875 7.49684 17.8501L6.625 18.3398L5.75316 18.8296L5.75324 18.8296L6.71582 18.5586ZM6.625 18.3398L7.49681 17.85C7.15768 17.2464 6.55881 17.0263 6.08968 16.9156C5.61626 16.8039 4.99433 16.744 4.30141 16.6749L4.20215 17.6699L4.10288 18.665C4.85546 18.7401 5.31752 18.7883 5.63044 18.8621C5.94766 18.937 5.83746 18.9797 5.75319 18.8297L6.625 18.3398ZM4.20215 17.6699L4.30141 16.6749C3.89824 16.6346 3.6807 16.6114 3.52898 16.5785C3.39963 16.5504 3.4396 16.5386 3.49969 16.595L2.81543 17.3242L2.13116 18.0535C2.43873 18.342 2.79244 18.4652 3.10477 18.533C3.39473 18.5959 3.74682 18.6295 4.10288 18.665L4.20215 17.6699ZM2.81543 17.3242L3.49995 16.5952L3.50037 16.5943L2.70703 17.2031L1.91369 17.8119C1.9725 17.8885 2.04429 17.9719 2.13091 18.0532L2.81543 17.3242ZM2.70703 17.2031L3.50048 16.5945C3.55027 16.6594 3.53459 16.6976 3.51944 16.5665C3.50166 16.4126 3.5 16.1939 3.5 15.7891H2.5H1.5C1.5 16.1473 1.49857 16.501 1.53266 16.796C1.56938 17.1139 1.65721 17.4775 1.91359 17.8118L2.70703 17.2031ZM2.5 15.7891H3.5V14.21H2.5H1.5V15.7891H2.5ZM2.5 14.21H3.5C3.5 13.805 3.50163 13.5864 3.5194 13.4325C3.53453 13.3014 3.5502 13.3398 3.50029 13.4048L2.70703 12.7959L1.91377 12.187C1.65715 12.5213 1.5693 12.8852 1.5326 13.2031C1.49853 13.4981 1.5 13.8518 1.5 14.21H2.5ZM2.70703 12.7959L3.50015 13.405L3.50033 13.4044L2.81543 12.6758L2.13052 11.9471C2.04999 12.0229 1.97772 12.1037 1.91391 12.1868L2.70703 12.7959ZM2.81543 12.6758L3.4998 13.4049C3.44004 13.461 3.40049 13.4491 3.52984 13.4209C3.68141 13.3879 3.89903 13.3645 4.3018 13.3241L4.20215 12.3291L4.1025 11.3341C3.7461 11.3698 3.39407 11.4036 3.10392 11.4668C2.79156 11.5349 2.43823 11.6583 2.13106 11.9466L2.81543 12.6758ZM4.20215 12.3291L4.3018 13.3241C4.99464 13.2547 5.61662 13.1946 6.09005 13.0827C6.55911 12.9719 7.15819 12.7515 7.49709 12.1475L6.625 11.6582L5.75291 11.1689C5.83718 11.0187 5.94753 11.0613 5.63016 11.1363C5.31717 11.2103 4.85505 11.2587 4.1025 11.3341L4.20215 12.3291ZM6.625 11.6582L7.49727 12.1472C7.57358 12.0111 7.63516 11.8644 7.67854 11.71L6.71582 11.4395L5.7531 11.169L5.75273 11.1692L6.625 11.6582ZM6.71582 11.4395L7.67867 11.7095C7.8656 11.0429 7.59776 10.4637 7.34445 10.0537C7.08871 9.63986 6.69143 9.15761 6.25052 8.61872L5.47656 9.25195L4.70261 9.88519C5.18139 10.4704 5.47398 10.8314 5.64306 11.1051C5.81458 11.3826 5.70652 11.3351 5.75297 11.1694L6.71582 11.4395ZM5.47656 9.25195L6.25052 8.61872C5.99404 8.30524 5.85682 8.13513 5.77297 8.0047C5.70157 7.89362 5.73811 7.91352 5.74071 7.99567L4.74121 8.02734L3.74171 8.05902C3.75506 8.4803 3.91777 8.81733 4.0906 9.08619C4.25099 9.3357 4.47607 9.60832 4.70261 9.88519L5.47656 9.25195ZM4.74121 8.02734L5.74072 7.99615L5.74049 7.9956L4.74902 7.86523L3.75756 7.73487C3.74306 7.84511 3.73843 7.95385 3.7417 8.05854L4.74121 8.02734ZM4.74902 7.86523L5.74046 7.99586C5.72969 8.07755 5.69124 8.09384 5.77339 7.99036C5.86983 7.86886 6.02331 7.71324 6.30974 7.42674L5.60254 6.71973L4.89533 6.01272C4.64248 6.26564 4.39137 6.51456 4.20696 6.74685C4.00825 6.99716 3.81268 7.31648 3.75759 7.73461L4.74902 7.86523ZM5.60254 6.71973L6.30965 7.42683L7.42683 6.30965L6.71973 5.60254L6.01262 4.89543L4.89543 6.01262L5.60254 6.71973ZM6.71973 5.60254L7.42693 6.30955C7.71368 6.02272 7.86928 5.86904 7.99092 5.77232C8.09455 5.68994 8.07809 5.72863 7.996 5.73946L7.86523 4.74805L7.73447 3.75663C7.31586 3.81185 6.99642 4.00794 6.7463 4.20679C6.51421 4.3913 6.26531 4.64267 6.01252 4.89553L6.71973 5.60254ZM7.86523 4.74805L7.99585 5.73948L7.99616 5.73975L8.02734 4.74023L8.05852 3.74072C7.95396 3.73746 7.84528 3.74203 7.73462 3.75661L7.86523 4.74805ZM8.02734 4.74023L7.99593 5.73974C7.91406 5.73717 7.89441 5.70079 8.00558 5.77218C8.136 5.85592 8.30636 5.99318 8.61969 6.24954L9.25293 5.47559L9.88617 4.70163C9.60891 4.47478 9.33609 4.2497 9.08618 4.08923C8.81702 3.9164 8.47987 3.75396 8.05876 3.74073L8.02734 4.74023ZM9.25293 5.47559L8.61969 6.24954C9.1583 6.69022 9.64035 7.08752 10.0539 7.34324C10.4636 7.59656 11.0428 7.8647 11.7095 7.67769L11.4395 6.71484L11.1694 5.752C11.3353 5.70547 11.3832 5.81373 11.1058 5.64218C10.8322 5.47303 10.4714 5.18046 9.88617 4.70163L9.25293 5.47559ZM11.4395 6.71484L11.7098 7.67761C11.8613 7.63508 12.0091 7.57436 12.1486 7.49604L11.6592 6.62402L11.1697 5.752L11.1691 5.75208L11.4395 6.71484ZM11.6592 6.62402L12.1491 7.49581C12.7529 7.15649 12.9727 6.55699 13.0832 6.08834C13.1948 5.61511 13.2548 4.99324 13.3241 4.30084L12.3291 4.20117L11.3341 4.1015C11.2587 4.854 11.2104 5.31615 11.1366 5.62942C11.0617 5.94728 11.0189 5.83675 11.1693 5.75224L11.6592 6.62402ZM12.3291 4.20117L13.3241 4.30084C13.3644 3.89828 13.3879 3.68093 13.4209 3.52965C13.449 3.40073 13.4608 3.44025 13.4049 3.49987L12.6758 2.81543L11.9467 2.13099C11.6585 2.43795 11.535 2.79092 11.4669 3.10332C11.4036 3.39337 11.3698 3.74522 11.3341 4.1015L12.3291 4.20117ZM12.6758 2.81543L13.4046 3.50018L13.405 3.50016L12.7959 2.70703L12.1868 1.91391C12.1038 1.97767 12.0229 2.04987 11.947 2.13068L12.6758 2.81543ZM12.7959 2.70703L13.4046 3.50043C13.3396 3.55028 13.3014 3.53459 13.4325 3.51943C13.5865 3.50165 13.8052 3.5 14.21 3.5V2.5V1.5C13.8517 1.5 13.4981 1.49856 13.203 1.53265C12.8852 1.56936 12.5215 1.65718 12.1872 1.91363L12.7959 2.70703ZM14.21 2.5V3.5H15.7891V2.5V1.5H14.21V2.5ZM15 10V9C11.6863 9 9 11.6863 9 15H10H11C11 12.7909 12.7909 11 15 11V10ZM10 15H9C9 18.3137 11.6863 21 15 21V20V19C12.7909 19 11 17.2091 11 15H10ZM15 20V21C18.3137 21 21 18.3137 21 15H20H19C19 17.2091 17.2091 19 15 19V20ZM20 15H21C21 11.6863 18.3137 9 15 9V10V11C17.2091 11 19 12.7909 19 15H20Z" fill="#33363F"/>
</svg>
