<svg width="29" height="28" viewBox="0 0 29 28" fill="none" xmlns="http://www.w3.org/2000/svg">
<path d="M5.625 19.8337H11C11.4644 19.8337 11.6966 19.8337 11.8916 19.8593C13.2378 20.0366 14.2971 21.0959 14.4743 22.4421C14.5 22.637 14.5 22.8692 14.5 23.3337V10.667C14.5 7.83856 14.5 6.42435 13.6213 5.54567C12.7426 4.66699 11.3284 4.66699 8.5 4.66699H5.625C4.68219 4.66699 4.21079 4.66699 3.91789 4.95989C3.625 5.25278 3.625 5.72418 3.625 6.66699V17.8337C3.625 18.7765 3.625 19.2479 3.91789 19.5408C4.21079 19.8337 4.68219 19.8337 5.625 19.8337Z" stroke="#33363F" stroke-width="2"/>
<path d="M23.375 19.8337H18C17.5356 19.8337 17.3034 19.8337 17.1084 19.8593C15.7622 20.0366 14.7029 21.0959 14.5257 22.4421C14.5 22.637 14.5 22.8692 14.5 23.3337V10.667C14.5 7.83856 14.5 6.42435 15.3787 5.54567C16.2574 4.66699 17.6716 4.66699 20.5 4.66699H23.375C24.3178 4.66699 24.7892 4.66699 25.0821 4.95989C25.375 5.25278 25.375 5.72418 25.375 6.66699V17.8337C25.375 18.7765 25.375 19.2479 25.0821 19.5408C24.7892 19.8337 24.3178 19.8337 23.375 19.8337Z" stroke="#33363F" stroke-width="2"/>
</svg>
