<svg width="30" height="30" viewBox="0 0 30 30" fill="none" xmlns="http://www.w3.org/2000/svg">
<path d="M14.2119 4.25C14.715 4.03439 15.285 4.03439 15.7881 4.25L23.4521 7.53418C24.2714 7.88528 24.76 8.73668 24.6494 9.62109L23.7861 16.5244C23.566 18.2856 22.6848 19.8979 21.3213 21.0342L16.2803 25.2344C15.5386 25.8525 14.4614 25.8525 13.7197 25.2344L8.67871 21.0342C7.31518 19.8979 6.43402 18.2856 6.21387 16.5244L5.35059 9.62109C5.24003 8.73667 5.72862 7.88528 6.54785 7.53418L14.2119 4.25Z" stroke="#33363F" stroke-width="2" stroke-linecap="round"/>
<path d="M11.25 15L14.5687 18.3187C14.7918 18.5418 15.1633 18.5051 15.3383 18.2425L20 11.25" stroke="#33363F" stroke-width="2" stroke-linecap="round"/>
</svg>
